0
SECTION
2
HEADER
9
$INSUNITS
70
4
9
$ACADVER
1
AC1014
9
$HANDSEED
5
FFFF
0
ENDSEC
0
SECTION
2
TABLES
0
TABLE
2
VPORT
5
8
100
AcDbSymbolTable
0
ENDTAB
0
TABLE
2
LTYPE
5
5
100
AcDbSymbolTable
0
LTYPE
5
14
100
AcDbSymbolTableRecord
100
AcDbLinetypeTableRecord
2
BYBLOCK
70
0
0
LTYPE
5
15
100
AcDbSymbolTableRecord
100
AcDbLinetypeTableRecord
2
BYLAYER
70
0
0
ENDTAB
0
TABLE
2
LAYER
5
2
100
AcDbSymbolTable
70
2
0
LAYER
5
50
100
AcDbSymbolTableRecord
100
AcDbLayerTableRecord
2
0
70
0
6
CONTINUOUS
0
ENDTAB
0
TABLE
2
STYLE
5
3
100
AcDbSymbolTable
70
1
0
STYLE
5
11
100
AcDbSymbolTableRecord
100
AcDbTextStyleTableRecord
2
STANDARD
70
0
0
ENDTAB
0
TABLE
2
VIEW
5
6
100
AcDbSymbolTable
70
0
0
ENDTAB
0
TABLE
2
UCS
5
7
100
AcDbSymbolTable
70
0
0
ENDTAB
0
TABLE
2
APPID
5
9
100
AcDbSymbolTable
70
2
0
APPID
5
12
100
AcDbSymbolTableRecord
100
AcDbRegAppTableRecord
2
ACAD
70
0
0
ENDTAB
0
TABLE
2
DIMSTYLE
5
A
100
AcDbSymbolTable
70
1
0
ENDTAB
0
TABLE
2
BLOCK_RECORD
5
1
100
AcDbSymbolTable
70
1
0
BLOCK_RECORD
5
1F
100
AcDbSymbolTableRecord
100
AcDbBlockTableRecord
2
*MODEL_SPACE
0
BLOCK_RECORD
5
1B
100
AcDbSymbolTableRecord
100
AcDbBlockTableRecord
2
*PAPER_SPACE
0
ENDTAB
0
ENDSEC
0
SECTION
2
BLOCKS
0
BLOCK
5
20
100
AcDbEntity
100
AcDbBlockBegin
2
*MODEL_SPACE
0
ENDBLK
5
21
100
AcDbEntity
100
AcDbBlockEnd
0
BLOCK
5
1C
100
AcDbEntity
100
AcDbBlockBegin
2
*PAPER_SPACE
0
ENDBLK
5
1D
100
AcDbEntity
100
AcDbBlockEnd
0
ENDSEC
0
SECTION
2
ENTITIES
0
LWPOLYLINE
5
100
100
AcDbEntity
8
0
100
AcDbPolyline
90
4
70
1
43
0.0
10
-32.725000000000009
20
16.415000000000003
10
-32.725000000000009
20
17.665000000000003
10
-31.475000000000009
20
17.665000000000003
10
-31.475000000000009
20
16.415000000000003
0
CIRCLE
5
101
100
AcDbEntity
8
0
100
AcDbCircle
10
-32.100000000000009
20
17.040000000000003
30
0
40
0.35000000000000003
0
CIRCLE
5
102
100
AcDbEntity
8
0
100
AcDbCircle
10
-32.100000000000009
20
17.040000000000003
30
0
40
0.35000000000000003
0
LWPOLYLINE
5
103
100
AcDbEntity
8
0
100
AcDbPolyline
90
4
70
1
43
0.0
10
-32.725000000000009
20
16.415000000000003
10
-32.725000000000009
20
17.665000000000003
10
-31.475000000000009
20
17.665000000000003
10
-31.475000000000009
20
16.415000000000003
0
CIRCLE
5
104
100
AcDbEntity
8
0
100
AcDbCircle
10
-2.130000000000003
20
25.750000000000007
30
0
40
0.35000000000000003
0
LWPOLYLINE
5
105
100
AcDbEntity
8
0
100
AcDbPolyline
90
4
70
1
43
0.0
10
-2.755000000000003
20
25.125000000000007
10
-2.755000000000003
20
26.375000000000007
10
-1.5050000000000028
20
26.375000000000007
10
-1.5050000000000028
20
25.125000000000007
0
CIRCLE
5
106
100
AcDbEntity
8
0
100
AcDbCircle
10
-5.1300000000000034
20
15.590000000000003
30
0
40
0.35000000000000003
0
LWPOLYLINE
5
107
100
AcDbEntity
8
0
100
AcDbPolyline
90
4
70
1
43
0.0
10
-5.7550000000000034
20
14.965000000000003
10
-5.7550000000000034
20
16.215000000000003
10
-4.5050000000000034
20
16.215000000000003
10
-4.5050000000000034
20
14.965000000000003
0
CIRCLE
5
108
100
AcDbEntity
8
0
100
AcDbCircle
10
-14.420000000000009
20
10.56
30
0
40
0.40000000000000008
0
LWPOLYLINE
5
109
100
AcDbEntity
8
0
100
AcDbPolyline
90
4
70
1
43
0.0
10
-15.420000000000009
20
9.5600000000000005
10
-15.420000000000009
20
11.560000000000002
10
-13.420000000000007
20
11.560000000000002
10
-13.420000000000007
20
9.5600000000000005
0
CIRCLE
5
110
100
AcDbEntity
8
0
100
AcDbCircle
10
-39.820000000000014
20
18.180000000000003
30
0
40
0.40000000000000008
0
LWPOLYLINE
5
111
100
AcDbEntity
8
0
100
AcDbPolyline
90
4
70
1
43
0.0
10
-40.820000000000014
20
17.180000000000003
10
-40.820000000000014
20
19.180000000000003
10
-38.820000000000014
20
19.180000000000003
10
-38.820000000000014
20
17.180000000000003
0
CIRCLE
5
112
100
AcDbEntity
8
0
100
AcDbCircle
10
-39.820000000000007
20
35.960000000000008
30
0
40
0.40000000000000008
0
LWPOLYLINE
5
113
100
AcDbEntity
8
0
100
AcDbPolyline
90
4
70
1
43
0.0
10
-40.820000000000007
20
34.960000000000008
10
-40.820000000000007
20
36.960000000000008
10
-38.820000000000007
20
36.960000000000008
10
-38.820000000000007
20
34.960000000000008
0
CIRCLE
5
114
100
AcDbEntity
8
0
100
AcDbCircle
10
-24.580000000000013
20
13.100000000000005
30
0
40
0.40000000000000008
0
LWPOLYLINE
5
115
100
AcDbEntity
8
0
100
AcDbPolyline
90
4
70
1
43
0.0
10
-25.580000000000013
20
12.100000000000005
10
-25.580000000000013
20
14.100000000000003
10
-23.580000000000009
20
14.100000000000003
10
-23.580000000000009
20
12.100000000000005
0
CIRCLE
5
116
100
AcDbEntity
8
0
100
AcDbCircle
10
-29.660000000000011
20
35.960000000000008
30
0
40
0.40000000000000008
0
LWPOLYLINE
5
117
100
AcDbEntity
8
0
100
AcDbPolyline
90
4
70
1
43
0.0
10
-30.660000000000011
20
34.960000000000008
10
-30.660000000000011
20
36.960000000000008
10
-28.660000000000011
20
36.960000000000008
10
-28.660000000000011
20
34.960000000000008
0
CIRCLE
5
118
100
AcDbEntity
8
0
100
AcDbCircle
10
-22.040000000000006
20
13.100000000000005
30
0
40
0.40000000000000008
0
LWPOLYLINE
5
119
100
AcDbEntity
8
0
100
AcDbPolyline
90
4
70
1
43
0.0
10
-23.040000000000006
20
12.100000000000005
10
-23.040000000000006
20
14.100000000000003
10
-21.040000000000006
20
14.100000000000003
10
-21.040000000000006
20
12.100000000000005
0
CIRCLE
5
120
100
AcDbEntity
8
0
100
AcDbCircle
10
-3.6300000000000034
20
10.510000000000002
30
0
40
0.35000000000000003
0
LWPOLYLINE
5
121
100
AcDbEntity
8
0
100
AcDbPolyline
90
4
70
1
43
0.0
10
-4.2550000000000034
20
9.8850000000000016
10
-4.2550000000000034
20
11.135000000000002
10
-3.0050000000000034
20
11.135000000000002
10
-3.0050000000000034
20
9.8850000000000016
0
CIRCLE
5
122
100
AcDbEntity
8
0
100
AcDbCircle
10
-6.6300000000000034
20
20.670000000000005
30
0
40
0.35000000000000003
0
LWPOLYLINE
5
123
100
AcDbEntity
8
0
100
AcDbPolyline
90
4
70
1
43
0.0
10
-7.2550000000000034
20
20.045000000000005
10
-7.2550000000000034
20
21.295000000000005
10
-6.0050000000000034
20
21.295000000000005
10
-6.0050000000000034
20
20.045000000000005
0
CIRCLE
5
124
100
AcDbEntity
8
0
100
AcDbCircle
10
-9.6300000000000043
20
30.830000000000005
30
0
40
0.35000000000000003
0
LWPOLYLINE
5
125
100
AcDbEntity
8
0
100
AcDbPolyline
90
4
70
1
43
0.0
10
-10.255000000000006
20
30.205000000000005
10
-10.255000000000006
20
31.455000000000005
10
-9.0050000000000043
20
31.455000000000005
10
-9.0050000000000043
20
30.205000000000005
0
CIRCLE
5
126
100
AcDbEntity
8
0
100
AcDbCircle
10
-9.6300000000000043
20
20.670000000000005
30
0
40
0.35000000000000003
0
LWPOLYLINE
5
127
100
AcDbEntity
8
0
100
AcDbPolyline
90
4
70
1
43
0.0
10
-10.255000000000006
20
20.045000000000005
10
-10.255000000000006
20
21.295000000000005
10
-9.0050000000000043
20
21.295000000000005
10
-9.0050000000000043
20
20.045000000000005
0
CIRCLE
5
128
100
AcDbEntity
8
0
100
AcDbCircle
10
-6.6300000000000034
20
10.510000000000002
30
0
40
0.35000000000000003
0
LWPOLYLINE
5
129
100
AcDbEntity
8
0
100
AcDbPolyline
90
4
70
1
43
0.0
10
-7.2550000000000034
20
9.8850000000000016
10
-7.2550000000000034
20
11.135000000000002
10
-6.0050000000000034
20
11.135000000000002
10
-6.0050000000000034
20
9.8850000000000016
0
CIRCLE
5
130
100
AcDbEntity
8
0
100
AcDbCircle
10
-22.040000000000006
20
18.180000000000003
30
0
40
0.40000000000000008
0
LWPOLYLINE
5
131
100
AcDbEntity
8
0
100
AcDbPolyline
90
4
70
1
43
0.0
10
-23.040000000000006
20
17.180000000000003
10
-23.040000000000006
20
19.180000000000003
10
-21.040000000000006
20
19.180000000000003
10
-21.040000000000006
20
17.180000000000003
0
CIRCLE
5
132
100
AcDbEntity
8
0
100
AcDbCircle
10
-34.740000000000009
20
35.960000000000008
30
0
40
0.40000000000000008
0
LWPOLYLINE
5
133
100
AcDbEntity
8
0
100
AcDbPolyline
90
4
70
1
43
0.0
10
-35.740000000000009
20
34.960000000000008
10
-35.740000000000009
20
36.960000000000008
10
-33.740000000000009
20
36.960000000000008
10
-33.740000000000009
20
34.960000000000008
0
CIRCLE
5
134
100
AcDbEntity
8
0
100
AcDbCircle
10
-24.580000000000013
20
18.180000000000003
30
0
40
0.40000000000000008
0
LWPOLYLINE
5
135
100
AcDbEntity
8
0
100
AcDbPolyline
90
4
70
1
43
0.0
10
-25.580000000000013
20
17.180000000000003
10
-25.580000000000013
20
19.180000000000003
10
-23.580000000000009
20
19.180000000000003
10
-23.580000000000009
20
17.180000000000003
0
CIRCLE
5
136
100
AcDbEntity
8
0
100
AcDbCircle
10
-24.580000000000005
20
35.960000000000008
30
0
40
0.40000000000000008
0
LWPOLYLINE
5
137
100
AcDbEntity
8
0
100
AcDbPolyline
90
4
70
1
43
0.0
10
-25.580000000000005
20
34.960000000000008
10
-25.580000000000005
20
36.960000000000008
10
-23.580000000000005
20
36.960000000000008
10
-23.580000000000005
20
34.960000000000008
0
CIRCLE
5
138
100
AcDbEntity
8
0
100
AcDbCircle
10
-39.820000000000014
20
13.100000000000005
30
0
40
0.40000000000000008
0
LWPOLYLINE
5
139
100
AcDbEntity
8
0
100
AcDbPolyline
90
4
70
1
43
0.0
10
-40.820000000000014
20
12.100000000000005
10
-40.820000000000014
20
14.100000000000003
10
-38.820000000000014
20
14.100000000000003
10
-38.820000000000014
20
12.100000000000005
0
CIRCLE
5
140
100
AcDbEntity
8
0
100
AcDbCircle
10
-14.420000000000005
20
15.640000000000002
30
0
40
0.40000000000000008
0
LWPOLYLINE
5
141
100
AcDbEntity
8
0
100
AcDbPolyline
90
4
70
1
43
0.0
10
-15.420000000000007
20
14.640000000000004
10
-15.420000000000007
20
16.640000000000004
10
-13.420000000000005
20
16.640000000000004
10
-13.420000000000005
20
14.640000000000004
0
CIRCLE
5
142
100
AcDbEntity
8
0
100
AcDbCircle
10
-8.1300000000000043
20
15.590000000000003
30
0
40
0.35000000000000003
0
LWPOLYLINE
5
143
100
AcDbEntity
8
0
100
AcDbPolyline
90
4
70
1
43
0.0
10
-8.7550000000000043
20
14.965000000000003
10
-8.7550000000000043
20
16.215000000000003
10
-7.5050000000000043
20
16.215000000000003
10
-7.5050000000000043
20
14.965000000000003
0
CIRCLE
5
144
100
AcDbEntity
8
0
100
AcDbCircle
10
-5.1300000000000034
20
25.750000000000007
30
0
40
0.35000000000000003
0
LWPOLYLINE
5
145
100
AcDbEntity
8
0
100
AcDbPolyline
90
4
70
1
43
0.0
10
-5.7550000000000034
20
25.125000000000007
10
-5.7550000000000034
20
26.375000000000007
10
-4.5050000000000034
20
26.375000000000007
10
-4.5050000000000034
20
25.125000000000007
0
CIRCLE
5
146
100
AcDbEntity
8
0
100
AcDbCircle
10
-32.100000000000009
20
15.540000000000003
30
0
40
0.35000000000000003
0
LWPOLYLINE
5
147
100
AcDbEntity
8
0
100
AcDbPolyline
90
4
70
1
43
0.0
10
-32.725000000000009
20
14.915000000000003
10
-32.725000000000009
20
16.165000000000003
10
-31.475000000000009
20
16.165000000000003
10
-31.475000000000009
20
14.915000000000003
0
CIRCLE
5
148
100
AcDbEntity
8
0
100
AcDbCircle
10
-32.100000000000009
20
21.540000000000003
30
0
40
0.35000000000000003
0
LWPOLYLINE
5
149
100
AcDbEntity
8
0
100
AcDbPolyline
90
4
70
1
43
0.0
10
-32.725000000000009
20
20.915000000000003
10
-32.725000000000009
20
22.165000000000003
10
-31.475000000000009
20
22.165000000000003
10
-31.475000000000009
20
20.915000000000003
0
CIRCLE
5
150
100
AcDbEntity
8
0
100
AcDbCircle
10
-11.130000000000004
20
25.750000000000007
30
0
40
0.35000000000000003
0
LWPOLYLINE
5
151
100
AcDbEntity
8
0
100
AcDbPolyline
90
4
70
1
43
0.0
10
-11.755000000000004
20
25.125000000000007
10
-11.755000000000004
20
26.375000000000007
10
-10.505000000000004
20
26.375000000000007
10
-10.505000000000004
20
25.125000000000007
0
CIRCLE
5
152
100
AcDbEntity
8
0
100
AcDbCircle
10
-14.420000000000002
20
28.340000000000003
30
0
40
0.40000000000000008
0
LWPOLYLINE
5
153
100
AcDbEntity
8
0
100
AcDbPolyline
90
4
70
1
43
0.0
10
-15.420000000000002
20
27.340000000000003
10
-15.420000000000002
20
29.340000000000007
10
-13.420000000000003
20
29.340000000000007
10
-13.420000000000003
20
27.340000000000003
0
CIRCLE
5
154
100
AcDbEntity
8
0
100
AcDbCircle
10
-14.420000000000003
20
25.800000000000004
30
0
40
0.40000000000000008
0
LWPOLYLINE
5
155
100
AcDbEntity
8
0
100
AcDbPolyline
90
4
70
1
43
0.0
10
-15.420000000000005
20
24.800000000000004
10
-15.420000000000005
20
26.800000000000004
10
-13.420000000000005
20
26.800000000000004
10
-13.420000000000005
20
24.800000000000004
0
CIRCLE
5
156
100
AcDbEntity
8
0
100
AcDbCircle
10
-39.820000000000014
20
10.560000000000002
30
0
40
0.40000000000000008
0
LWPOLYLINE
5
157
100
AcDbEntity
8
0
100
AcDbPolyline
90
4
70
1
43
0.0
10
-40.820000000000014
20
9.5600000000000023
10
-40.820000000000014
20
11.560000000000004
10
-38.820000000000014
20
11.560000000000004
10
-38.820000000000014
20
9.5600000000000023
0
CIRCLE
5
158
100
AcDbEntity
8
0
100
AcDbCircle
10
-24.580000000000005
20
25.800000000000004
30
0
40
0.40000000000000008
0
LWPOLYLINE
5
159
100
AcDbEntity
8
0
100
AcDbPolyline
90
4
70
1
43
0.0
10
-25.580000000000005
20
24.800000000000004
10
-25.580000000000005
20
26.800000000000004
10
-23.580000000000005
20
26.800000000000004
10
-23.580000000000005
20
24.800000000000004
0
CIRCLE
5
160
100
AcDbEntity
8
0
100
AcDbCircle
10
-24.580000000000005
20
28.340000000000003
30
0
40
0.40000000000000008
0
LWPOLYLINE
5
161
100
AcDbEntity
8
0
100
AcDbPolyline
90
4
70
1
43
0.0
10
-25.580000000000005
20
27.340000000000003
10
-25.580000000000005
20
29.340000000000007
10
-23.580000000000005
20
29.340000000000007
10
-23.580000000000005
20
27.340000000000003
0
CIRCLE
5
162
100
AcDbEntity
8
0
100
AcDbCircle
10
-22.040000000000006
20
25.800000000000004
30
0
40
0.40000000000000008
0
LWPOLYLINE
5
163
100
AcDbEntity
8
0
100
AcDbPolyline
90
4
70
1
43
0.0
10
-23.040000000000006
20
24.800000000000004
10
-23.040000000000006
20
26.800000000000004
10
-21.040000000000006
20
26.800000000000004
10
-21.040000000000006
20
24.800000000000004
0
CIRCLE
5
164
100
AcDbEntity
8
0
100
AcDbCircle
10
-22.040000000000003
20
28.340000000000003
30
0
40
0.40000000000000008
0
LWPOLYLINE
5
165
100
AcDbEntity
8
0
100
AcDbPolyline
90
4
70
1
43
0.0
10
-23.040000000000003
20
27.340000000000003
10
-23.040000000000003
20
29.340000000000007
10
-21.040000000000006
20
29.340000000000007
10
-21.040000000000006
20
27.340000000000003
0
CIRCLE
5
166
100
AcDbEntity
8
0
100
AcDbCircle
10
-11.130000000000004
20
20.670000000000005
30
0
40
0.35000000000000003
0
LWPOLYLINE
5
167
100
AcDbEntity
8
0
100
AcDbPolyline
90
4
70
1
43
0.0
10
-11.755000000000004
20
20.045000000000005
10
-11.755000000000004
20
21.295000000000005
10
-10.505000000000004
20
21.295000000000005
10
-10.505000000000004
20
20.045000000000005
0
CIRCLE
5
168
100
AcDbEntity
8
0
100
AcDbCircle
10
-8.1300000000000043
20
30.830000000000005
30
0
40
0.35000000000000003
0
LWPOLYLINE
5
169
100
AcDbEntity
8
0
100
AcDbPolyline
90
4
70
1
43
0.0
10
-8.7550000000000043
20
30.205000000000005
10
-8.7550000000000043
20
31.455000000000005
10
-7.5050000000000043
20
31.455000000000005
10
-7.5050000000000043
20
30.205000000000005
0
CIRCLE
5
170
100
AcDbEntity
8
0
100
AcDbCircle
10
-3.6300000000000034
20
30.830000000000005
30
0
40
0.35000000000000003
0
LWPOLYLINE
5
171
100
AcDbEntity
8
0
100
AcDbPolyline
90
4
70
1
43
0.0
10
-4.2550000000000034
20
30.205000000000005
10
-4.2550000000000034
20
31.455000000000005
10
-3.0050000000000034
20
31.455000000000005
10
-3.0050000000000034
20
30.205000000000005
0
CIRCLE
5
172
100
AcDbEntity
8
0
100
AcDbCircle
10
-2.130000000000003
20
20.670000000000005
30
0
40
0.35000000000000003
0
LWPOLYLINE
5
173
100
AcDbEntity
8
0
100
AcDbPolyline
90
4
70
1
43
0.0
10
-2.755000000000003
20
20.045000000000005
10
-2.755000000000003
20
21.295000000000005
10
-1.5050000000000028
20
21.295000000000005
10
-1.5050000000000028
20
20.045000000000005
0
CIRCLE
5
174
100
AcDbEntity
8
0
100
AcDbCircle
10
-5.1300000000000034
20
10.510000000000002
30
0
40
0.35000000000000003
0
LWPOLYLINE
5
175
100
AcDbEntity
8
0
100
AcDbPolyline
90
4
70
1
43
0.0
10
-5.7550000000000034
20
9.8850000000000016
10
-5.7550000000000034
20
11.135000000000002
10
-4.5050000000000034
20
11.135000000000002
10
-4.5050000000000034
20
9.8850000000000016
0
CIRCLE
5
176
100
AcDbEntity
8
0
100
AcDbCircle
10
-22.04000000000001
20
10.560000000000002
30
0
40
0.40000000000000008
0
LWPOLYLINE
5
177
100
AcDbEntity
8
0
100
AcDbPolyline
90
4
70
1
43
0.0
10
-23.040000000000013
20
9.5600000000000023
10
-23.040000000000013
20
11.560000000000004
10
-21.04000000000001
20
11.560000000000004
10
-21.04000000000001
20
9.5600000000000023
0
CIRCLE
5
178
100
AcDbEntity
8
0
100
AcDbCircle
10
-32.20000000000001
20
35.960000000000008
30
0
40
0.40000000000000008
0
LWPOLYLINE
5
179
100
AcDbEntity
8
0
100
AcDbPolyline
90
4
70
1
43
0.0
10
-33.20000000000001
20
34.960000000000008
10
-33.20000000000001
20
36.960000000000008
10
-31.20000000000001
20
36.960000000000008
10
-31.20000000000001
20
34.960000000000008
0
CIRCLE
5
180
100
AcDbEntity
8
0
100
AcDbCircle
10
-24.580000000000013
20
10.560000000000002
30
0
40
0.40000000000000008
0
LWPOLYLINE
5
181
100
AcDbEntity
8
0
100
AcDbPolyline
90
4
70
1
43
0.0
10
-25.580000000000013
20
9.5600000000000023
10
-25.580000000000013
20
11.560000000000004
10
-23.580000000000009
20
11.560000000000004
10
-23.580000000000009
20
9.5600000000000023
0
CIRCLE
5
182
100
AcDbEntity
8
0
100
AcDbCircle
10
-39.820000000000014
20
25.800000000000004
30
0
40
0.40000000000000008
0
LWPOLYLINE
5
183
100
AcDbEntity
8
0
100
AcDbPolyline
90
4
70
1
43
0.0
10
-40.820000000000014
20
24.800000000000004
10
-40.820000000000014
20
26.800000000000004
10
-38.820000000000014
20
26.800000000000004
10
-38.820000000000014
20
24.800000000000004
0
CIRCLE
5
184
100
AcDbEntity
8
0
100
AcDbCircle
10
-39.820000000000014
20
28.340000000000003
30
0
40
0.40000000000000008
0
LWPOLYLINE
5
185
100
AcDbEntity
8
0
100
AcDbPolyline
90
4
70
1
43
0.0
10
-40.820000000000014
20
27.340000000000003
10
-40.820000000000014
20
29.340000000000007
10
-38.820000000000014
20
29.340000000000007
10
-38.820000000000014
20
27.340000000000003
0
CIRCLE
5
186
100
AcDbEntity
8
0
100
AcDbCircle
10
-14.420000000000005
20
13.100000000000003
30
0
40
0.40000000000000008
0
LWPOLYLINE
5
187
100
AcDbEntity
8
0
100
AcDbPolyline
90
4
70
1
43
0.0
10
-15.420000000000007
20
12.100000000000001
10
-15.420000000000007
20
14.100000000000001
10
-13.420000000000005
20
14.100000000000001
10
-13.420000000000005
20
12.100000000000001
0
CIRCLE
5
188
100
AcDbEntity
8
0
100
AcDbCircle
10
-3.6300000000000034
20
15.590000000000003
30
0
40
0.35000000000000003
0
LWPOLYLINE
5
189
100
AcDbEntity
8
0
100
AcDbPolyline
90
4
70
1
43
0.0
10
-4.2550000000000034
20
14.965000000000003
10
-4.2550000000000034
20
16.215000000000003
10
-3.0050000000000034
20
16.215000000000003
10
-3.0050000000000034
20
14.965000000000003
0
CIRCLE
5
190
100
AcDbEntity
8
0
100
AcDbCircle
10
-6.6300000000000034
20
25.750000000000007
30
0
40
0.35000000000000003
0
LWPOLYLINE
5
191
100
AcDbEntity
8
0
100
AcDbPolyline
90
4
70
1
43
0.0
10
-7.2550000000000034
20
25.125000000000007
10
-7.2550000000000034
20
26.375000000000007
10
-6.0050000000000034
20
26.375000000000007
10
-6.0050000000000034
20
25.125000000000007
0
CIRCLE
5
192
100
AcDbEntity
8
0
100
AcDbCircle
10
-32.100000000000009
20
23.040000000000003
30
0
40
0.35000000000000003
0
LWPOLYLINE
5
193
100
AcDbEntity
8
0
100
AcDbPolyline
90
4
70
1
43
0.0
10
-32.725000000000009
20
22.415000000000003
10
-32.725000000000009
20
23.665000000000003
10
-31.475000000000009
20
23.665000000000003
10
-31.475000000000009
20
22.415000000000003
0
CIRCLE
5
194
100
AcDbEntity
8
0
100
AcDbCircle
10
-32.100000000000009
20
18.540000000000003
30
0
40
0.35000000000000003
0
LWPOLYLINE
5
195
100
AcDbEntity
8
0
100
AcDbPolyline
90
4
70
1
43
0.0
10
-32.725000000000009
20
17.915000000000003
10
-32.725000000000009
20
19.165000000000003
10
-31.475000000000009
20
19.165000000000003
10
-31.475000000000009
20
17.915000000000003
0
CIRCLE
5
196
100
AcDbEntity
8
0
100
AcDbCircle
10
-8.1300000000000043
20
25.750000000000007
30
0
40
0.35000000000000003
0
LWPOLYLINE
5
197
100
AcDbEntity
8
0
100
AcDbPolyline
90
4
70
1
43
0.0
10
-8.7550000000000043
20
25.125000000000007
10
-8.7550000000000043
20
26.375000000000007
10
-7.5050000000000043
20
26.375000000000007
10
-7.5050000000000043
20
25.125000000000007
0
CIRCLE
5
198
100
AcDbEntity
8
0
100
AcDbCircle
10
-11.130000000000004
20
15.590000000000003
30
0
40
0.35000000000000003
0
LWPOLYLINE
5
199
100
AcDbEntity
8
0
100
AcDbPolyline
90
4
70
1
43
0.0
10
-11.755000000000004
20
14.965000000000003
10
-11.755000000000004
20
16.215000000000003
10
-10.505000000000004
20
16.215000000000003
10
-10.505000000000004
20
14.965000000000003
0
CIRCLE
5
200
100
AcDbEntity
8
0
100
AcDbCircle
10
-14.420000000000003
20
20.720000000000006
30
0
40
0.40000000000000008
0
LWPOLYLINE
5
201
100
AcDbEntity
8
0
100
AcDbPolyline
90
4
70
1
43
0.0
10
-15.420000000000005
20
19.720000000000002
10
-15.420000000000005
20
21.720000000000002
10
-13.420000000000005
20
21.720000000000002
10
-13.420000000000005
20
19.720000000000002
0
CIRCLE
5
202
100
AcDbEntity
8
0
100
AcDbCircle
10
-39.820000000000014
20
8.0200000000000014
30
0
40
0.40000000000000008
0
LWPOLYLINE
5
203
100
AcDbEntity
8
0
100
AcDbPolyline
90
4
70
1
43
0.0
10
-40.820000000000014
20
7.0200000000000005
10
-40.820000000000014
20
9.0200000000000014
10
-38.820000000000014
20
9.0200000000000014
10
-38.820000000000014
20
7.0200000000000005
0
CIRCLE
5
204
100
AcDbEntity
8
0
100
AcDbCircle
10
-24.580000000000005
20
30.880000000000006
30
0
40
0.40000000000000008
0
LWPOLYLINE
5
205
100
AcDbEntity
8
0
100
AcDbPolyline
90
4
70
1
43
0.0
10
-25.580000000000005
20
29.880000000000003
10
-25.580000000000005
20
31.880000000000006
10
-23.580000000000005
20
31.880000000000006
10
-23.580000000000005
20
29.880000000000003
0
CIRCLE
5
206
100
AcDbEntity
8
0
100
AcDbCircle
10
-24.580000000000005
20
23.260000000000002
30
0
40
0.40000000000000008
0
LWPOLYLINE
5
207
100
AcDbEntity
8
0
100
AcDbPolyline
90
4
70
1
43
0.0
10
-25.580000000000005
20
22.260000000000005
10
-25.580000000000005
20
24.260000000000002
10
-23.580000000000005
20
24.260000000000002
10
-23.580000000000005
20
22.260000000000005
0
CIRCLE
5
208
100
AcDbEntity
8
0
100
AcDbCircle
10
-22.040000000000003
20
30.880000000000006
30
0
40
0.40000000000000008
0
LWPOLYLINE
5
209
100
AcDbEntity
8
0
100
AcDbPolyline
90
4
70
1
43
0.0
10
-23.040000000000003
20
29.880000000000003
10
-23.040000000000003
20
31.880000000000006
10
-21.040000000000006
20
31.880000000000006
10
-21.040000000000006
20
29.880000000000003
0
CIRCLE
5
210
100
AcDbEntity
8
0
100
AcDbCircle
10
-22.040000000000006
20
23.260000000000002
30
0
40
0.40000000000000008
0
LWPOLYLINE
5
211
100
AcDbEntity
8
0
100
AcDbPolyline
90
4
70
1
43
0.0
10
-23.040000000000006
20
22.260000000000005
10
-23.040000000000006
20
24.260000000000002
10
-21.040000000000006
20
24.260000000000002
10
-21.040000000000006
20
22.260000000000005
0
CIRCLE
5
212
100
AcDbEntity
8
0
100
AcDbCircle
10
-9.6300000000000043
20
10.510000000000002
30
0
40
0.35000000000000003
0
LWPOLYLINE
5
213
100
AcDbEntity
8
0
100
AcDbPolyline
90
4
70
1
43
0.0
10
-10.255000000000006
20
9.8850000000000016
10
-10.255000000000006
20
11.135000000000002
10
-9.0050000000000043
20
11.135000000000002
10
-9.0050000000000043
20
9.8850000000000016
0
CIRCLE
5
214
100
AcDbEntity
8
0
100
AcDbCircle
10
-11.130000000000004
20
30.830000000000005
30
0
40
0.35000000000000003
0
LWPOLYLINE
5
215
100
AcDbEntity
8
0
100
AcDbPolyline
90
4
70
1
43
0.0
10
-11.755000000000004
20
30.205000000000005
10
-11.755000000000004
20
31.455000000000005
10
-10.505000000000004
20
31.455000000000005
10
-10.505000000000004
20
30.205000000000005
0
CIRCLE
5
216
100
AcDbEntity
8
0
100
AcDbCircle
10
-6.6300000000000034
20
30.830000000000005
30
0
40
0.35000000000000003
0
LWPOLYLINE
5
217
100
AcDbEntity
8
0
100
AcDbPolyline
90
4
70
1
43
0.0
10
-7.2550000000000034
20
30.205000000000005
10
-7.2550000000000034
20
31.455000000000005
10
-6.0050000000000034
20
31.455000000000005
10
-6.0050000000000034
20
30.205000000000005
0
CIRCLE
5
218
100
AcDbEntity
8
0
100
AcDbCircle
10
-3.6300000000000034
20
20.670000000000005
30
0
40
0.35000000000000003
0
LWPOLYLINE
5
219
100
AcDbEntity
8
0
100
AcDbPolyline
90
4
70
1
43
0.0
10
-4.2550000000000034
20
20.045000000000005
10
-4.2550000000000034
20
21.295000000000005
10
-3.0050000000000034
20
21.295000000000005
10
-3.0050000000000034
20
20.045000000000005
0
CIRCLE
5
220
100
AcDbEntity
8
0
100
AcDbCircle
10
-2.130000000000003
20
10.510000000000002
30
0
40
0.35000000000000003
0
LWPOLYLINE
5
221
100
AcDbEntity
8
0
100
AcDbPolyline
90
4
70
1
43
0.0
10
-2.755000000000003
20
9.8850000000000016
10
-2.755000000000003
20
11.135000000000002
10
-1.5050000000000028
20
11.135000000000002
10
-1.5050000000000028
20
9.8850000000000016
0
CIRCLE
5
222
100
AcDbEntity
8
0
100
AcDbCircle
10
-22.04000000000001
20
8.0200000000000014
30
0
40
0.40000000000000008
0
LWPOLYLINE
5
223
100
AcDbEntity
8
0
100
AcDbPolyline
90
4
70
1
43
0.0
10
-23.040000000000013
20
7.0200000000000005
10
-23.040000000000013
20
9.0200000000000014
10
-21.04000000000001
20
9.0200000000000014
10
-21.04000000000001
20
7.0200000000000005
0
CIRCLE
5
224
100
AcDbEntity
8
0
100
AcDbCircle
10
-27.120000000000005
20
35.960000000000008
30
0
40
0.40000000000000008
0
LWPOLYLINE
5
225
100
AcDbEntity
8
0
100
AcDbPolyline
90
4
70
1
43
0.0
10
-28.120000000000008
20
34.960000000000008
10
-28.120000000000008
20
36.960000000000008
10
-26.120000000000005
20
36.960000000000008
10
-26.120000000000005
20
34.960000000000008
0
CIRCLE
5
226
100
AcDbEntity
8
0
100
AcDbCircle
10
-24.580000000000013
20
8.0200000000000014
30
0
40
0.40000000000000008
0
LWPOLYLINE
5
227
100
AcDbEntity
8
0
100
AcDbPolyline
90
4
70
1
43
0.0
10
-25.580000000000013
20
7.0200000000000005
10
-25.580000000000013
20
9.0200000000000014
10
-23.580000000000009
20
9.0200000000000014
10
-23.580000000000009
20
7.0200000000000005
0
CIRCLE
5
228
100
AcDbEntity
8
0
100
AcDbCircle
10
-39.820000000000014
20
30.880000000000006
30
0
40
0.40000000000000008
0
LWPOLYLINE
5
229
100
AcDbEntity
8
0
100
AcDbPolyline
90
4
70
1
43
0.0
10
-40.820000000000014
20
29.880000000000003
10
-40.820000000000014
20
31.880000000000006
10
-38.820000000000014
20
31.880000000000006
10
-38.820000000000014
20
29.880000000000003
0
CIRCLE
5
230
100
AcDbEntity
8
0
100
AcDbCircle
10
-39.820000000000014
20
23.260000000000002
30
0
40
0.40000000000000008
0
LWPOLYLINE
5
231
100
AcDbEntity
8
0
100
AcDbPolyline
90
4
70
1
43
0.0
10
-40.820000000000014
20
22.260000000000005
10
-40.820000000000014
20
24.260000000000002
10
-38.820000000000014
20
24.260000000000002
10
-38.820000000000014
20
22.260000000000005
0
CIRCLE
5
232
100
AcDbEntity
8
0
100
AcDbCircle
10
-14.420000000000009
20
8.0200000000000014
30
0
40
0.40000000000000008
0
LWPOLYLINE
5
233
100
AcDbEntity
8
0
100
AcDbPolyline
90
4
70
1
43
0.0
10
-15.420000000000009
20
7.0200000000000005
10
-15.420000000000009
20
9.0200000000000014
10
-13.420000000000007
20
9.0200000000000014
10
-13.420000000000007
20
7.0200000000000005
0
CIRCLE
5
234
100
AcDbEntity
8
0
100
AcDbCircle
10
-2.130000000000003
20
15.590000000000003
30
0
40
0.35000000000000003
0
LWPOLYLINE
5
235
100
AcDbEntity
8
0
100
AcDbPolyline
90
4
70
1
43
0.0
10
-2.755000000000003
20
14.965000000000003
10
-2.755000000000003
20
16.215000000000003
10
-1.5050000000000028
20
16.215000000000003
10
-1.5050000000000028
20
14.965000000000003
0
CIRCLE
5
236
100
AcDbEntity
8
0
100
AcDbCircle
10
-3.6300000000000034
20
25.750000000000007
30
0
40
0.35000000000000003
0
LWPOLYLINE
5
237
100
AcDbEntity
8
0
100
AcDbPolyline
90
4
70
1
43
0.0
10
-4.2550000000000034
20
25.125000000000007
10
-4.2550000000000034
20
26.375000000000007
10
-3.0050000000000034
20
26.375000000000007
10
-3.0050000000000034
20
25.125000000000007
0
CIRCLE
5
238
100
AcDbEntity
8
0
100
AcDbCircle
10
-32.100000000000009
20
20.040000000000006
30
0
40
0.35000000000000003
0
LWPOLYLINE
5
239
100
AcDbEntity
8
0
100
AcDbPolyline
90
4
70
1
43
0.0
10
-32.725000000000009
20
19.415000000000003
10
-32.725000000000009
20
20.665000000000006
10
-31.475000000000009
20
20.665000000000006
10
-31.475000000000009
20
19.415000000000003
0
CIRCLE
5
240
100
AcDbEntity
8
0
100
AcDbCircle
10
-9.6300000000000043
20
25.750000000000007
30
0
40
0.35000000000000003
0
LWPOLYLINE
5
241
100
AcDbEntity
8
0
100
AcDbPolyline
90
4
70
1
43
0.0
10
-10.255000000000006
20
25.125000000000007
10
-10.255000000000006
20
26.375000000000007
10
-9.0050000000000043
20
26.375000000000007
10
-9.0050000000000043
20
25.125000000000007
0
CIRCLE
5
242
100
AcDbEntity
8
0
100
AcDbCircle
10
-6.6300000000000034
20
15.590000000000003
30
0
40
0.35000000000000003
0
LWPOLYLINE
5
243
100
AcDbEntity
8
0
100
AcDbPolyline
90
4
70
1
43
0.0
10
-7.2550000000000034
20
14.965000000000003
10
-7.2550000000000034
20
16.215000000000003
10
-6.0050000000000034
20
16.215000000000003
10
-6.0050000000000034
20
14.965000000000003
0
CIRCLE
5
244
100
AcDbEntity
8
0
100
AcDbCircle
10
-14.420000000000005
20
18.180000000000003
30
0
40
0.40000000000000008
0
LWPOLYLINE
5
245
100
AcDbEntity
8
0
100
AcDbPolyline
90
4
70
1
43
0.0
10
-15.420000000000007
20
17.180000000000003
10
-15.420000000000007
20
19.180000000000003
10
-13.420000000000005
20
19.180000000000003
10
-13.420000000000005
20
17.180000000000003
0
CIRCLE
5
246
100
AcDbEntity
8
0
100
AcDbCircle
10
-39.820000000000007
20
33.420000000000009
30
0
40
0.40000000000000008
0
LWPOLYLINE
5
247
100
AcDbEntity
8
0
100
AcDbPolyline
90
4
70
1
43
0.0
10
-40.820000000000007
20
32.420000000000009
10
-40.820000000000007
20
34.420000000000009
10
-38.820000000000007
20
34.420000000000009
10
-38.820000000000007
20
32.420000000000009
0
CIRCLE
5
248
100
AcDbEntity
8
0
100
AcDbCircle
10
-39.820000000000014
20
20.720000000000006
30
0
40
0.40000000000000008
0
LWPOLYLINE
5
249
100
AcDbEntity
8
0
100
AcDbPolyline
90
4
70
1
43
0.0
10
-40.820000000000014
20
19.720000000000002
10
-40.820000000000014
20
21.720000000000002
10
-38.820000000000014
20
21.720000000000002
10
-38.820000000000014
20
19.720000000000002
0
CIRCLE
5
250
100
AcDbEntity
8
0
100
AcDbCircle
10
-24.580000000000013
20
15.640000000000002
30
0
40
0.40000000000000008
0
LWPOLYLINE
5
251
100
AcDbEntity
8
0
100
AcDbPolyline
90
4
70
1
43
0.0
10
-25.580000000000013
20
14.640000000000004
10
-25.580000000000013
20
16.640000000000004
10
-23.580000000000009
20
16.640000000000004
10
-23.580000000000009
20
14.640000000000004
0
CIRCLE
5
252
100
AcDbEntity
8
0
100
AcDbCircle
10
-37.280000000000008
20
35.960000000000008
30
0
40
0.40000000000000008
0
LWPOLYLINE
5
253
100
AcDbEntity
8
0
100
AcDbPolyline
90
4
70
1
43
0.0
10
-38.280000000000008
20
34.960000000000008
10
-38.280000000000008
20
36.960000000000008
10
-36.280000000000008
20
36.960000000000008
10
-36.280000000000008
20
34.960000000000008
0
CIRCLE
5
254
100
AcDbEntity
8
0
100
AcDbCircle
10
-22.040000000000006
20
15.640000000000002
30
0
40
0.40000000000000008
0
LWPOLYLINE
5
255
100
AcDbEntity
8
0
100
AcDbPolyline
90
4
70
1
43
0.0
10
-23.040000000000006
20
14.640000000000004
10
-23.040000000000006
20
16.640000000000004
10
-21.040000000000006
20
16.640000000000004
10
-21.040000000000006
20
14.640000000000004
0
CIRCLE
5
256
100
AcDbEntity
8
0
100
AcDbCircle
10
-8.1300000000000043
20
10.510000000000002
30
0
40
0.35000000000000003
0
LWPOLYLINE
5
257
100
AcDbEntity
8
0
100
AcDbPolyline
90
4
70
1
43
0.0
10
-8.7550000000000043
20
9.8850000000000016
10
-8.7550000000000043
20
11.135000000000002
10
-7.5050000000000043
20
11.135000000000002
10
-7.5050000000000043
20
9.8850000000000016
0
CIRCLE
5
258
100
AcDbEntity
8
0
100
AcDbCircle
10
-5.1300000000000034
20
20.670000000000005
30
0
40
0.35000000000000003
0
LWPOLYLINE
5
259
100
AcDbEntity
8
0
100
AcDbPolyline
90
4
70
1
43
0.0
10
-5.7550000000000034
20
20.045000000000005
10
-5.7550000000000034
20
21.295000000000005
10
-4.5050000000000034
20
21.295000000000005
10
-4.5050000000000034
20
20.045000000000005
0
CIRCLE
5
260
100
AcDbEntity
8
0
100
AcDbCircle
10
-2.130000000000003
20
30.830000000000005
30
0
40
0.35000000000000003
0
LWPOLYLINE
5
261
100
AcDbEntity
8
0
100
AcDbPolyline
90
4
70
1
43
0.0
10
-2.755000000000003
20
30.205000000000005
10
-2.755000000000003
20
31.455000000000005
10
-1.5050000000000028
20
31.455000000000005
10
-1.5050000000000028
20
30.205000000000005
0
CIRCLE
5
262
100
AcDbEntity
8
0
100
AcDbCircle
10
-5.1300000000000034
20
30.830000000000005
30
0
40
0.35000000000000003
0
LWPOLYLINE
5
263
100
AcDbEntity
8
0
100
AcDbPolyline
90
4
70
1
43
0.0
10
-5.7550000000000034
20
30.205000000000005
10
-5.7550000000000034
20
31.455000000000005
10
-4.5050000000000034
20
31.455000000000005
10
-4.5050000000000034
20
30.205000000000005
0
CIRCLE
5
264
100
AcDbEntity
8
0
100
AcDbCircle
10
-8.1300000000000043
20
20.670000000000005
30
0
40
0.35000000000000003
0
LWPOLYLINE
5
265
100
AcDbEntity
8
0
100
AcDbPolyline
90
4
70
1
43
0.0
10
-8.7550000000000043
20
20.045000000000005
10
-8.7550000000000043
20
21.295000000000005
10
-7.5050000000000043
20
21.295000000000005
10
-7.5050000000000043
20
20.045000000000005
0
CIRCLE
5
266
100
AcDbEntity
8
0
100
AcDbCircle
10
-11.130000000000004
20
10.510000000000002
30
0
40
0.35000000000000003
0
LWPOLYLINE
5
267
100
AcDbEntity
8
0
100
AcDbPolyline
90
4
70
1
43
0.0
10
-11.755000000000004
20
9.8850000000000016
10
-11.755000000000004
20
11.135000000000002
10
-10.505000000000004
20
11.135000000000002
10
-10.505000000000004
20
9.8850000000000016
0
CIRCLE
5
268
100
AcDbEntity
8
0
100
AcDbCircle
10
-22.040000000000006
20
20.720000000000006
30
0
40
0.40000000000000008
0
LWPOLYLINE
5
269
100
AcDbEntity
8
0
100
AcDbPolyline
90
4
70
1
43
0.0
10
-23.040000000000006
20
19.720000000000002
10
-23.040000000000006
20
21.720000000000002
10
-21.040000000000006
20
21.720000000000002
10
-21.040000000000006
20
19.720000000000002
0
CIRCLE
5
270
100
AcDbEntity
8
0
100
AcDbCircle
10
-24.580000000000005
20
33.420000000000009
30
0
40
0.40000000000000008
0
LWPOLYLINE
5
271
100
AcDbEntity
8
0
100
AcDbPolyline
90
4
70
1
43
0.0
10
-25.580000000000005
20
32.420000000000009
10
-25.580000000000005
20
34.420000000000009
10
-23.580000000000005
20
34.420000000000009
10
-23.580000000000005
20
32.420000000000009
0
CIRCLE
5
272
100
AcDbEntity
8
0
100
AcDbCircle
10
-24.580000000000013
20
20.720000000000006
30
0
40
0.40000000000000008
0
LWPOLYLINE
5
273
100
AcDbEntity
8
0
100
AcDbPolyline
90
4
70
1
43
0.0
10
-25.580000000000013
20
19.720000000000002
10
-25.580000000000013
20
21.720000000000002
10
-23.580000000000009
20
21.720000000000002
10
-23.580000000000009
20
19.720000000000002
0
CIRCLE
5
274
100
AcDbEntity
8
0
100
AcDbCircle
10
-39.820000000000014
20
15.640000000000002
30
0
40
0.40000000000000008
0
LWPOLYLINE
5
275
100
AcDbEntity
8
0
100
AcDbPolyline
90
4
70
1
43
0.0
10
-40.820000000000014
20
14.640000000000004
10
-40.820000000000014
20
16.640000000000004
10
-38.820000000000014
20
16.640000000000004
10
-38.820000000000014
20
14.640000000000004
0
CIRCLE
5
276
100
AcDbEntity
8
0
100
AcDbCircle
10
-14.420000000000002
20
30.880000000000006
30
0
40
0.40000000000000008
0
LWPOLYLINE
5
277
100
AcDbEntity
8
0
100
AcDbPolyline
90
4
70
1
43
0.0
10
-15.420000000000002
20
29.880000000000003
10
-15.420000000000002
20
31.880000000000006
10
-13.420000000000003
20
31.880000000000006
10
-13.420000000000003
20
29.880000000000003
0
CIRCLE
5
278
100
AcDbEntity
8
0
100
AcDbCircle
10
-14.420000000000003
20
23.260000000000002
30
0
40
0.40000000000000008
0
LWPOLYLINE
5
279
100
AcDbEntity
8
0
100
AcDbPolyline
90
4
70
1
43
0.0
10
-15.420000000000005
20
22.260000000000005
10
-15.420000000000005
20
24.260000000000002
10
-13.420000000000005
20
24.260000000000002
10
-13.420000000000005
20
22.260000000000005
0
CIRCLE
5
280
100
AcDbEntity
8
0
100
AcDbCircle
10
-9.6300000000000043
20
15.590000000000003
30
0
40
0.35000000000000003
0
LWPOLYLINE
5
281
100
AcDbEntity
8
0
100
AcDbPolyline
90
4
70
1
43
0.0
10
-10.255000000000006
20
14.965000000000003
10
-10.255000000000006
20
16.215000000000003
10
-9.0050000000000043
20
16.215000000000003
10
-9.0050000000000043
20
14.965000000000003
0
CIRCLE
5
282
100
AcDbEntity
8
0
100
AcDbCircle
10
-32.100000000000009
20
24.540000000000003
30
0
40
0.35000000000000003
0
LWPOLYLINE
5
283
100
AcDbEntity
8
0
100
AcDbPolyline
90
4
70
1
43
0.0
10
-32.725000000000009
20
23.915000000000003
10
-32.725000000000009
20
25.165000000000006
10
-31.475000000000009
20
25.165000000000006
10
-31.475000000000009
20
23.915000000000003
0
LWPOLYLINE
5
284
100
AcDbEntity
8
0
100
AcDbPolyline
90
4
70
1
43
0.0
10
-32.725000000000009
20
25.165000000000006
10
-32.725000000000009
20
23.915000000000003
10
-31.475000000000009
20
23.915000000000003
10
-31.475000000000009
20
25.165000000000006
0
LWPOLYLINE
5
285
100
AcDbEntity
8
0
100
AcDbPolyline
90
4
70
1
43
0.0
10
-10.255000000000006
20
16.215000000000003
10
-10.255000000000006
20
14.965000000000003
10
-9.0050000000000043
20
14.965000000000003
10
-9.0050000000000043
20
16.215000000000003
0
LWPOLYLINE
5
286
100
AcDbEntity
8
0
100
AcDbPolyline
90
4
70
1
43
0.0
10
-15.420000000000005
20
24.260000000000002
10
-15.420000000000005
20
22.260000000000005
10
-13.420000000000005
20
22.260000000000005
10
-13.420000000000005
20
24.260000000000002
0
LWPOLYLINE
5
287
100
AcDbEntity
8
0
100
AcDbPolyline
90
4
70
1
43
0.0
10
-15.420000000000002
20
31.880000000000006
10
-15.420000000000002
20
29.880000000000003
10
-13.420000000000003
20
29.880000000000003
10
-13.420000000000003
20
31.880000000000006
0
LWPOLYLINE
5
288
100
AcDbEntity
8
0
100
AcDbPolyline
90
4
70
1
43
0.0
10
-40.820000000000014
20
16.640000000000004
10
-40.820000000000014
20
14.640000000000004
10
-38.820000000000014
20
14.640000000000004
10
-38.820000000000014
20
16.640000000000004
0
LWPOLYLINE
5
289
100
AcDbEntity
8
0
100
AcDbPolyline
90
4
70
1
43
0.0
10
-25.580000000000013
20
21.720000000000002
10
-25.580000000000013
20
19.720000000000002
10
-23.580000000000009
20
19.720000000000002
10
-23.580000000000009
20
21.720000000000002
0
LWPOLYLINE
5
290
100
AcDbEntity
8
0
100
AcDbPolyline
90
4
70
1
43
0.0
10
-25.580000000000005
20
34.420000000000009
10
-25.580000000000005
20
32.420000000000009
10
-23.580000000000005
20
32.420000000000009
10
-23.580000000000005
20
34.420000000000009
0
LWPOLYLINE
5
291
100
AcDbEntity
8
0
100
AcDbPolyline
90
4
70
1
43
0.0
10
-23.040000000000006
20
21.720000000000002
10
-23.040000000000006
20
19.720000000000002
10
-21.040000000000006
20
19.720000000000002
10
-21.040000000000006
20
21.720000000000002
0
LWPOLYLINE
5
292
100
AcDbEntity
8
0
100
AcDbPolyline
90
4
70
1
43
0.0
10
-11.755000000000004
20
11.135000000000002
10
-11.755000000000004
20
9.8850000000000016
10
-10.505000000000004
20
9.8850000000000016
10
-10.505000000000004
20
11.135000000000002
0
LWPOLYLINE
5
293
100
AcDbEntity
8
0
100
AcDbPolyline
90
4
70
1
43
0.0
10
-8.7550000000000043
20
21.295000000000005
10
-8.7550000000000043
20
20.045000000000005
10
-7.5050000000000043
20
20.045000000000005
10
-7.5050000000000043
20
21.295000000000005
0
LWPOLYLINE
5
294
100
AcDbEntity
8
0
100
AcDbPolyline
90
4
70
1
43
0.0
10
-5.7550000000000034
20
31.455000000000005
10
-5.7550000000000034
20
30.205000000000005
10
-4.5050000000000034
20
30.205000000000005
10
-4.5050000000000034
20
31.455000000000005
0
LWPOLYLINE
5
295
100
AcDbEntity
8
0
100
AcDbPolyline
90
4
70
1
43
0.0
10
-2.755000000000003
20
31.455000000000005
10
-2.755000000000003
20
30.205000000000005
10
-1.5050000000000028
20
30.205000000000005
10
-1.5050000000000028
20
31.455000000000005
0
LWPOLYLINE
5
296
100
AcDbEntity
8
0
100
AcDbPolyline
90
4
70
1
43
0.0
10
-5.7550000000000034
20
21.295000000000005
10
-5.7550000000000034
20
20.045000000000005
10
-4.5050000000000034
20
20.045000000000005
10
-4.5050000000000034
20
21.295000000000005
0
LWPOLYLINE
5
297
100
AcDbEntity
8
0
100
AcDbPolyline
90
4
70
1
43
0.0
10
-8.7550000000000043
20
11.135000000000002
10
-8.7550000000000043
20
9.8850000000000016
10
-7.5050000000000043
20
9.8850000000000016
10
-7.5050000000000043
20
11.135000000000002
0
LWPOLYLINE
5
298
100
AcDbEntity
8
0
100
AcDbPolyline
90
4
70
1
43
0.0
10
-23.040000000000006
20
16.640000000000004
10
-23.040000000000006
20
14.640000000000004
10
-21.040000000000006
20
14.640000000000004
10
-21.040000000000006
20
16.640000000000004
0
LWPOLYLINE
5
299
100
AcDbEntity
8
0
100
AcDbPolyline
90
4
70
1
43
0.0
10
-38.280000000000008
20
36.960000000000008
10
-38.280000000000008
20
34.960000000000008
10
-36.280000000000008
20
34.960000000000008
10
-36.280000000000008
20
36.960000000000008
0
LWPOLYLINE
5
300
100
AcDbEntity
8
0
100
AcDbPolyline
90
4
70
1
43
0.0
10
-25.580000000000013
20
16.640000000000004
10
-25.580000000000013
20
14.640000000000004
10
-23.580000000000009
20
14.640000000000004
10
-23.580000000000009
20
16.640000000000004
0
LWPOLYLINE
5
301
100
AcDbEntity
8
0
100
AcDbPolyline
90
4
70
1
43
0.0
10
-40.820000000000014
20
21.720000000000002
10
-40.820000000000014
20
19.720000000000002
10
-38.820000000000014
20
19.720000000000002
10
-38.820000000000014
20
21.720000000000002
0
LWPOLYLINE
5
302
100
AcDbEntity
8
0
100
AcDbPolyline
90
4
70
1
43
0.0
10
-40.820000000000007
20
34.420000000000009
10
-40.820000000000007
20
32.420000000000009
10
-38.820000000000007
20
32.420000000000009
10
-38.820000000000007
20
34.420000000000009
0
LWPOLYLINE
5
303
100
AcDbEntity
8
0
100
AcDbPolyline
90
4
70
1
43
0.0
10
-15.420000000000007
20
19.180000000000003
10
-15.420000000000007
20
17.180000000000003
10
-13.420000000000005
20
17.180000000000003
10
-13.420000000000005
20
19.180000000000003
0
LWPOLYLINE
5
304
100
AcDbEntity
8
0
100
AcDbPolyline
90
4
70
1
43
0.0
10
-7.2550000000000034
20
16.215000000000003
10
-7.2550000000000034
20
14.965000000000003
10
-6.0050000000000034
20
14.965000000000003
10
-6.0050000000000034
20
16.215000000000003
0
LWPOLYLINE
5
305
100
AcDbEntity
8
0
100
AcDbPolyline
90
4
70
1
43
0.0
10
-10.255000000000006
20
26.375000000000007
10
-10.255000000000006
20
25.125000000000007
10
-9.0050000000000043
20
25.125000000000007
10
-9.0050000000000043
20
26.375000000000007
0
LWPOLYLINE
5
306
100
AcDbEntity
8
0
100
AcDbPolyline
90
4
70
1
43
0.0
10
-32.725000000000009
20
20.665000000000006
10
-32.725000000000009
20
19.415000000000003
10
-31.475000000000009
20
19.415000000000003
10
-31.475000000000009
20
20.665000000000006
0
LWPOLYLINE
5
307
100
AcDbEntity
8
0
100
AcDbPolyline
90
4
70
1
43
0.0
10
-4.2550000000000034
20
26.375000000000007
10
-4.2550000000000034
20
25.125000000000007
10
-3.0050000000000034
20
25.125000000000007
10
-3.0050000000000034
20
26.375000000000007
0
LWPOLYLINE
5
308
100
AcDbEntity
8
0
100
AcDbPolyline
90
4
70
1
43
0.0
10
-2.755000000000003
20
16.215000000000003
10
-2.755000000000003
20
14.965000000000003
10
-1.5050000000000028
20
14.965000000000003
10
-1.5050000000000028
20
16.215000000000003
0
LWPOLYLINE
5
309
100
AcDbEntity
8
0
100
AcDbPolyline
90
4
70
1
43
0.0
10
-15.420000000000009
20
9.0200000000000014
10
-15.420000000000009
20
7.0200000000000005
10
-13.420000000000007
20
7.0200000000000005
10
-13.420000000000007
20
9.0200000000000014
0
LWPOLYLINE
5
310
100
AcDbEntity
8
0
100
AcDbPolyline
90
4
70
1
43
0.0
10
-40.820000000000014
20
24.260000000000002
10
-40.820000000000014
20
22.260000000000005
10
-38.820000000000014
20
22.260000000000005
10
-38.820000000000014
20
24.260000000000002
0
LWPOLYLINE
5
311
100
AcDbEntity
8
0
100
AcDbPolyline
90
4
70
1
43
0.0
10
-40.820000000000014
20
31.880000000000006
10
-40.820000000000014
20
29.880000000000003
10
-38.820000000000014
20
29.880000000000003
10
-38.820000000000014
20
31.880000000000006
0
LWPOLYLINE
5
312
100
AcDbEntity
8
0
100
AcDbPolyline
90
4
70
1
43
0.0
10
-25.580000000000013
20
9.0200000000000014
10
-25.580000000000013
20
7.0200000000000005
10
-23.580000000000009
20
7.0200000000000005
10
-23.580000000000009
20
9.0200000000000014
0
LWPOLYLINE
5
313
100
AcDbEntity
8
0
100
AcDbPolyline
90
4
70
1
43
0.0
10
-28.120000000000008
20
36.960000000000008
10
-28.120000000000008
20
34.960000000000008
10
-26.120000000000005
20
34.960000000000008
10
-26.120000000000005
20
36.960000000000008
0
LWPOLYLINE
5
314
100
AcDbEntity
8
0
100
AcDbPolyline
90
4
70
1
43
0.0
10
-23.040000000000013
20
9.0200000000000014
10
-23.040000000000013
20
7.0200000000000005
10
-21.04000000000001
20
7.0200000000000005
10
-21.04000000000001
20
9.0200000000000014
0
LWPOLYLINE
5
315
100
AcDbEntity
8
0
100
AcDbPolyline
90
4
70
1
43
0.0
10
-2.755000000000003
20
11.135000000000002
10
-2.755000000000003
20
9.8850000000000016
10
-1.5050000000000028
20
9.8850000000000016
10
-1.5050000000000028
20
11.135000000000002
0
LWPOLYLINE
5
316
100
AcDbEntity
8
0
100
AcDbPolyline
90
4
70
1
43
0.0
10
-4.2550000000000034
20
21.295000000000005
10
-4.2550000000000034
20
20.045000000000005
10
-3.0050000000000034
20
20.045000000000005
10
-3.0050000000000034
20
21.295000000000005
0
LWPOLYLINE
5
317
100
AcDbEntity
8
0
100
AcDbPolyline
90
4
70
1
43
0.0
10
-7.2550000000000034
20
31.455000000000005
10
-7.2550000000000034
20
30.205000000000005
10
-6.0050000000000034
20
30.205000000000005
10
-6.0050000000000034
20
31.455000000000005
0
LWPOLYLINE
5
318
100
AcDbEntity
8
0
100
AcDbPolyline
90
4
70
1
43
0.0
10
-11.755000000000004
20
31.455000000000005
10
-11.755000000000004
20
30.205000000000005
10
-10.505000000000004
20
30.205000000000005
10
-10.505000000000004
20
31.455000000000005
0
LWPOLYLINE
5
319
100
AcDbEntity
8
0
100
AcDbPolyline
90
4
70
1
43
0.0
10
-10.255000000000006
20
11.135000000000002
10
-10.255000000000006
20
9.8850000000000016
10
-9.0050000000000043
20
9.8850000000000016
10
-9.0050000000000043
20
11.135000000000002
0
LWPOLYLINE
5
320
100
AcDbEntity
8
0
100
AcDbPolyline
90
4
70
1
43
0.0
10
-23.040000000000006
20
24.260000000000002
10
-23.040000000000006
20
22.260000000000005
10
-21.040000000000006
20
22.260000000000005
10
-21.040000000000006
20
24.260000000000002
0
LWPOLYLINE
5
321
100
AcDbEntity
8
0
100
AcDbPolyline
90
4
70
1
43
0.0
10
-23.040000000000003
20
31.880000000000006
10
-23.040000000000003
20
29.880000000000003
10
-21.040000000000006
20
29.880000000000003
10
-21.040000000000006
20
31.880000000000006
0
LWPOLYLINE
5
322
100
AcDbEntity
8
0
100
AcDbPolyline
90
4
70
1
43
0.0
10
-25.580000000000005
20
24.260000000000002
10
-25.580000000000005
20
22.260000000000005
10
-23.580000000000005
20
22.260000000000005
10
-23.580000000000005
20
24.260000000000002
0
LWPOLYLINE
5
323
100
AcDbEntity
8
0
100
AcDbPolyline
90
4
70
1
43
0.0
10
-25.580000000000005
20
31.880000000000006
10
-25.580000000000005
20
29.880000000000003
10
-23.580000000000005
20
29.880000000000003
10
-23.580000000000005
20
31.880000000000006
0
LWPOLYLINE
5
324
100
AcDbEntity
8
0
100
AcDbPolyline
90
4
70
1
43
0.0
10
-40.820000000000014
20
9.0200000000000014
10
-40.820000000000014
20
7.0200000000000005
10
-38.820000000000014
20
7.0200000000000005
10
-38.820000000000014
20
9.0200000000000014
0
LWPOLYLINE
5
325
100
AcDbEntity
8
0
100
AcDbPolyline
90
4
70
1
43
0.0
10
-15.420000000000005
20
21.720000000000002
10
-15.420000000000005
20
19.720000000000002
10
-13.420000000000005
20
19.720000000000002
10
-13.420000000000005
20
21.720000000000002
0
LWPOLYLINE
5
326
100
AcDbEntity
8
0
100
AcDbPolyline
90
4
70
1
43
0.0
10
-11.755000000000004
20
16.215000000000003
10
-11.755000000000004
20
14.965000000000003
10
-10.505000000000004
20
14.965000000000003
10
-10.505000000000004
20
16.215000000000003
0
LWPOLYLINE
5
327
100
AcDbEntity
8
0
100
AcDbPolyline
90
4
70
1
43
0.0
10
-8.7550000000000043
20
26.375000000000007
10
-8.7550000000000043
20
25.125000000000007
10
-7.5050000000000043
20
25.125000000000007
10
-7.5050000000000043
20
26.375000000000007
0
LWPOLYLINE
5
328
100
AcDbEntity
8
0
100
AcDbPolyline
90
4
70
1
43
0.0
10
-32.725000000000009
20
19.165000000000003
10
-32.725000000000009
20
17.915000000000003
10
-31.475000000000009
20
17.915000000000003
10
-31.475000000000009
20
19.165000000000003
0
LWPOLYLINE
5
329
100
AcDbEntity
8
0
100
AcDbPolyline
90
4
70
1
43
0.0
10
-32.725000000000009
20
23.665000000000003
10
-32.725000000000009
20
22.415000000000003
10
-31.475000000000009
20
22.415000000000003
10
-31.475000000000009
20
23.665000000000003
0
LWPOLYLINE
5
330
100
AcDbEntity
8
0
100
AcDbPolyline
90
4
70
1
43
0.0
10
-7.2550000000000034
20
26.375000000000007
10
-7.2550000000000034
20
25.125000000000007
10
-6.0050000000000034
20
25.125000000000007
10
-6.0050000000000034
20
26.375000000000007
0
LWPOLYLINE
5
331
100
AcDbEntity
8
0
100
AcDbPolyline
90
4
70
1
43
0.0
10
-4.2550000000000034
20
16.215000000000003
10
-4.2550000000000034
20
14.965000000000003
10
-3.0050000000000034
20
14.965000000000003
10
-3.0050000000000034
20
16.215000000000003
0
LWPOLYLINE
5
332
100
AcDbEntity
8
0
100
AcDbPolyline
90
4
70
1
43
0.0
10
-15.420000000000007
20
14.100000000000001
10
-15.420000000000007
20
12.100000000000001
10
-13.420000000000005
20
12.100000000000001
10
-13.420000000000005
20
14.100000000000001
0
LWPOLYLINE
5
333
100
AcDbEntity
8
0
100
AcDbPolyline
90
4
70
1
43
0.0
10
-40.820000000000014
20
29.340000000000007
10
-40.820000000000014
20
27.340000000000003
10
-38.820000000000014
20
27.340000000000003
10
-38.820000000000014
20
29.340000000000007
0
LWPOLYLINE
5
334
100
AcDbEntity
8
0
100
AcDbPolyline
90
4
70
1
43
0.0
10
-40.820000000000014
20
26.800000000000004
10
-40.820000000000014
20
24.800000000000004
10
-38.820000000000014
20
24.800000000000004
10
-38.820000000000014
20
26.800000000000004
0
LWPOLYLINE
5
335
100
AcDbEntity
8
0
100
AcDbPolyline
90
4
70
1
43
0.0
10
-25.580000000000013
20
11.560000000000004
10
-25.580000000000013
20
9.5600000000000023
10
-23.580000000000009
20
9.5600000000000023
10
-23.580000000000009
20
11.560000000000004
0
LWPOLYLINE
5
336
100
AcDbEntity
8
0
100
AcDbPolyline
90
4
70
1
43
0.0
10
-33.20000000000001
20
36.960000000000008
10
-33.20000000000001
20
34.960000000000008
10
-31.20000000000001
20
34.960000000000008
10
-31.20000000000001
20
36.960000000000008
0
LWPOLYLINE
5
337
100
AcDbEntity
8
0
100
AcDbPolyline
90
4
70
1
43
0.0
10
-23.040000000000013
20
11.560000000000004
10
-23.040000000000013
20
9.5600000000000023
10
-21.04000000000001
20
9.5600000000000023
10
-21.04000000000001
20
11.560000000000004
0
LWPOLYLINE
5
338
100
AcDbEntity
8
0
100
AcDbPolyline
90
4
70
1
43
0.0
10
-5.7550000000000034
20
11.135000000000002
10
-5.7550000000000034
20
9.8850000000000016
10
-4.5050000000000034
20
9.8850000000000016
10
-4.5050000000000034
20
11.135000000000002
0
LWPOLYLINE
5
339
100
AcDbEntity
8
0
100
AcDbPolyline
90
4
70
1
43
0.0
10
-2.755000000000003
20
21.295000000000005
10
-2.755000000000003
20
20.045000000000005
10
-1.5050000000000028
20
20.045000000000005
10
-1.5050000000000028
20
21.295000000000005
0
LWPOLYLINE
5
340
100
AcDbEntity
8
0
100
AcDbPolyline
90
4
70
1
43
0.0
10
-4.2550000000000034
20
31.455000000000005
10
-4.2550000000000034
20
30.205000000000005
10
-3.0050000000000034
20
30.205000000000005
10
-3.0050000000000034
20
31.455000000000005
0
LWPOLYLINE
5
341
100
AcDbEntity
8
0
100
AcDbPolyline
90
4
70
1
43
0.0
10
-8.7550000000000043
20
31.455000000000005
10
-8.7550000000000043
20
30.205000000000005
10
-7.5050000000000043
20
30.205000000000005
10
-7.5050000000000043
20
31.455000000000005
0
LWPOLYLINE
5
342
100
AcDbEntity
8
0
100
AcDbPolyline
90
4
70
1
43
0.0
10
-11.755000000000004
20
21.295000000000005
10
-11.755000000000004
20
20.045000000000005
10
-10.505000000000004
20
20.045000000000005
10
-10.505000000000004
20
21.295000000000005
0
LWPOLYLINE
5
343
100
AcDbEntity
8
0
100
AcDbPolyline
90
4
70
1
43
0.0
10
-23.040000000000003
20
29.340000000000007
10
-23.040000000000003
20
27.340000000000003
10
-21.040000000000006
20
27.340000000000003
10
-21.040000000000006
20
29.340000000000007
0
LWPOLYLINE
5
344
100
AcDbEntity
8
0
100
AcDbPolyline
90
4
70
1
43
0.0
10
-23.040000000000006
20
26.800000000000004
10
-23.040000000000006
20
24.800000000000004
10
-21.040000000000006
20
24.800000000000004
10
-21.040000000000006
20
26.800000000000004
0
LWPOLYLINE
5
345
100
AcDbEntity
8
0
100
AcDbPolyline
90
4
70
1
43
0.0
10
-25.580000000000005
20
29.340000000000007
10
-25.580000000000005
20
27.340000000000003
10
-23.580000000000005
20
27.340000000000003
10
-23.580000000000005
20
29.340000000000007
0
LWPOLYLINE
5
346
100
AcDbEntity
8
0
100
AcDbPolyline
90
4
70
1
43
0.0
10
-25.580000000000005
20
26.800000000000004
10
-25.580000000000005
20
24.800000000000004
10
-23.580000000000005
20
24.800000000000004
10
-23.580000000000005
20
26.800000000000004
0
LWPOLYLINE
5
347
100
AcDbEntity
8
0
100
AcDbPolyline
90
4
70
1
43
0.0
10
-40.820000000000014
20
11.560000000000004
10
-40.820000000000014
20
9.5600000000000023
10
-38.820000000000014
20
9.5600000000000023
10
-38.820000000000014
20
11.560000000000004
0
LWPOLYLINE
5
348
100
AcDbEntity
8
0
100
AcDbPolyline
90
4
70
1
43
0.0
10
-15.420000000000005
20
26.800000000000004
10
-15.420000000000005
20
24.800000000000004
10
-13.420000000000005
20
24.800000000000004
10
-13.420000000000005
20
26.800000000000004
0
LWPOLYLINE
5
349
100
AcDbEntity
8
0
100
AcDbPolyline
90
4
70
1
43
0.0
10
-15.420000000000002
20
29.340000000000007
10
-15.420000000000002
20
27.340000000000003
10
-13.420000000000003
20
27.340000000000003
10
-13.420000000000003
20
29.340000000000007
0
LWPOLYLINE
5
350
100
AcDbEntity
8
0
100
AcDbPolyline
90
4
70
1
43
0.0
10
-11.755000000000004
20
26.375000000000007
10
-11.755000000000004
20
25.125000000000007
10
-10.505000000000004
20
25.125000000000007
10
-10.505000000000004
20
26.375000000000007
0
LWPOLYLINE
5
351
100
AcDbEntity
8
0
100
AcDbPolyline
90
4
70
1
43
0.0
10
-32.725000000000009
20
22.165000000000003
10
-32.725000000000009
20
20.915000000000003
10
-31.475000000000009
20
20.915000000000003
10
-31.475000000000009
20
22.165000000000003
0
LWPOLYLINE
5
352
100
AcDbEntity
8
0
100
AcDbPolyline
90
4
70
1
43
0.0
10
-32.725000000000009
20
16.165000000000003
10
-32.725000000000009
20
14.915000000000003
10
-31.475000000000009
20
14.915000000000003
10
-31.475000000000009
20
16.165000000000003
0
LWPOLYLINE
5
353
100
AcDbEntity
8
0
100
AcDbPolyline
90
4
70
1
43
0.0
10
-5.7550000000000034
20
26.375000000000007
10
-5.7550000000000034
20
25.125000000000007
10
-4.5050000000000034
20
25.125000000000007
10
-4.5050000000000034
20
26.375000000000007
0
LWPOLYLINE
5
354
100
AcDbEntity
8
0
100
AcDbPolyline
90
4
70
1
43
0.0
10
-8.7550000000000043
20
16.215000000000003
10
-8.7550000000000043
20
14.965000000000003
10
-7.5050000000000043
20
14.965000000000003
10
-7.5050000000000043
20
16.215000000000003
0
LWPOLYLINE
5
355
100
AcDbEntity
8
0
100
AcDbPolyline
90
4
70
1
43
0.0
10
-15.420000000000007
20
16.640000000000004
10
-15.420000000000007
20
14.640000000000004
10
-13.420000000000005
20
14.640000000000004
10
-13.420000000000005
20
16.640000000000004
0
LWPOLYLINE
5
356
100
AcDbEntity
8
0
100
AcDbPolyline
90
4
70
1
43
0.0
10
-40.820000000000014
20
14.100000000000003
10
-40.820000000000014
20
12.100000000000005
10
-38.820000000000014
20
12.100000000000005
10
-38.820000000000014
20
14.100000000000003
0
LWPOLYLINE
5
357
100
AcDbEntity
8
0
100
AcDbPolyline
90
4
70
1
43
0.0
10
-25.580000000000005
20
36.960000000000008
10
-25.580000000000005
20
34.960000000000008
10
-23.580000000000005
20
34.960000000000008
10
-23.580000000000005
20
36.960000000000008
0
LWPOLYLINE
5
358
100
AcDbEntity
8
0
100
AcDbPolyline
90
4
70
1
43
0.0
10
-25.580000000000013
20
19.180000000000003
10
-25.580000000000013
20
17.180000000000003
10
-23.580000000000009
20
17.180000000000003
10
-23.580000000000009
20
19.180000000000003
0
LWPOLYLINE
5
359
100
AcDbEntity
8
0
100
AcDbPolyline
90
4
70
1
43
0.0
10
-35.740000000000009
20
36.960000000000008
10
-35.740000000000009
20
34.960000000000008
10
-33.740000000000009
20
34.960000000000008
10
-33.740000000000009
20
36.960000000000008
0
LWPOLYLINE
5
360
100
AcDbEntity
8
0
100
AcDbPolyline
90
4
70
1
43
0.0
10
-23.040000000000006
20
19.180000000000003
10
-23.040000000000006
20
17.180000000000003
10
-21.040000000000006
20
17.180000000000003
10
-21.040000000000006
20
19.180000000000003
0
LWPOLYLINE
5
361
100
AcDbEntity
8
0
100
AcDbPolyline
90
4
70
1
43
0.0
10
-7.2550000000000034
20
11.135000000000002
10
-7.2550000000000034
20
9.8850000000000016
10
-6.0050000000000034
20
9.8850000000000016
10
-6.0050000000000034
20
11.135000000000002
0
LWPOLYLINE
5
362
100
AcDbEntity
8
0
100
AcDbPolyline
90
4
70
1
43
0.0
10
-10.255000000000006
20
21.295000000000005
10
-10.255000000000006
20
20.045000000000005
10
-9.0050000000000043
20
20.045000000000005
10
-9.0050000000000043
20
21.295000000000005
0
LWPOLYLINE
5
363
100
AcDbEntity
8
0
100
AcDbPolyline
90
4
70
1
43
0.0
10
-10.255000000000006
20
31.455000000000005
10
-10.255000000000006
20
30.205000000000005
10
-9.0050000000000043
20
30.205000000000005
10
-9.0050000000000043
20
31.455000000000005
0
LWPOLYLINE
5
364
100
AcDbEntity
8
0
100
AcDbPolyline
90
4
70
1
43
0.0
10
-7.2550000000000034
20
21.295000000000005
10
-7.2550000000000034
20
20.045000000000005
10
-6.0050000000000034
20
20.045000000000005
10
-6.0050000000000034
20
21.295000000000005
0
LWPOLYLINE
5
365
100
AcDbEntity
8
0
100
AcDbPolyline
90
4
70
1
43
0.0
10
-4.2550000000000034
20
11.135000000000002
10
-4.2550000000000034
20
9.8850000000000016
10
-3.0050000000000034
20
9.8850000000000016
10
-3.0050000000000034
20
11.135000000000002
0
LWPOLYLINE
5
366
100
AcDbEntity
8
0
100
AcDbPolyline
90
4
70
1
43
0.0
10
-23.040000000000006
20
14.100000000000003
10
-23.040000000000006
20
12.100000000000005
10
-21.040000000000006
20
12.100000000000005
10
-21.040000000000006
20
14.100000000000003
0
LWPOLYLINE
5
367
100
AcDbEntity
8
0
100
AcDbPolyline
90
4
70
1
43
0.0
10
-30.660000000000011
20
36.960000000000008
10
-30.660000000000011
20
34.960000000000008
10
-28.660000000000011
20
34.960000000000008
10
-28.660000000000011
20
36.960000000000008
0
LWPOLYLINE
5
368
100
AcDbEntity
8
0
100
AcDbPolyline
90
4
70
1
43
0.0
10
-25.580000000000013
20
14.100000000000003
10
-25.580000000000013
20
12.100000000000005
10
-23.580000000000009
20
12.100000000000005
10
-23.580000000000009
20
14.100000000000003
0
LWPOLYLINE
5
369
100
AcDbEntity
8
0
100
AcDbPolyline
90
4
70
1
43
0.0
10
-40.820000000000007
20
36.960000000000008
10
-40.820000000000007
20
34.960000000000008
10
-38.820000000000007
20
34.960000000000008
10
-38.820000000000007
20
36.960000000000008
0
LWPOLYLINE
5
370
100
AcDbEntity
8
0
100
AcDbPolyline
90
4
70
1
43
0.0
10
-40.820000000000014
20
19.180000000000003
10
-40.820000000000014
20
17.180000000000003
10
-38.820000000000014
20
17.180000000000003
10
-38.820000000000014
20
19.180000000000003
0
LWPOLYLINE
5
371
100
AcDbEntity
8
0
100
AcDbPolyline
90
4
70
1
43
0.0
10
-15.420000000000009
20
11.560000000000002
10
-15.420000000000009
20
9.5600000000000005
10
-13.420000000000007
20
9.5600000000000005
10
-13.420000000000007
20
11.560000000000002
0
LWPOLYLINE
5
372
100
AcDbEntity
8
0
100
AcDbPolyline
90
4
70
1
43
0.0
10
-5.7550000000000034
20
16.215000000000003
10
-5.7550000000000034
20
14.965000000000003
10
-4.5050000000000034
20
14.965000000000003
10
-4.5050000000000034
20
16.215000000000003
0
LWPOLYLINE
5
373
100
AcDbEntity
8
0
100
AcDbPolyline
90
4
70
1
43
0.0
10
-2.755000000000003
20
26.375000000000007
10
-2.755000000000003
20
25.125000000000007
10
-1.5050000000000028
20
25.125000000000007
10
-1.5050000000000028
20
26.375000000000007
0
LWPOLYLINE
5
374
100
AcDbEntity
8
0
100
AcDbPolyline
90
4
70
1
43
0.0
10
-32.725000000000009
20
17.665000000000003
10
-32.725000000000009
20
16.415000000000003
10
-31.475000000000009
20
16.415000000000003
10
-31.475000000000009
20
17.665000000000003
0
LWPOLYLINE
5
375
100
AcDbEntity
8
0
100
AcDbPolyline
90
4
70
1
43
0.0
10
-42.000000000000014
20
0
10
-42.000000000000014
20
50.000000000000007
10
0
20
50.000000000000007
10
0
20
0
0
ENDSEC
0
SECTION
2
OBJECTS
0
DICTIONARY
5
C
100
AcDbDictionary
3
ACAD_GROUP
350
D
3
ACAD_MLINESTYLE
350
17
0
DICTIONARY
5
D
100
AcDbDictionary
0
DICTIONARY
5
1A
330
C
100
AcDbDictionary
0
DICTIONARY
5
17
100
AcDbDictionary
0
ENDSEC
0
EOF
