0
SECTION
2
HEADER
9
$INSUNITS
70
4
9
$ACADVER
1
AC1014
9
$HANDSEED
5
FFFF
0
ENDSEC
0
SECTION
2
TABLES
0
TABLE
2
VPORT
5
8
100
AcDbSymbolTable
0
ENDTAB
0
TABLE
2
LTYPE
5
5
100
AcDbSymbolTable
0
LTYPE
5
14
100
AcDbSymbolTableRecord
100
AcDbLinetypeTableRecord
2
BYBLOCK
70
0
0
LTYPE
5
15
100
AcDbSymbolTableRecord
100
AcDbLinetypeTableRecord
2
BYLAYER
70
0
0
ENDTAB
0
TABLE
2
LAYER
5
2
100
AcDbSymbolTable
70
2
0
LAYER
5
50
100
AcDbSymbolTableRecord
100
AcDbLayerTableRecord
2
0
70
0
6
CONTINUOUS
0
ENDTAB
0
TABLE
2
STYLE
5
3
100
AcDbSymbolTable
70
1
0
STYLE
5
11
100
AcDbSymbolTableRecord
100
AcDbTextStyleTableRecord
2
STANDARD
70
0
0
ENDTAB
0
TABLE
2
VIEW
5
6
100
AcDbSymbolTable
70
0
0
ENDTAB
0
TABLE
2
UCS
5
7
100
AcDbSymbolTable
70
0
0
ENDTAB
0
TABLE
2
APPID
5
9
100
AcDbSymbolTable
70
2
0
APPID
5
12
100
AcDbSymbolTableRecord
100
AcDbRegAppTableRecord
2
ACAD
70
0
0
ENDTAB
0
TABLE
2
DIMSTYLE
5
A
100
AcDbSymbolTable
70
1
0
ENDTAB
0
TABLE
2
BLOCK_RECORD
5
1
100
AcDbSymbolTable
70
1
0
BLOCK_RECORD
5
1F
100
AcDbSymbolTableRecord
100
AcDbBlockTableRecord
2
*MODEL_SPACE
0
BLOCK_RECORD
5
1B
100
AcDbSymbolTableRecord
100
AcDbBlockTableRecord
2
*PAPER_SPACE
0
ENDTAB
0
ENDSEC
0
SECTION
2
BLOCKS
0
BLOCK
5
20
100
AcDbEntity
100
AcDbBlockBegin
2
*MODEL_SPACE
0
ENDBLK
5
21
100
AcDbEntity
100
AcDbBlockEnd
0
BLOCK
5
1C
100
AcDbEntity
100
AcDbBlockBegin
2
*PAPER_SPACE
0
ENDBLK
5
1D
100
AcDbEntity
100
AcDbBlockEnd
0
ENDSEC
0
SECTION
2
ENTITIES
0
LWPOLYLINE
5
100
100
AcDbEntity
8
0
100
AcDbPolyline
90
4
70
1
43
0.0
10
-8.0500000000000078
20
-21.555000000000003
10
-8.0500000000000078
20
-19.555000000000003
10
-6.050000000000006
20
-19.555000000000003
10
-6.050000000000006
20
-21.555000000000003
0
CIRCLE
5
101
100
AcDbEntity
8
0
100
AcDbCircle
10
-7.0500000000000078
20
-20.555000000000003
30
0
40
0.40000000000000008
0
CIRCLE
5
102
100
AcDbEntity
8
0
100
AcDbCircle
10
-7.0500000000000078
20
-20.555000000000003
30
0
40
0.40000000000000008
0
LWPOLYLINE
5
103
100
AcDbEntity
8
0
100
AcDbPolyline
90
4
70
1
43
0.0
10
-8.0500000000000078
20
-21.555000000000003
10
-8.0500000000000078
20
-19.555000000000003
10
-6.050000000000006
20
-19.555000000000003
10
-6.050000000000006
20
-21.555000000000003
0
CIRCLE
5
104
100
AcDbEntity
8
0
100
AcDbCircle
10
-18.375000000000007
20
-23.095000000000006
30
0
40
0.40000000000000008
0
LWPOLYLINE
5
105
100
AcDbEntity
8
0
100
AcDbPolyline
90
4
70
1
43
0.0
10
-19.375000000000007
20
-24.09500000000001
10
-19.375000000000007
20
-22.095000000000006
10
-17.375000000000011
20
-22.095000000000002
10
-17.375000000000011
20
-24.09500000000001
0
CIRCLE
5
106
100
AcDbEntity
8
0
100
AcDbCircle
10
-4.3450000000000006
20
-17.850000000000005
30
0
40
0.40000000000000008
0
LWPOLYLINE
5
107
100
AcDbEntity
8
0
100
AcDbPolyline
90
4
70
1
43
0.0
10
-5.3450000000000006
20
-18.850000000000005
10
-5.3450000000000006
20
-16.850000000000005
10
-3.3450000000000006
20
-16.850000000000005
10
-3.3450000000000006
20
-18.850000000000005
0
CIRCLE
5
108
100
AcDbEntity
8
0
100
AcDbCircle
10
-1.804999999999999
20
-6.525000000000003
30
0
40
0.40000000000000008
0
LWPOLYLINE
5
109
100
AcDbEntity
8
0
100
AcDbPolyline
90
4
70
1
43
0.0
10
-2.8049999999999997
20
-7.5250000000000039
10
-2.8049999999999997
20
-5.525000000000003
10
-0.80499999999999916
20
-5.525000000000003
10
-0.80499999999999883
20
-7.5250000000000039
0
CIRCLE
5
110
100
AcDbEntity
8
0
100
AcDbCircle
10
-17.850000000000009
20
-4.3450000000000024
30
0
40
0.40000000000000008
0
LWPOLYLINE
5
111
100
AcDbEntity
8
0
100
AcDbPolyline
90
4
70
1
43
0.0
10
-18.850000000000009
20
-5.3450000000000024
10
-18.850000000000009
20
-3.345000000000002
10
-16.850000000000009
20
-3.345000000000002
10
-16.850000000000009
20
-5.3450000000000024
0
CIRCLE
5
112
100
AcDbEntity
8
0
100
AcDbCircle
10
-6.525000000000003
20
-1.8050000000000044
30
0
40
0.40000000000000008
0
LWPOLYLINE
5
113
100
AcDbEntity
8
0
100
AcDbPolyline
90
4
70
1
43
0.0
10
-7.5250000000000039
20
-2.8050000000000046
10
-7.5250000000000039
20
-0.80500000000000449
10
-5.525000000000003
20
-0.80500000000000405
10
-5.525000000000003
20
-2.8050000000000046
0
CIRCLE
5
114
100
AcDbEntity
8
0
100
AcDbCircle
10
-20.555000000000003
20
-7.0500000000000007
30
0
40
0.40000000000000008
0
LWPOLYLINE
5
115
100
AcDbEntity
8
0
100
AcDbPolyline
90
4
70
1
43
0.0
10
-21.555000000000003
20
-8.0500000000000007
10
-21.555000000000003
20
-6.0500000000000007
10
-19.555000000000003
20
-6.0500000000000007
10
-19.555000000000003
20
-8.0500000000000007
0
CIRCLE
5
116
100
AcDbEntity
8
0
100
AcDbCircle
10
-23.095000000000006
20
-18.375
30
0
40
0.40000000000000008
0
LWPOLYLINE
5
117
100
AcDbEntity
8
0
100
AcDbPolyline
90
4
70
1
43
0.0
10
-24.09500000000001
20
-19.375000000000004
10
-24.09500000000001
20
-17.375000000000004
10
-22.095000000000006
20
-17.375000000000004
10
-22.095000000000006
20
-19.375000000000004
0
CIRCLE
5
118
100
AcDbEntity
8
0
100
AcDbCircle
10
-18.375000000000007
20
-17.995000000000008
30
0
40
0.40000000000000008
0
LWPOLYLINE
5
119
100
AcDbEntity
8
0
100
AcDbPolyline
90
4
70
1
43
0.0
10
-19.375000000000007
20
-18.995000000000005
10
-19.375000000000007
20
-16.995000000000008
10
-17.375000000000011
20
-16.995000000000008
10
-17.375000000000011
20
-18.995000000000005
0
CIRCLE
5
120
100
AcDbEntity
8
0
100
AcDbCircle
10
-6.4750000000000005
20
-18.095000000000006
30
0
40
0.40000000000000008
0
LWPOLYLINE
5
121
100
AcDbEntity
8
0
100
AcDbPolyline
90
4
70
1
43
0.0
10
-7.4750000000000005
20
-19.095000000000006
10
-7.4750000000000005
20
-17.095000000000006
10
-5.4749999999999996
20
-17.095000000000006
10
-5.4749999999999996
20
-19.095000000000006
0
CIRCLE
5
122
100
AcDbEntity
8
0
100
AcDbCircle
10
-16.912500000000001
20
-26.250000000000014
30
0
40
0.35000000000000003
0
LWPOLYLINE
5
123
100
AcDbEntity
8
0
100
AcDbPolyline
90
4
70
1
43
0.0
10
-17.787500000000001
20
-27.250000000000014
10
-17.787500000000001
20
-25.250000000000014
10
-16.037500000000001
20
-25.250000000000014
10
-16.037500000000001
20
-27.250000000000014
0
CIRCLE
5
124
100
AcDbEntity
8
0
100
AcDbCircle
10
-10.612500000000001
20
-26.250000000000014
30
0
40
0.35000000000000003
0
LWPOLYLINE
5
125
100
AcDbEntity
8
0
100
AcDbPolyline
90
4
70
1
43
0.0
10
-11.487500000000001
20
-27.250000000000014
10
-11.487500000000001
20
-25.250000000000014
10
-9.7374999999999989
20
-25.250000000000014
10
-9.7374999999999972
20
-27.250000000000014
0
CIRCLE
5
126
100
AcDbEntity
8
0
100
AcDbCircle
10
-4.3124999999999973
20
-26.250000000000014
30
0
40
0.35000000000000003
0
LWPOLYLINE
5
127
100
AcDbEntity
8
0
100
AcDbPolyline
90
4
70
1
43
0.0
10
-5.1874999999999982
20
-27.250000000000014
10
-5.1874999999999982
20
-25.250000000000014
10
-3.4374999999999973
20
-25.250000000000014
10
-3.4374999999999973
20
-27.250000000000014
0
CIRCLE
5
128
100
AcDbEntity
8
0
100
AcDbCircle
10
-8.5124999999999975
20
-26.250000000000014
30
0
40
0.35000000000000003
0
LWPOLYLINE
5
129
100
AcDbEntity
8
0
100
AcDbPolyline
90
4
70
1
43
0.0
10
-9.3874999999999975
20
-27.250000000000014
10
-9.3874999999999975
20
-25.250000000000014
10
-7.6374999999999975
20
-25.250000000000014
10
-7.6374999999999975
20
-27.250000000000014
0
CIRCLE
5
130
100
AcDbEntity
8
0
100
AcDbCircle
10
-7.6124999999999989
20
-29.70000000000001
30
0
40
0.35000000000000003
0
LWPOLYLINE
5
131
100
AcDbEntity
8
0
100
AcDbPolyline
90
4
70
1
43
0.0
10
-8.2374999999999989
20
-30.32500000000001
10
-8.2374999999999989
20
-29.07500000000001
10
-6.9874999999999989
20
-29.07500000000001
10
-6.9874999999999989
20
-30.32500000000001
0
CIRCLE
5
132
100
AcDbEntity
8
0
100
AcDbCircle
10
-12.112499999999999
20
-29.70000000000001
30
0
40
0.35000000000000003
0
LWPOLYLINE
5
133
100
AcDbEntity
8
0
100
AcDbPolyline
90
4
70
1
43
0.0
10
-12.737499999999999
20
-30.32500000000001
10
-12.737499999999999
20
-29.07500000000001
10
-11.487499999999999
20
-29.07500000000001
10
-11.487499999999999
20
-30.32500000000001
0
CIRCLE
5
134
100
AcDbEntity
8
0
100
AcDbCircle
10
-13.612499999999999
20
-29.70000000000001
30
0
40
0.35000000000000003
0
LWPOLYLINE
5
135
100
AcDbEntity
8
0
100
AcDbPolyline
90
4
70
1
43
0.0
10
-14.237499999999999
20
-30.32500000000001
10
-14.237499999999999
20
-29.07500000000001
10
-12.987499999999999
20
-29.07500000000001
10
-12.987499999999999
20
-30.32500000000001
0
CIRCLE
5
136
100
AcDbEntity
8
0
100
AcDbCircle
10
-9.1124999999999989
20
-29.70000000000001
30
0
40
0.35000000000000003
0
LWPOLYLINE
5
137
100
AcDbEntity
8
0
100
AcDbPolyline
90
4
70
1
43
0.0
10
-9.7374999999999989
20
-30.32500000000001
10
-9.7374999999999989
20
-29.07500000000001
10
-8.4874999999999989
20
-29.07500000000001
10
-8.4874999999999989
20
-30.32500000000001
0
CIRCLE
5
138
100
AcDbEntity
8
0
100
AcDbCircle
10
-6.1124999999999989
20
-29.70000000000001
30
0
40
0.35000000000000003
0
LWPOLYLINE
5
139
100
AcDbEntity
8
0
100
AcDbPolyline
90
4
70
1
43
0.0
10
-6.7374999999999989
20
-30.32500000000001
10
-6.7374999999999989
20
-29.07500000000001
10
-5.4874999999999989
20
-29.07500000000001
10
-5.4874999999999989
20
-30.32500000000001
0
CIRCLE
5
140
100
AcDbEntity
8
0
100
AcDbCircle
10
-10.612499999999997
20
-29.70000000000001
30
0
40
0.35000000000000003
0
LWPOLYLINE
5
141
100
AcDbEntity
8
0
100
AcDbPolyline
90
4
70
1
43
0.0
10
-11.237499999999997
20
-30.32500000000001
10
-11.237499999999997
20
-29.07500000000001
10
-9.9874999999999989
20
-29.07500000000001
10
-9.9874999999999972
20
-30.32500000000001
0
CIRCLE
5
142
100
AcDbEntity
8
0
100
AcDbCircle
10
-15.112500000000001
20
-29.70000000000001
30
0
40
0.35000000000000003
0
LWPOLYLINE
5
143
100
AcDbEntity
8
0
100
AcDbPolyline
90
4
70
1
43
0.0
10
-15.737500000000001
20
-30.32500000000001
10
-15.737500000000001
20
-29.07500000000001
10
-14.487500000000001
20
-29.07500000000001
10
-14.487500000000001
20
-30.32500000000001
0
CIRCLE
5
144
100
AcDbEntity
8
0
100
AcDbCircle
10
-14.8125
20
-26.250000000000014
30
0
40
0.35000000000000003
0
LWPOLYLINE
5
145
100
AcDbEntity
8
0
100
AcDbPolyline
90
4
70
1
43
0.0
10
-15.6875
20
-27.250000000000014
10
-15.6875
20
-25.250000000000014
10
-13.937499999999998
20
-25.250000000000014
10
-13.937499999999998
20
-27.250000000000014
0
CIRCLE
5
146
100
AcDbEntity
8
0
100
AcDbCircle
10
-12.7125
20
-26.250000000000014
30
0
40
0.35000000000000003
0
LWPOLYLINE
5
147
100
AcDbEntity
8
0
100
AcDbPolyline
90
4
70
1
43
0.0
10
-13.587500000000002
20
-27.250000000000014
10
-13.587500000000002
20
-25.250000000000014
10
-11.837499999999999
20
-25.250000000000014
10
-11.837499999999999
20
-27.250000000000014
0
CIRCLE
5
148
100
AcDbEntity
8
0
100
AcDbCircle
10
-6.4124999999999979
20
-26.250000000000014
30
0
40
0.35000000000000003
0
LWPOLYLINE
5
149
100
AcDbEntity
8
0
100
AcDbPolyline
90
4
70
1
43
0.0
10
-7.2874999999999979
20
-27.250000000000014
10
-7.2874999999999979
20
-25.250000000000014
10
-5.5374999999999979
20
-25.250000000000014
10
-5.5374999999999979
20
-27.250000000000014
0
CIRCLE
5
150
100
AcDbEntity
8
0
100
AcDbCircle
10
-6.4750000000000005
20
-15.555000000000003
30
0
40
0.40000000000000008
0
LWPOLYLINE
5
151
100
AcDbEntity
8
0
100
AcDbPolyline
90
4
70
1
43
0.0
10
-7.4750000000000005
20
-16.555000000000003
10
-7.4750000000000005
20
-14.555000000000003
10
-5.4749999999999996
20
-14.555000000000003
10
-5.4749999999999996
20
-16.555000000000003
0
CIRCLE
5
152
100
AcDbEntity
8
0
100
AcDbCircle
10
-18.375000000000007
20
-15.455000000000004
30
0
40
0.40000000000000008
0
LWPOLYLINE
5
153
100
AcDbEntity
8
0
100
AcDbPolyline
90
4
70
1
43
0.0
10
-19.375000000000007
20
-16.455000000000005
10
-19.375000000000007
20
-14.455000000000002
10
-17.375000000000011
20
-14.455000000000002
10
-17.375000000000011
20
-16.455000000000005
0
CIRCLE
5
154
100
AcDbEntity
8
0
100
AcDbCircle
10
-20.555000000000007
20
-18.375
30
0
40
0.40000000000000008
0
LWPOLYLINE
5
155
100
AcDbEntity
8
0
100
AcDbPolyline
90
4
70
1
43
0.0
10
-21.555000000000014
20
-19.375000000000004
10
-21.555000000000014
20
-17.375000000000004
10
-19.55500000000001
20
-17.375000000000004
10
-19.555000000000007
20
-19.375000000000004
0
CIRCLE
5
156
100
AcDbEntity
8
0
100
AcDbCircle
10
-23.095000000000006
20
-7.0500000000000016
30
0
40
0.40000000000000008
0
LWPOLYLINE
5
157
100
AcDbEntity
8
0
100
AcDbPolyline
90
4
70
1
43
0.0
10
-24.09500000000001
20
-8.0500000000000007
10
-24.09500000000001
20
-6.0500000000000025
10
-22.095000000000006
20
-6.0500000000000007
10
-22.095000000000006
20
-8.0500000000000007
0
CIRCLE
5
158
100
AcDbEntity
8
0
100
AcDbCircle
10
-6.525000000000003
20
-4.3450000000000042
30
0
40
0.40000000000000008
0
LWPOLYLINE
5
159
100
AcDbEntity
8
0
100
AcDbPolyline
90
4
70
1
43
0.0
10
-7.5250000000000039
20
-5.3450000000000042
10
-7.5250000000000039
20
-3.3450000000000042
10
-5.5250000000000021
20
-3.3450000000000042
10
-5.5250000000000021
20
-5.3450000000000042
0
CIRCLE
5
160
100
AcDbEntity
8
0
100
AcDbCircle
10
-17.850000000000005
20
-1.8050000000000022
30
0
40
0.40000000000000008
0
LWPOLYLINE
5
161
100
AcDbEntity
8
0
100
AcDbPolyline
90
4
70
1
43
0.0
10
-18.850000000000005
20
-2.8050000000000024
10
-18.850000000000005
20
-0.80500000000000227
10
-16.850000000000005
20
-0.80500000000000216
10
-16.850000000000005
20
-2.8050000000000024
0
CIRCLE
5
162
100
AcDbEntity
8
0
100
AcDbCircle
10
-4.3450000000000024
20
-6.525000000000003
30
0
40
0.40000000000000008
0
LWPOLYLINE
5
163
100
AcDbEntity
8
0
100
AcDbPolyline
90
4
70
1
43
0.0
10
-5.3450000000000024
20
-7.5250000000000048
10
-5.3450000000000024
20
-5.5250000000000039
10
-3.345000000000002
20
-5.525000000000003
10
-3.345000000000002
20
-7.5250000000000048
0
CIRCLE
5
164
100
AcDbEntity
8
0
100
AcDbCircle
10
-1.8050000000000013
20
-17.850000000000005
30
0
40
0.40000000000000008
0
LWPOLYLINE
5
165
100
AcDbEntity
8
0
100
AcDbPolyline
90
4
70
1
43
0.0
10
-2.8050000000000015
20
-18.850000000000005
10
-2.8050000000000015
20
-16.850000000000005
10
-0.80500000000000138
20
-16.850000000000005
10
-0.80500000000000127
20
-18.850000000000005
0
CIRCLE
5
166
100
AcDbEntity
8
0
100
AcDbCircle
10
-18.375000000000007
20
-20.555000000000007
30
0
40
0.40000000000000008
0
LWPOLYLINE
5
167
100
AcDbEntity
8
0
100
AcDbPolyline
90
4
70
1
43
0.0
10
-19.375000000000007
20
-21.555000000000007
10
-19.375000000000007
20
-19.555000000000007
10
-17.375000000000011
20
-19.555000000000003
10
-17.375000000000011
20
-21.555000000000007
0
CIRCLE
5
168
100
AcDbEntity
8
0
100
AcDbCircle
10
-7.050000000000006
20
-23.095000000000002
30
0
40
0.40000000000000008
0
LWPOLYLINE
5
169
100
AcDbEntity
8
0
100
AcDbPolyline
90
4
70
1
43
0.0
10
-8.0500000000000078
20
-24.095000000000006
10
-8.0500000000000078
20
-22.095000000000002
10
-6.0500000000000052
20
-22.095000000000002
10
-6.0500000000000052
20
-24.095000000000006
0
LWPOLYLINE
5
170
100
AcDbEntity
8
0
100
AcDbPolyline
90
4
70
1
43
0.0
10
-8.050000000000006
20
-22.095000000000002
10
-8.050000000000006
20
-24.095000000000006
10
-6.050000000000006
20
-24.095000000000006
10
-6.050000000000006
20
-22.095000000000002
0
LWPOLYLINE
5
171
100
AcDbEntity
8
0
100
AcDbPolyline
90
4
70
1
43
0.0
10
-19.375000000000007
20
-19.55500000000001
10
-19.375000000000007
20
-21.555000000000007
10
-17.375000000000011
20
-21.555000000000007
10
-17.375000000000011
20
-19.555000000000007
0
LWPOLYLINE
5
172
100
AcDbEntity
8
0
100
AcDbPolyline
90
4
70
1
43
0.0
10
-2.8050000000000015
20
-16.850000000000005
10
-2.8050000000000015
20
-18.850000000000005
10
-0.80500000000000116
20
-18.850000000000005
10
-0.80500000000000127
20
-16.850000000000005
0
LWPOLYLINE
5
173
100
AcDbEntity
8
0
100
AcDbPolyline
90
4
70
1
43
0.0
10
-5.3450000000000024
20
-5.5250000000000039
10
-5.3450000000000024
20
-7.5250000000000048
10
-3.3450000000000024
20
-7.5250000000000039
10
-3.345000000000002
20
-5.5250000000000039
0
LWPOLYLINE
5
174
100
AcDbEntity
8
0
100
AcDbPolyline
90
4
70
1
43
0.0
10
-18.850000000000005
20
-0.80500000000000216
10
-18.850000000000005
20
-2.8050000000000024
10
-16.850000000000005
20
-2.8050000000000024
10
-16.850000000000005
20
-0.80500000000000194
0
LWPOLYLINE
5
175
100
AcDbEntity
8
0
100
AcDbPolyline
90
4
70
1
43
0.0
10
-7.525000000000003
20
-3.3450000000000042
10
-7.525000000000003
20
-5.3450000000000042
10
-5.525000000000003
20
-5.3450000000000042
10
-5.525000000000003
20
-3.3450000000000042
0
LWPOLYLINE
5
176
100
AcDbEntity
8
0
100
AcDbPolyline
90
4
70
1
43
0.0
10
-24.09500000000001
20
-6.0500000000000025
10
-24.09500000000001
20
-8.0500000000000007
10
-22.095000000000006
20
-8.0500000000000007
10
-22.095000000000006
20
-6.0500000000000025
0
LWPOLYLINE
5
177
100
AcDbEntity
8
0
100
AcDbPolyline
90
4
70
1
43
0.0
10
-21.555000000000007
20
-17.375000000000004
10
-21.555000000000007
20
-19.375000000000004
10
-19.55500000000001
20
-19.375000000000004
10
-19.55500000000001
20
-17.375000000000004
0
LWPOLYLINE
5
178
100
AcDbEntity
8
0
100
AcDbPolyline
90
4
70
1
43
0.0
10
-19.375000000000007
20
-14.455000000000002
10
-19.375000000000007
20
-16.455000000000005
10
-17.375000000000011
20
-16.455000000000005
10
-17.375000000000011
20
-14.455000000000002
0
LWPOLYLINE
5
179
100
AcDbEntity
8
0
100
AcDbPolyline
90
4
70
1
43
0.0
10
-7.4750000000000005
20
-14.555000000000003
10
-7.4750000000000005
20
-16.555000000000003
10
-5.4749999999999996
20
-16.555000000000003
10
-5.4749999999999996
20
-14.555000000000003
0
LWPOLYLINE
5
180
100
AcDbEntity
8
0
100
AcDbPolyline
90
4
70
1
43
0.0
10
-7.2874999999999979
20
-25.250000000000014
10
-7.2874999999999979
20
-27.250000000000014
10
-5.5374999999999979
20
-27.250000000000014
10
-5.5374999999999979
20
-25.250000000000014
0
LWPOLYLINE
5
181
100
AcDbEntity
8
0
100
AcDbPolyline
90
4
70
1
43
0.0
10
-13.587499999999999
20
-25.250000000000014
10
-13.587499999999999
20
-27.250000000000014
10
-11.8375
20
-27.250000000000014
10
-11.8375
20
-25.250000000000014
0
LWPOLYLINE
5
182
100
AcDbEntity
8
0
100
AcDbPolyline
90
4
70
1
43
0.0
10
-15.687499999999998
20
-25.250000000000014
10
-15.687499999999998
20
-27.250000000000014
10
-13.9375
20
-27.250000000000014
10
-13.9375
20
-25.250000000000014
0
LWPOLYLINE
5
183
100
AcDbEntity
8
0
100
AcDbPolyline
90
4
70
1
43
0.0
10
-15.737500000000001
20
-29.07500000000001
10
-15.737500000000001
20
-30.32500000000001
10
-14.487500000000001
20
-30.32500000000001
10
-14.487500000000001
20
-29.07500000000001
0
LWPOLYLINE
5
184
100
AcDbEntity
8
0
100
AcDbPolyline
90
4
70
1
43
0.0
10
-11.237499999999997
20
-29.07500000000001
10
-11.237499999999997
20
-30.32500000000001
10
-9.9874999999999989
20
-30.32500000000001
10
-9.9874999999999972
20
-29.07500000000001
0
LWPOLYLINE
5
185
100
AcDbEntity
8
0
100
AcDbPolyline
90
4
70
1
43
0.0
10
-6.7374999999999989
20
-29.07500000000001
10
-6.7374999999999989
20
-30.32500000000001
10
-5.4874999999999989
20
-30.32500000000001
10
-5.4874999999999989
20
-29.07500000000001
0
LWPOLYLINE
5
186
100
AcDbEntity
8
0
100
AcDbPolyline
90
4
70
1
43
0.0
10
-9.7374999999999989
20
-29.07500000000001
10
-9.7374999999999989
20
-30.32500000000001
10
-8.4874999999999989
20
-30.32500000000001
10
-8.4874999999999989
20
-29.07500000000001
0
LWPOLYLINE
5
187
100
AcDbEntity
8
0
100
AcDbPolyline
90
4
70
1
43
0.0
10
-14.237499999999999
20
-29.07500000000001
10
-14.237499999999999
20
-30.32500000000001
10
-12.987499999999999
20
-30.32500000000001
10
-12.987499999999999
20
-29.07500000000001
0
LWPOLYLINE
5
188
100
AcDbEntity
8
0
100
AcDbPolyline
90
4
70
1
43
0.0
10
-12.737499999999999
20
-29.07500000000001
10
-12.737499999999999
20
-30.32500000000001
10
-11.487499999999999
20
-30.32500000000001
10
-11.487499999999999
20
-29.07500000000001
0
LWPOLYLINE
5
189
100
AcDbEntity
8
0
100
AcDbPolyline
90
4
70
1
43
0.0
10
-8.2374999999999989
20
-29.07500000000001
10
-8.2374999999999989
20
-30.32500000000001
10
-6.9874999999999989
20
-30.32500000000001
10
-6.9874999999999989
20
-29.07500000000001
0
LWPOLYLINE
5
190
100
AcDbEntity
8
0
100
AcDbPolyline
90
4
70
1
43
0.0
10
-9.3874999999999975
20
-25.250000000000014
10
-9.3874999999999975
20
-27.250000000000014
10
-7.6374999999999975
20
-27.250000000000014
10
-7.6374999999999975
20
-25.250000000000014
0
LWPOLYLINE
5
191
100
AcDbEntity
8
0
100
AcDbPolyline
90
4
70
1
43
0.0
10
-5.1874999999999982
20
-25.250000000000014
10
-5.1874999999999982
20
-27.250000000000014
10
-3.4374999999999973
20
-27.250000000000014
10
-3.4374999999999973
20
-25.250000000000014
0
LWPOLYLINE
5
192
100
AcDbEntity
8
0
100
AcDbPolyline
90
4
70
1
43
0.0
10
-11.487499999999999
20
-25.250000000000014
10
-11.487499999999999
20
-27.250000000000014
10
-9.7374999999999989
20
-27.250000000000014
10
-9.7375000000000007
20
-25.250000000000014
0
LWPOLYLINE
5
193
100
AcDbEntity
8
0
100
AcDbPolyline
90
4
70
1
43
0.0
10
-17.787500000000001
20
-25.250000000000014
10
-17.787500000000001
20
-27.250000000000014
10
-16.037500000000001
20
-27.250000000000014
10
-16.037500000000001
20
-25.250000000000014
0
LWPOLYLINE
5
194
100
AcDbEntity
8
0
100
AcDbPolyline
90
4
70
1
43
0.0
10
-7.4750000000000005
20
-17.095000000000006
10
-7.4750000000000005
20
-19.095000000000006
10
-5.4749999999999996
20
-19.095000000000006
10
-5.4749999999999996
20
-17.095000000000006
0
LWPOLYLINE
5
195
100
AcDbEntity
8
0
100
AcDbPolyline
90
4
70
1
43
0.0
10
-19.375000000000007
20
-16.995000000000008
10
-19.375000000000007
20
-18.995000000000005
10
-17.375000000000011
20
-18.995000000000005
10
-17.375000000000011
20
-16.995000000000008
0
LWPOLYLINE
5
196
100
AcDbEntity
8
0
100
AcDbPolyline
90
4
70
1
43
0.0
10
-24.095000000000006
20
-17.375000000000004
10
-24.095000000000006
20
-19.375000000000004
10
-22.095000000000013
20
-19.375000000000004
10
-22.095000000000013
20
-17.375000000000004
0
LWPOLYLINE
5
197
100
AcDbEntity
8
0
100
AcDbPolyline
90
4
70
1
43
0.0
10
-21.555000000000003
20
-6.0500000000000007
10
-21.555000000000003
20
-8.0500000000000007
10
-19.555000000000003
20
-8.0500000000000007
10
-19.555000000000003
20
-6.0500000000000007
0
LWPOLYLINE
5
198
100
AcDbEntity
8
0
100
AcDbPolyline
90
4
70
1
43
0.0
10
-7.5250000000000039
20
-0.8050000000000046
10
-7.5250000000000039
20
-2.8050000000000046
10
-5.525000000000003
20
-2.8050000000000042
10
-5.525000000000003
20
-0.80500000000000416
0
LWPOLYLINE
5
199
100
AcDbEntity
8
0
100
AcDbPolyline
90
4
70
1
43
0.0
10
-18.850000000000009
20
-3.345000000000002
10
-18.850000000000009
20
-5.3450000000000024
10
-16.850000000000009
20
-5.3450000000000024
10
-16.850000000000009
20
-3.345000000000002
0
LWPOLYLINE
5
200
100
AcDbEntity
8
0
100
AcDbPolyline
90
4
70
1
43
0.0
10
-2.8049999999999993
20
-5.525000000000003
10
-2.8049999999999993
20
-7.5250000000000039
10
-0.80499999999999894
20
-7.5250000000000039
10
-0.80499999999999927
20
-5.525000000000003
0
LWPOLYLINE
5
201
100
AcDbEntity
8
0
100
AcDbPolyline
90
4
70
1
43
0.0
10
-5.3450000000000006
20
-16.850000000000005
10
-5.3450000000000006
20
-18.850000000000005
10
-3.3450000000000006
20
-18.850000000000005
10
-3.3450000000000006
20
-16.850000000000005
0
LWPOLYLINE
5
202
100
AcDbEntity
8
0
100
AcDbPolyline
90
4
70
1
43
0.0
10
-19.375000000000007
20
-22.095000000000006
10
-19.375000000000007
20
-24.09500000000001
10
-17.375000000000011
20
-24.095000000000006
10
-17.375000000000011
20
-22.095000000000006
0
LWPOLYLINE
5
203
100
AcDbEntity
8
0
100
AcDbPolyline
90
4
70
1
43
0.0
10
-8.0500000000000078
20
-19.555000000000003
10
-8.0500000000000078
20
-21.555000000000003
10
-6.050000000000006
20
-21.555000000000003
10
-6.050000000000006
20
-19.555000000000003
0
LWPOLYLINE
5
204
100
AcDbEntity
8
0
100
AcDbPolyline
90
4
70
1
43
0.0
10
-14.950000000000006
20
-14.950000000000006
10
-9.9500000000000046
20
-14.950000000000006
10
-9.9500000000000046
20
-9.9500000000000046
10
-14.950000000000006
20
-9.9500000000000064
0
LWPOLYLINE
5
205
100
AcDbEntity
8
0
100
AcDbPolyline
90
6
70
1
43
0.0
10
-24.900000000000006
20
-4.9500000000000002
10
-22.096306893678662
20
-9.2966031163186602e-16
10
-2.4083307329387549
20
-1.6653345369377348e-15
10
4.036449164463706e-15
20
-3.9500000000000002
10
8.8817841970012523e-15
20
-31.900000000000013
10
-24.900000000000006
20
-31.900000000000016
0
ENDSEC
0
SECTION
2
OBJECTS
0
DICTIONARY
5
C
100
AcDbDictionary
3
ACAD_GROUP
350
D
3
ACAD_MLINESTYLE
350
17
0
DICTIONARY
5
D
100
AcDbDictionary
0
DICTIONARY
5
1A
330
C
100
AcDbDictionary
0
DICTIONARY
5
17
100
AcDbDictionary
0
ENDSEC
0
EOF
