0
SECTION
2
HEADER
9
$INSUNITS
70
4
9
$ACADVER
1
AC1014
9
$HANDSEED
5
FFFF
0
ENDSEC
0
SECTION
2
TABLES
0
TABLE
2
VPORT
5
8
100
AcDbSymbolTable
0
ENDTAB
0
TABLE
2
LTYPE
5
5
100
AcDbSymbolTable
0
LTYPE
5
14
100
AcDbSymbolTableRecord
100
AcDbLinetypeTableRecord
2
BYBLOCK
70
0
0
LTYPE
5
15
100
AcDbSymbolTableRecord
100
AcDbLinetypeTableRecord
2
BYLAYER
70
0
0
ENDTAB
0
TABLE
2
LAYER
5
2
100
AcDbSymbolTable
70
2
0
LAYER
5
50
100
AcDbSymbolTableRecord
100
AcDbLayerTableRecord
2
0
70
0
6
CONTINUOUS
0
ENDTAB
0
TABLE
2
STYLE
5
3
100
AcDbSymbolTable
70
1
0
STYLE
5
11
100
AcDbSymbolTableRecord
100
AcDbTextStyleTableRecord
2
STANDARD
70
0
0
ENDTAB
0
TABLE
2
VIEW
5
6
100
AcDbSymbolTable
70
0
0
ENDTAB
0
TABLE
2
UCS
5
7
100
AcDbSymbolTable
70
0
0
ENDTAB
0
TABLE
2
APPID
5
9
100
AcDbSymbolTable
70
2
0
APPID
5
12
100
AcDbSymbolTableRecord
100
AcDbRegAppTableRecord
2
ACAD
70
0
0
ENDTAB
0
TABLE
2
DIMSTYLE
5
A
100
AcDbSymbolTable
70
1
0
ENDTAB
0
TABLE
2
BLOCK_RECORD
5
1
100
AcDbSymbolTable
70
1
0
BLOCK_RECORD
5
1F
100
AcDbSymbolTableRecord
100
AcDbBlockTableRecord
2
*MODEL_SPACE
0
BLOCK_RECORD
5
1B
100
AcDbSymbolTableRecord
100
AcDbBlockTableRecord
2
*PAPER_SPACE
0
ENDTAB
0
ENDSEC
0
SECTION
2
BLOCKS
0
BLOCK
5
20
100
AcDbEntity
100
AcDbBlockBegin
2
*MODEL_SPACE
0
ENDBLK
5
21
100
AcDbEntity
100
AcDbBlockEnd
0
BLOCK
5
1C
100
AcDbEntity
100
AcDbBlockBegin
2
*PAPER_SPACE
0
ENDBLK
5
1D
100
AcDbEntity
100
AcDbBlockEnd
0
ENDSEC
0
SECTION
2
ENTITIES
0
LWPOLYLINE
5
100
100
AcDbEntity
8
0
100
AcDbPolyline
90
4
70
1
43
0.0
10
-10.361020514433664
20
-24.770000000000003
10
-10.361020514433664
20
-22.770000000000007
10
-8.3610205144336636
20
-22.770000000000007
10
-8.3610205144336636
20
-24.770000000000003
0
CIRCLE
5
101
100
AcDbEntity
8
0
100
AcDbCircle
10
-9.3610205144336636
20
-23.770000000000003
30
0
40
0.40000000000000008
0
CIRCLE
5
102
100
AcDbEntity
8
0
100
AcDbCircle
10
-9.3610205144336636
20
-23.770000000000003
30
0
40
0.40000000000000008
0
LWPOLYLINE
5
103
100
AcDbEntity
8
0
100
AcDbPolyline
90
4
70
1
43
0.0
10
-10.361020514433664
20
-24.770000000000003
10
-10.361020514433664
20
-22.770000000000007
10
-8.3610205144336636
20
-22.770000000000007
10
-8.3610205144336636
20
-24.770000000000003
0
CIRCLE
5
104
100
AcDbEntity
8
0
100
AcDbCircle
10
-18.561020514433668
20
-23.770000000000003
30
0
40
0.40000000000000008
0
LWPOLYLINE
5
105
100
AcDbEntity
8
0
100
AcDbPolyline
90
4
70
1
43
0.0
10
-19.561020514433668
20
-24.770000000000003
10
-19.561020514433668
20
-22.770000000000007
10
-17.561020514433668
20
-22.770000000000007
10
-17.561020514433668
20
-24.770000000000003
0
CIRCLE
5
106
100
AcDbEntity
8
0
100
AcDbCircle
10
-28.366020514433671
20
-39.900000000000006
30
0
40
0.40000000000000008
0
LWPOLYLINE
5
107
100
AcDbEntity
8
0
100
AcDbPolyline
90
4
70
1
43
0.0
10
-29.366020514433671
20
-40.900000000000006
10
-29.366020514433671
20
-38.900000000000006
10
-27.366020514433668
20
-38.900000000000006
10
-27.366020514433668
20
-40.900000000000006
0
CIRCLE
5
108
100
AcDbEntity
8
0
100
AcDbCircle
10
-30.906020514433671
20
-28.575000000000003
30
0
40
0.40000000000000008
0
LWPOLYLINE
5
109
100
AcDbEntity
8
0
100
AcDbPolyline
90
4
70
1
43
0.0
10
-31.906020514433671
20
-29.575000000000003
10
-31.906020514433671
20
-27.575000000000003
10
-29.906020514433671
20
-27.575000000000003
10
-29.906020514433671
20
-29.575000000000003
0
CIRCLE
5
110
100
AcDbEntity
8
0
100
AcDbCircle
10
-28.366020514433671
20
-13.900000000000004
30
0
40
0.40000000000000008
0
LWPOLYLINE
5
111
100
AcDbEntity
8
0
100
AcDbPolyline
90
4
70
1
43
0.0
10
-29.366020514433671
20
-14.900000000000004
10
-29.366020514433671
20
-12.900000000000002
10
-27.366020514433668
20
-12.900000000000002
10
-27.366020514433668
20
-14.900000000000004
0
CIRCLE
5
112
100
AcDbEntity
8
0
100
AcDbCircle
10
-30.906020514433674
20
-2.5750000000000002
30
0
40
0.40000000000000008
0
LWPOLYLINE
5
113
100
AcDbEntity
8
0
100
AcDbPolyline
90
4
70
1
43
0.0
10
-31.906020514433674
20
-3.5749999999999997
10
-31.906020514433674
20
-1.5749999999999997
10
-29.906020514433674
20
-1.5749999999999997
10
-29.906020514433674
20
-3.5749999999999997
0
CIRCLE
5
114
100
AcDbEntity
8
0
100
AcDbCircle
10
4.7877727472676677
20
-29.952195048325841
30
-3.5527136788005017e-15
40
0.40000000000000013
0
LWPOLYLINE
5
115
100
AcDbEntity
8
0
100
AcDbPolyline
90
4
70
1
43
0.0
10
3.7877727472676677
20
-30.952195048325844
10
3.7877727472676677
20
-28.952195048325841
10
5.7877727472676677
20
-28.952195048325841
10
5.7877727472676677
20
-30.952195048325844
0
CIRCLE
5
116
100
AcDbEntity
8
0
100
AcDbCircle
10
3.3012138809006766
20
-41.462945142773464
30
-3.5527136788005017e-15
40
0.40000000000000013
0
LWPOLYLINE
5
117
100
AcDbEntity
8
0
100
AcDbPolyline
90
4
70
1
43
0.0
10
2.3012138809006761
20
-42.462945142773457
10
2.3012138809006761
20
-40.462945142773457
10
4.3012138809006766
20
-40.462945142773457
10
4.3012138809006766
20
-42.462945142773457
0
CIRCLE
5
118
100
AcDbEntity
8
0
100
AcDbCircle
10
5.3439794855663445
20
-13.100000000000003
30
0
40
0.40000000000000008
0
LWPOLYLINE
5
119
100
AcDbEntity
8
0
100
AcDbPolyline
90
4
70
1
43
0.0
10
4.3439794855663445
20
-14.100000000000001
10
4.3439794855663445
20
-12.100000000000001
10
6.3439794855663445
20
-12.100000000000001
10
6.3439794855663445
20
-14.100000000000001
0
CIRCLE
5
120
100
AcDbEntity
8
0
100
AcDbCircle
10
7.8839794855663374
20
-24.425000000000004
30
0
40
0.40000000000000008
0
LWPOLYLINE
5
121
100
AcDbEntity
8
0
100
AcDbPolyline
90
4
70
1
43
0.0
10
6.8839794855663374
20
-25.425000000000004
10
6.8839794855663374
20
-23.425000000000008
10
8.8839794855663374
20
-23.425000000000008
10
8.8839794855663374
20
-25.425000000000004
0
CIRCLE
5
122
100
AcDbEntity
8
0
100
AcDbCircle
10
-13.011020514433662
20
-33.500000000000007
30
0
40
0.35000000000000003
0
LWPOLYLINE
5
123
100
AcDbEntity
8
0
100
AcDbPolyline
90
4
70
1
43
0.0
10
-13.636020514433662
20
-34.125000000000007
10
-13.636020514433662
20
-32.875000000000007
10
-12.386020514433662
20
-32.875000000000007
10
-12.386020514433662
20
-34.125000000000007
0
CIRCLE
5
124
100
AcDbEntity
8
0
100
AcDbCircle
10
-16.011020514433664
20
-33.500000000000007
30
0
40
0.35000000000000003
0
LWPOLYLINE
5
125
100
AcDbEntity
8
0
100
AcDbPolyline
90
4
70
1
43
0.0
10
-16.636020514433664
20
-34.125000000000007
10
-16.636020514433664
20
-32.875000000000007
10
-15.386020514433662
20
-32.875000000000007
10
-15.386020514433662
20
-34.125000000000007
0
CIRCLE
5
126
100
AcDbEntity
8
0
100
AcDbCircle
10
-11.511020514433664
20
-33.500000000000007
30
0
40
0.35000000000000003
0
LWPOLYLINE
5
127
100
AcDbEntity
8
0
100
AcDbPolyline
90
4
70
1
43
0.0
10
-12.136020514433664
20
-34.125000000000007
10
-12.136020514433664
20
-32.875000000000007
10
-10.886020514433664
20
-32.875000000000007
10
-10.886020514433664
20
-34.125000000000007
0
CIRCLE
5
128
100
AcDbEntity
8
0
100
AcDbCircle
10
-7.0110205144336613
20
-33.500000000000007
30
0
40
0.35000000000000003
0
LWPOLYLINE
5
129
100
AcDbEntity
8
0
100
AcDbPolyline
90
4
70
1
43
0.0
10
-7.6360205144336621
20
-34.125000000000007
10
-7.6360205144336621
20
-32.875000000000007
10
-6.3860205144336613
20
-32.875000000000007
10
-6.3860205144336613
20
-34.125000000000007
0
CIRCLE
5
130
100
AcDbEntity
8
0
100
AcDbCircle
10
-6.431020514433663
20
-14.500000000000002
30
0
40
0.35000000000000003
0
LWPOLYLINE
5
131
100
AcDbEntity
8
0
100
AcDbPolyline
90
4
70
1
43
0.0
10
-7.4310205144336638
20
-15.500000000000004
10
-7.4310205144336638
20
-13.500000000000004
10
-5.431020514433663
20
-13.500000000000004
10
-5.431020514433663
20
-15.500000000000004
0
CIRCLE
5
132
100
AcDbEntity
8
0
100
AcDbCircle
10
-8.971020514433663
20
-14.500000000000002
30
0
40
0.35000000000000003
0
LWPOLYLINE
5
133
100
AcDbEntity
8
0
100
AcDbPolyline
90
4
70
1
43
0.0
10
-9.971020514433663
20
-15.500000000000004
10
-9.971020514433663
20
-13.500000000000004
10
-7.971020514433663
20
-13.500000000000004
10
-7.971020514433663
20
-15.500000000000004
0
CIRCLE
5
134
100
AcDbEntity
8
0
100
AcDbCircle
10
-16.591020514433666
20
-14.500000000000002
30
0
40
0.35000000000000003
0
LWPOLYLINE
5
135
100
AcDbEntity
8
0
100
AcDbPolyline
90
4
70
1
43
0.0
10
-17.591020514433666
20
-15.500000000000004
10
-17.591020514433666
20
-13.500000000000004
10
-15.591020514433664
20
-13.500000000000004
10
-15.591020514433664
20
-15.500000000000004
0
CIRCLE
5
136
100
AcDbEntity
8
0
100
AcDbCircle
10
-3.8910205144336634
20
-14.500000000000002
30
0
40
0.35000000000000003
0
LWPOLYLINE
5
137
100
AcDbEntity
8
0
100
AcDbPolyline
90
4
70
1
43
0.0
10
-4.8910205144336638
20
-15.500000000000004
10
-4.8910205144336638
20
-13.500000000000004
10
-2.8910205144336638
20
-13.500000000000004
10
-2.8910205144336638
20
-15.500000000000004
0
CIRCLE
5
138
100
AcDbEntity
8
0
100
AcDbCircle
10
-11.511020514433664
20
-14.500000000000002
30
0
40
0.35000000000000003
0
LWPOLYLINE
5
139
100
AcDbEntity
8
0
100
AcDbPolyline
90
4
70
1
43
0.0
10
-12.511020514433662
20
-15.500000000000004
10
-12.511020514433662
20
-13.500000000000004
10
-10.511020514433662
20
-13.500000000000004
10
-10.511020514433662
20
-15.500000000000004
0
CIRCLE
5
140
100
AcDbEntity
8
0
100
AcDbCircle
10
-19.131020514433665
20
-14.500000000000002
30
0
40
0.35000000000000003
0
LWPOLYLINE
5
141
100
AcDbEntity
8
0
100
AcDbPolyline
90
4
70
1
43
0.0
10
-20.131020514433665
20
-15.500000000000004
10
-20.131020514433665
20
-13.500000000000004
10
-18.131020514433665
20
-13.500000000000004
10
-18.131020514433665
20
-15.500000000000004
0
CIRCLE
5
142
100
AcDbEntity
8
0
100
AcDbCircle
10
-14.051020514433663
20
-14.500000000000002
30
0
40
0.35000000000000003
0
LWPOLYLINE
5
143
100
AcDbEntity
8
0
100
AcDbPolyline
90
4
70
1
43
0.0
10
-15.051020514433661
20
-15.500000000000004
10
-15.051020514433661
20
-13.500000000000004
10
-13.051020514433663
20
-13.500000000000004
10
-13.051020514433663
20
-15.500000000000004
0
CIRCLE
5
144
100
AcDbEntity
8
0
100
AcDbCircle
10
-14.511020514433664
20
-33.500000000000007
30
0
40
0.35000000000000003
0
LWPOLYLINE
5
145
100
AcDbEntity
8
0
100
AcDbPolyline
90
4
70
1
43
0.0
10
-15.136020514433664
20
-34.125000000000007
10
-15.136020514433664
20
-32.875000000000007
10
-13.886020514433664
20
-32.875000000000007
10
-13.886020514433664
20
-34.125000000000007
0
CIRCLE
5
146
100
AcDbEntity
8
0
100
AcDbCircle
10
-10.011020514433662
20
-33.500000000000007
30
0
40
0.35000000000000003
0
LWPOLYLINE
5
147
100
AcDbEntity
8
0
100
AcDbPolyline
90
4
70
1
43
0.0
10
-10.636020514433662
20
-34.125000000000007
10
-10.636020514433662
20
-32.875000000000007
10
-9.3860205144336621
20
-32.875000000000007
10
-9.3860205144336621
20
-34.125000000000007
0
CIRCLE
5
148
100
AcDbEntity
8
0
100
AcDbCircle
10
-8.5110205144336621
20
-33.500000000000007
30
0
40
0.35000000000000003
0
LWPOLYLINE
5
149
100
AcDbEntity
8
0
100
AcDbPolyline
90
4
70
1
43
0.0
10
-9.1360205144336621
20
-34.125000000000007
10
-9.1360205144336621
20
-32.875000000000007
10
-7.8860205144336613
20
-32.875000000000007
10
-7.8860205144336613
20
-34.125000000000007
0
CIRCLE
5
150
100
AcDbEntity
8
0
100
AcDbCircle
10
5.3439794855663383
20
-24.425000000000004
30
0
40
0.40000000000000008
0
LWPOLYLINE
5
151
100
AcDbEntity
8
0
100
AcDbPolyline
90
4
70
1
43
0.0
10
4.3439794855663374
20
-25.425000000000004
10
4.3439794855663374
20
-23.425000000000008
10
6.3439794855663383
20
-23.425000000000008
10
6.3439794855663383
20
-25.425000000000004
0
CIRCLE
5
152
100
AcDbEntity
8
0
100
AcDbCircle
10
7.8839794855663445
20
-13.100000000000005
30
0
40
0.40000000000000008
0
LWPOLYLINE
5
153
100
AcDbEntity
8
0
100
AcDbPolyline
90
4
70
1
43
0.0
10
6.8839794855663436
20
-14.100000000000003
10
6.8839794855663436
20
-12.100000000000005
10
8.8839794855663445
20
-12.100000000000005
10
8.8839794855663445
20
-14.100000000000003
0
CIRCLE
5
154
100
AcDbEntity
8
0
100
AcDbCircle
10
0.91439462410446759
20
-40.594213978726259
30
-3.5527136788005017e-15
40
0.40000000000000013
0
LWPOLYLINE
5
155
100
AcDbEntity
8
0
100
AcDbPolyline
90
4
70
1
43
0.0
10
-0.085605375895532659
20
-41.594213978726266
10
-0.085605375895532743
20
-39.594213978726259
10
1.9143946241044676
20
-39.594213978726259
10
1.9143946241044676
20
-41.594213978726266
0
CIRCLE
5
156
100
AcDbEntity
8
0
100
AcDbCircle
10
7.1745920040638769
20
-30.820926212373042
30
-3.5527136788005017e-15
40
0.40000000000000013
0
LWPOLYLINE
5
157
100
AcDbEntity
8
0
100
AcDbPolyline
90
4
70
1
43
0.0
10
6.174592004063876
20
-31.820926212373042
10
6.174592004063876
20
-29.820926212373038
10
8.1745920040638769
20
-29.820926212373038
10
8.1745920040638769
20
-31.820926212373042
0
CIRCLE
5
158
100
AcDbEntity
8
0
100
AcDbCircle
10
-28.366020514433671
20
-2.5750000000000002
30
0
40
0.40000000000000008
0
LWPOLYLINE
5
159
100
AcDbEntity
8
0
100
AcDbPolyline
90
4
70
1
43
0.0
10
-29.366020514433671
20
-3.5749999999999997
10
-29.366020514433671
20
-1.5749999999999997
10
-27.366020514433668
20
-1.5749999999999997
10
-27.366020514433668
20
-3.5749999999999997
0
CIRCLE
5
160
100
AcDbEntity
8
0
100
AcDbCircle
10
-30.906020514433671
20
-13.900000000000004
30
0
40
0.40000000000000008
0
LWPOLYLINE
5
161
100
AcDbEntity
8
0
100
AcDbPolyline
90
4
70
1
43
0.0
10
-31.906020514433671
20
-14.900000000000004
10
-31.906020514433671
20
-12.900000000000002
10
-29.906020514433671
20
-12.900000000000002
10
-29.906020514433671
20
-14.900000000000004
0
CIRCLE
5
162
100
AcDbEntity
8
0
100
AcDbCircle
10
-28.366020514433671
20
-28.575000000000003
30
0
40
0.40000000000000008
0
LWPOLYLINE
5
163
100
AcDbEntity
8
0
100
AcDbPolyline
90
4
70
1
43
0.0
10
-29.366020514433671
20
-29.575000000000003
10
-29.366020514433671
20
-27.575000000000003
10
-27.366020514433668
20
-27.575000000000003
10
-27.366020514433668
20
-29.575000000000003
0
CIRCLE
5
164
100
AcDbEntity
8
0
100
AcDbCircle
10
-30.906020514433671
20
-39.900000000000006
30
0
40
0.40000000000000008
0
LWPOLYLINE
5
165
100
AcDbEntity
8
0
100
AcDbPolyline
90
4
70
1
43
0.0
10
-31.906020514433671
20
-40.900000000000006
10
-31.906020514433671
20
-38.900000000000006
10
-29.906020514433671
20
-38.900000000000006
10
-29.906020514433671
20
-40.900000000000006
0
CIRCLE
5
166
100
AcDbEntity
8
0
100
AcDbCircle
10
-18.561020514433668
20
-21.230000000000008
30
0
40
0.40000000000000008
0
LWPOLYLINE
5
167
100
AcDbEntity
8
0
100
AcDbPolyline
90
4
70
1
43
0.0
10
-19.561020514433668
20
-22.230000000000004
10
-19.561020514433668
20
-20.230000000000004
10
-17.561020514433668
20
-20.230000000000004
10
-17.561020514433668
20
-22.230000000000004
0
CIRCLE
5
168
100
AcDbEntity
8
0
100
AcDbCircle
10
-9.3610205144336671
20
-21.230000000000008
30
0
40
0.40000000000000008
0
LWPOLYLINE
5
169
100
AcDbEntity
8
0
100
AcDbPolyline
90
4
70
1
43
0.0
10
-10.361020514433667
20
-22.230000000000004
10
-10.361020514433667
20
-20.230000000000004
10
-8.3610205144336671
20
-20.230000000000004
10
-8.3610205144336671
20
-22.230000000000004
0
LWPOLYLINE
5
170
100
AcDbEntity
8
0
100
AcDbPolyline
90
4
70
1
43
0.0
10
-10.361020514433667
20
-20.230000000000004
10
-10.361020514433667
20
-22.230000000000004
10
-8.3610205144336671
20
-22.230000000000004
10
-8.3610205144336671
20
-20.230000000000004
0
LWPOLYLINE
5
171
100
AcDbEntity
8
0
100
AcDbPolyline
90
4
70
1
43
0.0
10
-19.561020514433668
20
-20.230000000000004
10
-19.561020514433668
20
-22.230000000000004
10
-17.561020514433668
20
-22.230000000000004
10
-17.561020514433668
20
-20.230000000000004
0
LWPOLYLINE
5
172
100
AcDbEntity
8
0
100
AcDbPolyline
90
4
70
1
43
0.0
10
-31.906020514433671
20
-38.900000000000006
10
-31.906020514433671
20
-40.900000000000006
10
-29.906020514433671
20
-40.900000000000006
10
-29.906020514433671
20
-38.900000000000006
0
LWPOLYLINE
5
173
100
AcDbEntity
8
0
100
AcDbPolyline
90
4
70
1
43
0.0
10
-29.366020514433671
20
-27.575000000000003
10
-29.366020514433671
20
-29.575000000000003
10
-27.366020514433668
20
-29.575000000000003
10
-27.366020514433668
20
-27.575000000000003
0
LWPOLYLINE
5
174
100
AcDbEntity
8
0
100
AcDbPolyline
90
4
70
1
43
0.0
10
-31.906020514433671
20
-12.900000000000002
10
-31.906020514433671
20
-14.900000000000004
10
-29.906020514433671
20
-14.900000000000004
10
-29.906020514433671
20
-12.900000000000002
0
LWPOLYLINE
5
175
100
AcDbEntity
8
0
100
AcDbPolyline
90
4
70
1
43
0.0
10
-29.366020514433671
20
-1.5749999999999997
10
-29.366020514433671
20
-3.5749999999999997
10
-27.366020514433668
20
-3.5749999999999997
10
-27.366020514433668
20
-1.5749999999999997
0
LWPOLYLINE
5
176
100
AcDbEntity
8
0
100
AcDbPolyline
90
4
70
1
43
0.0
10
6.174592004063876
20
-29.820926212373038
10
6.174592004063876
20
-31.820926212373042
10
8.1745920040638769
20
-31.820926212373042
10
8.1745920040638769
20
-29.820926212373038
0
LWPOLYLINE
5
177
100
AcDbEntity
8
0
100
AcDbPolyline
90
4
70
1
43
0.0
10
-0.085605375895532659
20
-39.594213978726259
10
-0.085605375895532743
20
-41.594213978726266
10
1.9143946241044676
20
-41.594213978726266
10
1.9143946241044676
20
-39.594213978726259
0
LWPOLYLINE
5
178
100
AcDbEntity
8
0
100
AcDbPolyline
90
4
70
1
43
0.0
10
6.8839794855663436
20
-12.100000000000005
10
6.8839794855663436
20
-14.100000000000003
10
8.8839794855663445
20
-14.100000000000003
10
8.8839794855663445
20
-12.100000000000005
0
LWPOLYLINE
5
179
100
AcDbEntity
8
0
100
AcDbPolyline
90
4
70
1
43
0.0
10
4.3439794855663374
20
-23.425000000000008
10
4.3439794855663374
20
-25.425000000000004
10
6.3439794855663383
20
-25.425000000000004
10
6.3439794855663383
20
-23.425000000000008
0
LWPOLYLINE
5
180
100
AcDbEntity
8
0
100
AcDbPolyline
90
4
70
1
43
0.0
10
-9.1360205144336621
20
-32.875000000000007
10
-9.1360205144336621
20
-34.125000000000007
10
-7.8860205144336613
20
-34.125000000000007
10
-7.8860205144336613
20
-32.875000000000007
0
LWPOLYLINE
5
181
100
AcDbEntity
8
0
100
AcDbPolyline
90
4
70
1
43
0.0
10
-10.636020514433662
20
-32.875000000000007
10
-10.636020514433662
20
-34.125000000000007
10
-9.3860205144336621
20
-34.125000000000007
10
-9.3860205144336621
20
-32.875000000000007
0
LWPOLYLINE
5
182
100
AcDbEntity
8
0
100
AcDbPolyline
90
4
70
1
43
0.0
10
-15.136020514433664
20
-32.875000000000007
10
-15.136020514433664
20
-34.125000000000007
10
-13.886020514433664
20
-34.125000000000007
10
-13.886020514433664
20
-32.875000000000007
0
LWPOLYLINE
5
183
100
AcDbEntity
8
0
100
AcDbPolyline
90
4
70
1
43
0.0
10
-15.051020514433661
20
-13.500000000000004
10
-15.051020514433661
20
-15.500000000000004
10
-13.051020514433663
20
-15.500000000000004
10
-13.051020514433663
20
-13.500000000000004
0
LWPOLYLINE
5
184
100
AcDbEntity
8
0
100
AcDbPolyline
90
4
70
1
43
0.0
10
-20.131020514433665
20
-13.500000000000004
10
-20.131020514433665
20
-15.500000000000004
10
-18.131020514433665
20
-15.500000000000004
10
-18.131020514433665
20
-13.500000000000004
0
LWPOLYLINE
5
185
100
AcDbEntity
8
0
100
AcDbPolyline
90
4
70
1
43
0.0
10
-12.511020514433662
20
-13.500000000000004
10
-12.511020514433662
20
-15.500000000000004
10
-10.511020514433662
20
-15.500000000000004
10
-10.511020514433662
20
-13.500000000000004
0
LWPOLYLINE
5
186
100
AcDbEntity
8
0
100
AcDbPolyline
90
4
70
1
43
0.0
10
-4.8910205144336638
20
-13.500000000000004
10
-4.8910205144336638
20
-15.500000000000004
10
-2.8910205144336638
20
-15.500000000000004
10
-2.8910205144336638
20
-13.500000000000004
0
LWPOLYLINE
5
187
100
AcDbEntity
8
0
100
AcDbPolyline
90
4
70
1
43
0.0
10
-17.591020514433666
20
-13.500000000000004
10
-17.591020514433666
20
-15.500000000000004
10
-15.591020514433664
20
-15.500000000000004
10
-15.591020514433664
20
-13.500000000000004
0
LWPOLYLINE
5
188
100
AcDbEntity
8
0
100
AcDbPolyline
90
4
70
1
43
0.0
10
-9.971020514433663
20
-13.500000000000004
10
-9.971020514433663
20
-15.500000000000004
10
-7.971020514433663
20
-15.500000000000004
10
-7.971020514433663
20
-13.500000000000004
0
LWPOLYLINE
5
189
100
AcDbEntity
8
0
100
AcDbPolyline
90
4
70
1
43
0.0
10
-7.4310205144336638
20
-13.500000000000004
10
-7.4310205144336638
20
-15.500000000000004
10
-5.431020514433663
20
-15.500000000000004
10
-5.431020514433663
20
-13.500000000000004
0
LWPOLYLINE
5
190
100
AcDbEntity
8
0
100
AcDbPolyline
90
4
70
1
43
0.0
10
-7.6360205144336621
20
-32.875000000000007
10
-7.6360205144336621
20
-34.125000000000007
10
-6.3860205144336613
20
-34.125000000000007
10
-6.3860205144336613
20
-32.875000000000007
0
LWPOLYLINE
5
191
100
AcDbEntity
8
0
100
AcDbPolyline
90
4
70
1
43
0.0
10
-12.136020514433664
20
-32.875000000000007
10
-12.136020514433664
20
-34.125000000000007
10
-10.886020514433664
20
-34.125000000000007
10
-10.886020514433664
20
-32.875000000000007
0
LWPOLYLINE
5
192
100
AcDbEntity
8
0
100
AcDbPolyline
90
4
70
1
43
0.0
10
-16.636020514433664
20
-32.875000000000007
10
-16.636020514433664
20
-34.125000000000007
10
-15.386020514433662
20
-34.125000000000007
10
-15.386020514433662
20
-32.875000000000007
0
LWPOLYLINE
5
193
100
AcDbEntity
8
0
100
AcDbPolyline
90
4
70
1
43
0.0
10
-13.636020514433662
20
-32.875000000000007
10
-13.636020514433662
20
-34.125000000000007
10
-12.386020514433662
20
-34.125000000000007
10
-12.386020514433662
20
-32.875000000000007
0
LWPOLYLINE
5
194
100
AcDbEntity
8
0
100
AcDbPolyline
90
4
70
1
43
0.0
10
6.8839794855663374
20
-23.425000000000008
10
6.8839794855663374
20
-25.425000000000004
10
8.8839794855663374
20
-25.425000000000004
10
8.8839794855663374
20
-23.425000000000008
0
LWPOLYLINE
5
195
100
AcDbEntity
8
0
100
AcDbPolyline
90
4
70
1
43
0.0
10
4.3439794855663445
20
-12.100000000000001
10
4.3439794855663445
20
-14.100000000000001
10
6.3439794855663445
20
-14.100000000000001
10
6.3439794855663445
20
-12.100000000000001
0
LWPOLYLINE
5
196
100
AcDbEntity
8
0
100
AcDbPolyline
90
4
70
1
43
0.0
10
2.3012138809006761
20
-40.462945142773457
10
2.3012138809006761
20
-42.462945142773457
10
4.3012138809006766
20
-42.462945142773457
10
4.3012138809006766
20
-40.462945142773457
0
LWPOLYLINE
5
197
100
AcDbEntity
8
0
100
AcDbPolyline
90
4
70
1
43
0.0
10
3.7877727472676677
20
-28.952195048325841
10
3.7877727472676677
20
-30.952195048325844
10
5.7877727472676677
20
-30.952195048325844
10
5.7877727472676677
20
-28.952195048325841
0
LWPOLYLINE
5
198
100
AcDbEntity
8
0
100
AcDbPolyline
90
4
70
1
43
0.0
10
-31.906020514433674
20
-1.5749999999999997
10
-31.906020514433674
20
-3.5749999999999997
10
-29.906020514433674
20
-3.5749999999999997
10
-29.906020514433674
20
-1.5749999999999997
0
LWPOLYLINE
5
199
100
AcDbEntity
8
0
100
AcDbPolyline
90
4
70
1
43
0.0
10
-29.366020514433671
20
-12.900000000000002
10
-29.366020514433671
20
-14.900000000000004
10
-27.366020514433668
20
-14.900000000000004
10
-27.366020514433668
20
-12.900000000000002
0
LWPOLYLINE
5
200
100
AcDbEntity
8
0
100
AcDbPolyline
90
4
70
1
43
0.0
10
-31.906020514433671
20
-27.575000000000003
10
-31.906020514433671
20
-29.575000000000003
10
-29.906020514433671
20
-29.575000000000003
10
-29.906020514433671
20
-27.575000000000003
0
LWPOLYLINE
5
201
100
AcDbEntity
8
0
100
AcDbPolyline
90
4
70
1
43
0.0
10
-29.366020514433671
20
-38.900000000000006
10
-29.366020514433671
20
-40.900000000000006
10
-27.366020514433668
20
-40.900000000000006
10
-27.366020514433668
20
-38.900000000000006
0
LWPOLYLINE
5
202
100
AcDbEntity
8
0
100
AcDbPolyline
90
4
70
1
43
0.0
10
-19.561020514433668
20
-22.770000000000007
10
-19.561020514433668
20
-24.770000000000003
10
-17.561020514433668
20
-24.770000000000003
10
-17.561020514433668
20
-22.770000000000007
0
LWPOLYLINE
5
203
100
AcDbEntity
8
0
100
AcDbPolyline
90
4
70
1
43
0.0
10
-10.361020514433664
20
-22.770000000000007
10
-10.361020514433664
20
-24.770000000000003
10
-8.3610205144336636
20
-24.770000000000003
10
-8.3610205144336636
20
-22.770000000000007
0
LWPOLYLINE
5
204
100
AcDbEntity
8
0
100
AcDbPolyline
90
10
70
1
43
0.0
10
2.5448596680604183
20
-12.000000000000002
10
9.6889794855663443
20
-12.000000000000002
10
9.6889794855663443
20
-29.190172499673871
10
4.116657983697495
20
-44.500000000000014
10
-5.5762786125775055
20
-44.500000000000014
42
0.94077493124783584
10
-21.945762416289828
20
-44.500000000000014
10
-32.71102051443367
20
-44.500000000000014
10
-32.71102051443367
20
0
10
-9.5610205144336629
20
0
10
-9.5610205144336629
20
-4.7899999999999991
42
0.56834329020867314
0
ENDSEC
0
SECTION
2
OBJECTS
0
DICTIONARY
5
C
100
AcDbDictionary
3
ACAD_GROUP
350
D
3
ACAD_MLINESTYLE
350
17
0
DICTIONARY
5
D
100
AcDbDictionary
0
DICTIONARY
5
1A
330
C
100
AcDbDictionary
0
DICTIONARY
5
17
100
AcDbDictionary
0
ENDSEC
0
EOF
