0
SECTION
2
HEADER
9
$INSUNITS
70
4
9
$ACADVER
1
AC1014
9
$HANDSEED
5
FFFF
0
ENDSEC
0
SECTION
2
TABLES
0
TABLE
2
VPORT
5
8
100
AcDbSymbolTable
0
ENDTAB
0
TABLE
2
LTYPE
5
5
100
AcDbSymbolTable
0
LTYPE
5
14
100
AcDbSymbolTableRecord
100
AcDbLinetypeTableRecord
2
BYBLOCK
70
0
0
LTYPE
5
15
100
AcDbSymbolTableRecord
100
AcDbLinetypeTableRecord
2
BYLAYER
70
0
0
ENDTAB
0
TABLE
2
LAYER
5
2
100
AcDbSymbolTable
70
2
0
LAYER
5
50
100
AcDbSymbolTableRecord
100
AcDbLayerTableRecord
2
0
70
0
6
CONTINUOUS
0
ENDTAB
0
TABLE
2
STYLE
5
3
100
AcDbSymbolTable
70
1
0
STYLE
5
11
100
AcDbSymbolTableRecord
100
AcDbTextStyleTableRecord
2
STANDARD
70
0
0
ENDTAB
0
TABLE
2
VIEW
5
6
100
AcDbSymbolTable
70
0
0
ENDTAB
0
TABLE
2
UCS
5
7
100
AcDbSymbolTable
70
0
0
ENDTAB
0
TABLE
2
APPID
5
9
100
AcDbSymbolTable
70
2
0
APPID
5
12
100
AcDbSymbolTableRecord
100
AcDbRegAppTableRecord
2
ACAD
70
0
0
ENDTAB
0
TABLE
2
DIMSTYLE
5
A
100
AcDbSymbolTable
70
1
0
ENDTAB
0
TABLE
2
BLOCK_RECORD
5
1
100
AcDbSymbolTable
70
1
0
BLOCK_RECORD
5
1F
100
AcDbSymbolTableRecord
100
AcDbBlockTableRecord
2
*MODEL_SPACE
0
BLOCK_RECORD
5
1B
100
AcDbSymbolTableRecord
100
AcDbBlockTableRecord
2
*PAPER_SPACE
0
ENDTAB
0
ENDSEC
0
SECTION
2
BLOCKS
0
BLOCK
5
20
100
AcDbEntity
100
AcDbBlockBegin
2
*MODEL_SPACE
0
ENDBLK
5
21
100
AcDbEntity
100
AcDbBlockEnd
0
BLOCK
5
1C
100
AcDbEntity
100
AcDbBlockBegin
2
*PAPER_SPACE
0
ENDBLK
5
1D
100
AcDbEntity
100
AcDbBlockEnd
0
ENDSEC
0
SECTION
2
ENTITIES
0
LWPOLYLINE
5
100
100
AcDbEntity
8
0
100
AcDbPolyline
90
4
70
1
43
0.0
10
-9.9610205144336508
20
-24.770000000000003
10
-9.9610205144336508
20
-22.770000000000007
10
-7.9610205144336508
20
-22.770000000000007
10
-7.9610205144336508
20
-24.770000000000003
0
CIRCLE
5
101
100
AcDbEntity
8
0
100
AcDbCircle
10
-8.9610205144336508
20
-23.770000000000003
30
0
40
0.40000000000000008
0
CIRCLE
5
102
100
AcDbEntity
8
0
100
AcDbCircle
10
-8.9610205144336508
20
-23.770000000000003
30
0
40
0.40000000000000008
0
LWPOLYLINE
5
103
100
AcDbEntity
8
0
100
AcDbPolyline
90
4
70
1
43
0.0
10
-9.9610205144336508
20
-24.770000000000003
10
-9.9610205144336508
20
-22.770000000000007
10
-7.9610205144336508
20
-22.770000000000007
10
-7.9610205144336508
20
-24.770000000000003
0
CIRCLE
5
104
100
AcDbEntity
8
0
100
AcDbCircle
10
-18.161020514433655
20
-23.770000000000003
30
0
40
0.40000000000000008
0
LWPOLYLINE
5
105
100
AcDbEntity
8
0
100
AcDbPolyline
90
4
70
1
43
0.0
10
-19.161020514433655
20
-24.770000000000003
10
-19.161020514433655
20
-22.770000000000007
10
-17.161020514433655
20
-22.770000000000007
10
-17.161020514433655
20
-24.770000000000003
0
CIRCLE
5
106
100
AcDbEntity
8
0
100
AcDbCircle
10
-27.966020514433655
20
-39.900000000000006
30
0
40
0.40000000000000008
0
LWPOLYLINE
5
107
100
AcDbEntity
8
0
100
AcDbPolyline
90
4
70
1
43
0.0
10
-28.966020514433659
20
-40.900000000000006
10
-28.966020514433659
20
-38.900000000000006
10
-26.966020514433655
20
-38.900000000000006
10
-26.966020514433655
20
-40.900000000000006
0
CIRCLE
5
108
100
AcDbEntity
8
0
100
AcDbCircle
10
-30.506020514433658
20
-28.575000000000003
30
0
40
0.40000000000000008
0
LWPOLYLINE
5
109
100
AcDbEntity
8
0
100
AcDbPolyline
90
4
70
1
43
0.0
10
-31.506020514433658
20
-29.575000000000003
10
-31.506020514433658
20
-27.575000000000003
10
-29.506020514433654
20
-27.575000000000003
10
-29.506020514433654
20
-29.575000000000003
0
CIRCLE
5
110
100
AcDbEntity
8
0
100
AcDbCircle
10
-27.966020514433655
20
-13.900000000000004
30
0
40
0.40000000000000008
0
LWPOLYLINE
5
111
100
AcDbEntity
8
0
100
AcDbPolyline
90
4
70
1
43
0.0
10
-28.966020514433659
20
-14.900000000000004
10
-28.966020514433659
20
-12.900000000000002
10
-26.966020514433655
20
-12.900000000000002
10
-26.966020514433655
20
-14.900000000000004
0
CIRCLE
5
112
100
AcDbEntity
8
0
100
AcDbCircle
10
-30.506020514433661
20
-2.5750000000000002
30
0
40
0.40000000000000008
0
LWPOLYLINE
5
113
100
AcDbEntity
8
0
100
AcDbPolyline
90
4
70
1
43
0.0
10
-31.506020514433661
20
-3.5749999999999997
10
-31.506020514433661
20
-1.5749999999999997
10
-29.506020514433658
20
-1.5749999999999997
10
-29.506020514433658
20
-3.5749999999999997
0
CIRCLE
5
114
100
AcDbEntity
8
0
100
AcDbCircle
10
5.1877727472676805
20
-29.952195048325841
30
-3.5527136788005017e-15
40
0.40000000000000013
0
LWPOLYLINE
5
115
100
AcDbEntity
8
0
100
AcDbPolyline
90
4
70
1
43
0.0
10
4.1877727472676805
20
-30.952195048325844
10
4.1877727472676805
20
-28.952195048325841
10
6.1877727472676805
20
-28.952195048325841
10
6.1877727472676805
20
-30.952195048325844
0
CIRCLE
5
116
100
AcDbEntity
8
0
100
AcDbCircle
10
3.7012138809006889
20
-41.462945142773464
30
-3.5527136788005017e-15
40
0.40000000000000013
0
LWPOLYLINE
5
117
100
AcDbEntity
8
0
100
AcDbPolyline
90
4
70
1
43
0.0
10
2.7012138809006894
20
-42.462945142773457
10
2.7012138809006894
20
-40.462945142773457
10
4.7012138809006894
20
-40.462945142773457
10
4.7012138809006894
20
-42.462945142773457
0
CIRCLE
5
118
100
AcDbEntity
8
0
100
AcDbCircle
10
5.7439794855663573
20
-13.100000000000003
30
0
40
0.40000000000000008
0
LWPOLYLINE
5
119
100
AcDbEntity
8
0
100
AcDbPolyline
90
4
70
1
43
0.0
10
4.7439794855663573
20
-14.100000000000001
10
4.7439794855663573
20
-12.100000000000001
10
6.7439794855663582
20
-12.100000000000001
10
6.7439794855663582
20
-14.100000000000001
0
CIRCLE
5
120
100
AcDbEntity
8
0
100
AcDbCircle
10
8.2839794855663502
20
-24.425000000000004
30
0
40
0.40000000000000008
0
LWPOLYLINE
5
121
100
AcDbEntity
8
0
100
AcDbPolyline
90
4
70
1
43
0.0
10
7.2839794855663502
20
-25.425000000000004
10
7.2839794855663502
20
-23.425000000000008
10
9.2839794855663502
20
-23.425000000000008
10
9.2839794855663502
20
-25.425000000000004
0
CIRCLE
5
122
100
AcDbEntity
8
0
100
AcDbCircle
10
-12.611020514433651
20
-33.500000000000007
30
0
40
0.35000000000000003
0
LWPOLYLINE
5
123
100
AcDbEntity
8
0
100
AcDbPolyline
90
4
70
1
43
0.0
10
-13.236020514433651
20
-34.125000000000007
10
-13.236020514433651
20
-32.875000000000007
10
-11.986020514433651
20
-32.875000000000007
10
-11.986020514433651
20
-34.125000000000007
0
CIRCLE
5
124
100
AcDbEntity
8
0
100
AcDbCircle
10
-15.611020514433651
20
-33.500000000000007
30
0
40
0.35000000000000003
0
LWPOLYLINE
5
125
100
AcDbEntity
8
0
100
AcDbPolyline
90
4
70
1
43
0.0
10
-16.236020514433651
20
-34.125000000000007
10
-16.236020514433651
20
-32.875000000000007
10
-14.986020514433651
20
-32.875000000000007
10
-14.986020514433651
20
-34.125000000000007
0
CIRCLE
5
126
100
AcDbEntity
8
0
100
AcDbCircle
10
-11.111020514433649
20
-33.500000000000007
30
0
40
0.35000000000000003
0
LWPOLYLINE
5
127
100
AcDbEntity
8
0
100
AcDbPolyline
90
4
70
1
43
0.0
10
-11.736020514433649
20
-34.125000000000007
10
-11.736020514433649
20
-32.875000000000007
10
-10.486020514433649
20
-32.875000000000007
10
-10.486020514433649
20
-34.125000000000007
0
CIRCLE
5
128
100
AcDbEntity
8
0
100
AcDbCircle
10
-6.6110205144336485
20
-33.500000000000007
30
0
40
0.35000000000000003
0
LWPOLYLINE
5
129
100
AcDbEntity
8
0
100
AcDbPolyline
90
4
70
1
43
0.0
10
-7.2360205144336485
20
-34.125000000000007
10
-7.2360205144336485
20
-32.875000000000007
10
-5.9860205144336485
20
-32.875000000000007
10
-5.9860205144336485
20
-34.125000000000007
0
CIRCLE
5
130
100
AcDbEntity
8
0
100
AcDbCircle
10
-6.0310205144336502
20
-14.500000000000002
30
0
40
0.35000000000000003
0
LWPOLYLINE
5
131
100
AcDbEntity
8
0
100
AcDbPolyline
90
4
70
1
43
0.0
10
-7.0310205144336502
20
-15.500000000000004
10
-7.0310205144336502
20
-13.500000000000004
10
-5.0310205144336511
20
-13.500000000000004
10
-5.0310205144336511
20
-15.500000000000004
0
CIRCLE
5
132
100
AcDbEntity
8
0
100
AcDbCircle
10
-8.5710205144336502
20
-14.500000000000002
30
0
40
0.35000000000000003
0
LWPOLYLINE
5
133
100
AcDbEntity
8
0
100
AcDbPolyline
90
4
70
1
43
0.0
10
-9.5710205144336502
20
-15.500000000000004
10
-9.5710205144336502
20
-13.500000000000004
10
-7.5710205144336493
20
-13.500000000000004
10
-7.5710205144336493
20
-15.500000000000004
0
CIRCLE
5
134
100
AcDbEntity
8
0
100
AcDbCircle
10
-16.191020514433653
20
-14.500000000000002
30
0
40
0.35000000000000003
0
LWPOLYLINE
5
135
100
AcDbEntity
8
0
100
AcDbPolyline
90
4
70
1
43
0.0
10
-17.191020514433653
20
-15.500000000000004
10
-17.191020514433653
20
-13.500000000000004
10
-15.191020514433653
20
-13.500000000000004
10
-15.191020514433653
20
-15.500000000000004
0
CIRCLE
5
136
100
AcDbEntity
8
0
100
AcDbCircle
10
-3.491020514433651
20
-14.500000000000002
30
0
40
0.35000000000000003
0
LWPOLYLINE
5
137
100
AcDbEntity
8
0
100
AcDbPolyline
90
4
70
1
43
0.0
10
-4.491020514433651
20
-15.500000000000004
10
-4.491020514433651
20
-13.500000000000004
10
-2.4910205144336506
20
-13.500000000000004
10
-2.4910205144336506
20
-15.500000000000004
0
CIRCLE
5
138
100
AcDbEntity
8
0
100
AcDbCircle
10
-11.111020514433649
20
-14.500000000000002
30
0
40
0.35000000000000003
0
LWPOLYLINE
5
139
100
AcDbEntity
8
0
100
AcDbPolyline
90
4
70
1
43
0.0
10
-12.111020514433651
20
-15.500000000000004
10
-12.111020514433651
20
-13.500000000000004
10
-10.111020514433648
20
-13.500000000000004
10
-10.111020514433648
20
-15.500000000000004
0
CIRCLE
5
140
100
AcDbEntity
8
0
100
AcDbCircle
10
-18.731020514433652
20
-14.500000000000002
30
0
40
0.35000000000000003
0
LWPOLYLINE
5
141
100
AcDbEntity
8
0
100
AcDbPolyline
90
4
70
1
43
0.0
10
-19.731020514433652
20
-15.500000000000004
10
-19.731020514433652
20
-13.500000000000004
10
-17.731020514433652
20
-13.500000000000004
10
-17.731020514433652
20
-15.500000000000004
0
CIRCLE
5
142
100
AcDbEntity
8
0
100
AcDbCircle
10
-13.65102051443365
20
-14.500000000000002
30
0
40
0.35000000000000003
0
LWPOLYLINE
5
143
100
AcDbEntity
8
0
100
AcDbPolyline
90
4
70
1
43
0.0
10
-14.65102051443365
20
-15.500000000000004
10
-14.65102051443365
20
-13.500000000000004
10
-12.651020514433649
20
-13.500000000000004
10
-12.651020514433649
20
-15.500000000000004
0
CIRCLE
5
144
100
AcDbEntity
8
0
100
AcDbCircle
10
-14.111020514433649
20
-33.500000000000007
30
0
40
0.35000000000000003
0
LWPOLYLINE
5
145
100
AcDbEntity
8
0
100
AcDbPolyline
90
4
70
1
43
0.0
10
-14.736020514433649
20
-34.125000000000007
10
-14.736020514433649
20
-32.875000000000007
10
-13.486020514433649
20
-32.875000000000007
10
-13.486020514433649
20
-34.125000000000007
0
CIRCLE
5
146
100
AcDbEntity
8
0
100
AcDbCircle
10
-9.6110205144336494
20
-33.500000000000007
30
0
40
0.35000000000000003
0
LWPOLYLINE
5
147
100
AcDbEntity
8
0
100
AcDbPolyline
90
4
70
1
43
0.0
10
-10.236020514433651
20
-34.125000000000007
10
-10.236020514433651
20
-32.875000000000007
10
-8.9860205144336494
20
-32.875000000000007
10
-8.9860205144336494
20
-34.125000000000007
0
CIRCLE
5
148
100
AcDbEntity
8
0
100
AcDbCircle
10
-8.1110205144336494
20
-33.500000000000007
30
0
40
0.35000000000000003
0
LWPOLYLINE
5
149
100
AcDbEntity
8
0
100
AcDbPolyline
90
4
70
1
43
0.0
10
-8.7360205144336494
20
-34.125000000000007
10
-8.7360205144336494
20
-32.875000000000007
10
-7.4860205144336494
20
-32.875000000000007
10
-7.4860205144336494
20
-34.125000000000007
0
CIRCLE
5
150
100
AcDbEntity
8
0
100
AcDbCircle
10
5.7439794855663511
20
-24.425000000000004
30
0
40
0.40000000000000008
0
LWPOLYLINE
5
151
100
AcDbEntity
8
0
100
AcDbPolyline
90
4
70
1
43
0.0
10
4.7439794855663502
20
-25.425000000000004
10
4.7439794855663502
20
-23.425000000000008
10
6.7439794855663502
20
-23.425000000000008
10
6.7439794855663502
20
-25.425000000000004
0
CIRCLE
5
152
100
AcDbEntity
8
0
100
AcDbCircle
10
8.2839794855663573
20
-13.100000000000005
30
0
40
0.40000000000000008
0
LWPOLYLINE
5
153
100
AcDbEntity
8
0
100
AcDbPolyline
90
4
70
1
43
0.0
10
7.2839794855663564
20
-14.100000000000003
10
7.2839794855663564
20
-12.100000000000005
10
9.2839794855663573
20
-12.100000000000005
10
9.2839794855663573
20
-14.100000000000003
0
CIRCLE
5
154
100
AcDbEntity
8
0
100
AcDbCircle
10
1.3143946241044804
20
-40.594213978726259
30
-3.5527136788005017e-15
40
0.40000000000000013
0
LWPOLYLINE
5
155
100
AcDbEntity
8
0
100
AcDbPolyline
90
4
70
1
43
0.0
10
0.31439462410448027
20
-41.594213978726266
10
0.31439462410448038
20
-39.594213978726259
10
2.3143946241044806
20
-39.594213978726259
10
2.3143946241044806
20
-41.594213978726266
0
CIRCLE
5
156
100
AcDbEntity
8
0
100
AcDbCircle
10
7.5745920040638897
20
-30.820926212373042
30
-3.5527136788005017e-15
40
0.40000000000000013
0
LWPOLYLINE
5
157
100
AcDbEntity
8
0
100
AcDbPolyline
90
4
70
1
43
0.0
10
6.5745920040638897
20
-31.820926212373042
10
6.5745920040638897
20
-29.820926212373038
10
8.5745920040638897
20
-29.820926212373038
10
8.5745920040638897
20
-31.820926212373042
0
CIRCLE
5
158
100
AcDbEntity
8
0
100
AcDbCircle
10
-27.966020514433655
20
-2.5750000000000002
30
0
40
0.40000000000000008
0
LWPOLYLINE
5
159
100
AcDbEntity
8
0
100
AcDbPolyline
90
4
70
1
43
0.0
10
-28.966020514433659
20
-3.5749999999999997
10
-28.966020514433659
20
-1.5749999999999997
10
-26.966020514433655
20
-1.5749999999999997
10
-26.966020514433655
20
-3.5749999999999997
0
CIRCLE
5
160
100
AcDbEntity
8
0
100
AcDbCircle
10
-30.506020514433658
20
-13.900000000000004
30
0
40
0.40000000000000008
0
LWPOLYLINE
5
161
100
AcDbEntity
8
0
100
AcDbPolyline
90
4
70
1
43
0.0
10
-31.506020514433658
20
-14.900000000000004
10
-31.506020514433658
20
-12.900000000000002
10
-29.506020514433654
20
-12.900000000000002
10
-29.506020514433654
20
-14.900000000000004
0
CIRCLE
5
162
100
AcDbEntity
8
0
100
AcDbCircle
10
-27.966020514433655
20
-28.575000000000003
30
0
40
0.40000000000000008
0
LWPOLYLINE
5
163
100
AcDbEntity
8
0
100
AcDbPolyline
90
4
70
1
43
0.0
10
-28.966020514433659
20
-29.575000000000003
10
-28.966020514433659
20
-27.575000000000003
10
-26.966020514433655
20
-27.575000000000003
10
-26.966020514433655
20
-29.575000000000003
0
CIRCLE
5
164
100
AcDbEntity
8
0
100
AcDbCircle
10
-30.506020514433658
20
-39.900000000000006
30
0
40
0.40000000000000008
0
LWPOLYLINE
5
165
100
AcDbEntity
8
0
100
AcDbPolyline
90
4
70
1
43
0.0
10
-31.506020514433658
20
-40.900000000000006
10
-31.506020514433658
20
-38.900000000000006
10
-29.506020514433654
20
-38.900000000000006
10
-29.506020514433654
20
-40.900000000000006
0
CIRCLE
5
166
100
AcDbEntity
8
0
100
AcDbCircle
10
-18.161020514433655
20
-21.230000000000008
30
0
40
0.40000000000000008
0
LWPOLYLINE
5
167
100
AcDbEntity
8
0
100
AcDbPolyline
90
4
70
1
43
0.0
10
-19.161020514433655
20
-22.230000000000004
10
-19.161020514433655
20
-20.230000000000004
10
-17.161020514433655
20
-20.230000000000004
10
-17.161020514433655
20
-22.230000000000004
0
CIRCLE
5
168
100
AcDbEntity
8
0
100
AcDbCircle
10
-8.9610205144336543
20
-21.230000000000008
30
0
40
0.40000000000000008
0
LWPOLYLINE
5
169
100
AcDbEntity
8
0
100
AcDbPolyline
90
4
70
1
43
0.0
10
-9.9610205144336543
20
-22.230000000000004
10
-9.9610205144336543
20
-20.230000000000004
10
-7.9610205144336543
20
-20.230000000000004
10
-7.9610205144336543
20
-22.230000000000004
0
LWPOLYLINE
5
170
100
AcDbEntity
8
0
100
AcDbPolyline
90
4
70
1
43
0.0
10
-9.9610205144336543
20
-20.230000000000004
10
-9.9610205144336543
20
-22.230000000000004
10
-7.9610205144336543
20
-22.230000000000004
10
-7.9610205144336543
20
-20.230000000000004
0
LWPOLYLINE
5
171
100
AcDbEntity
8
0
100
AcDbPolyline
90
4
70
1
43
0.0
10
-19.161020514433655
20
-20.230000000000004
10
-19.161020514433655
20
-22.230000000000004
10
-17.161020514433655
20
-22.230000000000004
10
-17.161020514433655
20
-20.230000000000004
0
LWPOLYLINE
5
172
100
AcDbEntity
8
0
100
AcDbPolyline
90
4
70
1
43
0.0
10
-31.506020514433658
20
-38.900000000000006
10
-31.506020514433658
20
-40.900000000000006
10
-29.506020514433654
20
-40.900000000000006
10
-29.506020514433654
20
-38.900000000000006
0
LWPOLYLINE
5
173
100
AcDbEntity
8
0
100
AcDbPolyline
90
4
70
1
43
0.0
10
-28.966020514433659
20
-27.575000000000003
10
-28.966020514433659
20
-29.575000000000003
10
-26.966020514433655
20
-29.575000000000003
10
-26.966020514433655
20
-27.575000000000003
0
LWPOLYLINE
5
174
100
AcDbEntity
8
0
100
AcDbPolyline
90
4
70
1
43
0.0
10
-31.506020514433658
20
-12.900000000000002
10
-31.506020514433658
20
-14.900000000000004
10
-29.506020514433654
20
-14.900000000000004
10
-29.506020514433654
20
-12.900000000000002
0
LWPOLYLINE
5
175
100
AcDbEntity
8
0
100
AcDbPolyline
90
4
70
1
43
0.0
10
-28.966020514433659
20
-1.5749999999999997
10
-28.966020514433659
20
-3.5749999999999997
10
-26.966020514433655
20
-3.5749999999999997
10
-26.966020514433655
20
-1.5749999999999997
0
LWPOLYLINE
5
176
100
AcDbEntity
8
0
100
AcDbPolyline
90
4
70
1
43
0.0
10
6.5745920040638897
20
-29.820926212373038
10
6.5745920040638897
20
-31.820926212373042
10
8.5745920040638897
20
-31.820926212373042
10
8.5745920040638897
20
-29.820926212373038
0
LWPOLYLINE
5
177
100
AcDbEntity
8
0
100
AcDbPolyline
90
4
70
1
43
0.0
10
0.31439462410448027
20
-39.594213978726259
10
0.31439462410448038
20
-41.594213978726266
10
2.3143946241044806
20
-41.594213978726266
10
2.3143946241044806
20
-39.594213978726259
0
LWPOLYLINE
5
178
100
AcDbEntity
8
0
100
AcDbPolyline
90
4
70
1
43
0.0
10
7.2839794855663564
20
-12.100000000000005
10
7.2839794855663564
20
-14.100000000000003
10
9.2839794855663573
20
-14.100000000000003
10
9.2839794855663573
20
-12.100000000000005
0
LWPOLYLINE
5
179
100
AcDbEntity
8
0
100
AcDbPolyline
90
4
70
1
43
0.0
10
4.7439794855663502
20
-23.425000000000008
10
4.7439794855663502
20
-25.425000000000004
10
6.7439794855663502
20
-25.425000000000004
10
6.7439794855663502
20
-23.425000000000008
0
LWPOLYLINE
5
180
100
AcDbEntity
8
0
100
AcDbPolyline
90
4
70
1
43
0.0
10
-8.7360205144336494
20
-32.875000000000007
10
-8.7360205144336494
20
-34.125000000000007
10
-7.4860205144336494
20
-34.125000000000007
10
-7.4860205144336494
20
-32.875000000000007
0
LWPOLYLINE
5
181
100
AcDbEntity
8
0
100
AcDbPolyline
90
4
70
1
43
0.0
10
-10.236020514433651
20
-32.875000000000007
10
-10.236020514433651
20
-34.125000000000007
10
-8.9860205144336494
20
-34.125000000000007
10
-8.9860205144336494
20
-32.875000000000007
0
LWPOLYLINE
5
182
100
AcDbEntity
8
0
100
AcDbPolyline
90
4
70
1
43
0.0
10
-14.736020514433649
20
-32.875000000000007
10
-14.736020514433649
20
-34.125000000000007
10
-13.486020514433649
20
-34.125000000000007
10
-13.486020514433649
20
-32.875000000000007
0
LWPOLYLINE
5
183
100
AcDbEntity
8
0
100
AcDbPolyline
90
4
70
1
43
0.0
10
-14.65102051443365
20
-13.500000000000004
10
-14.65102051443365
20
-15.500000000000004
10
-12.651020514433649
20
-15.500000000000004
10
-12.651020514433649
20
-13.500000000000004
0
LWPOLYLINE
5
184
100
AcDbEntity
8
0
100
AcDbPolyline
90
4
70
1
43
0.0
10
-19.731020514433652
20
-13.500000000000004
10
-19.731020514433652
20
-15.500000000000004
10
-17.731020514433652
20
-15.500000000000004
10
-17.731020514433652
20
-13.500000000000004
0
LWPOLYLINE
5
185
100
AcDbEntity
8
0
100
AcDbPolyline
90
4
70
1
43
0.0
10
-12.111020514433651
20
-13.500000000000004
10
-12.111020514433651
20
-15.500000000000004
10
-10.111020514433648
20
-15.500000000000004
10
-10.111020514433648
20
-13.500000000000004
0
LWPOLYLINE
5
186
100
AcDbEntity
8
0
100
AcDbPolyline
90
4
70
1
43
0.0
10
-4.491020514433651
20
-13.500000000000004
10
-4.491020514433651
20
-15.500000000000004
10
-2.4910205144336506
20
-15.500000000000004
10
-2.4910205144336506
20
-13.500000000000004
0
LWPOLYLINE
5
187
100
AcDbEntity
8
0
100
AcDbPolyline
90
4
70
1
43
0.0
10
-17.191020514433653
20
-13.500000000000004
10
-17.191020514433653
20
-15.500000000000004
10
-15.191020514433653
20
-15.500000000000004
10
-15.191020514433653
20
-13.500000000000004
0
LWPOLYLINE
5
188
100
AcDbEntity
8
0
100
AcDbPolyline
90
4
70
1
43
0.0
10
-9.5710205144336502
20
-13.500000000000004
10
-9.5710205144336502
20
-15.500000000000004
10
-7.5710205144336493
20
-15.500000000000004
10
-7.5710205144336493
20
-13.500000000000004
0
LWPOLYLINE
5
189
100
AcDbEntity
8
0
100
AcDbPolyline
90
4
70
1
43
0.0
10
-7.0310205144336502
20
-13.500000000000004
10
-7.0310205144336502
20
-15.500000000000004
10
-5.0310205144336511
20
-15.500000000000004
10
-5.0310205144336511
20
-13.500000000000004
0
LWPOLYLINE
5
190
100
AcDbEntity
8
0
100
AcDbPolyline
90
4
70
1
43
0.0
10
-7.2360205144336485
20
-32.875000000000007
10
-7.2360205144336485
20
-34.125000000000007
10
-5.9860205144336485
20
-34.125000000000007
10
-5.9860205144336485
20
-32.875000000000007
0
LWPOLYLINE
5
191
100
AcDbEntity
8
0
100
AcDbPolyline
90
4
70
1
43
0.0
10
-11.736020514433649
20
-32.875000000000007
10
-11.736020514433649
20
-34.125000000000007
10
-10.486020514433649
20
-34.125000000000007
10
-10.486020514433649
20
-32.875000000000007
0
LWPOLYLINE
5
192
100
AcDbEntity
8
0
100
AcDbPolyline
90
4
70
1
43
0.0
10
-16.236020514433651
20
-32.875000000000007
10
-16.236020514433651
20
-34.125000000000007
10
-14.986020514433651
20
-34.125000000000007
10
-14.986020514433651
20
-32.875000000000007
0
LWPOLYLINE
5
193
100
AcDbEntity
8
0
100
AcDbPolyline
90
4
70
1
43
0.0
10
-13.236020514433651
20
-32.875000000000007
10
-13.236020514433651
20
-34.125000000000007
10
-11.986020514433651
20
-34.125000000000007
10
-11.986020514433651
20
-32.875000000000007
0
LWPOLYLINE
5
194
100
AcDbEntity
8
0
100
AcDbPolyline
90
4
70
1
43
0.0
10
7.2839794855663502
20
-23.425000000000008
10
7.2839794855663502
20
-25.425000000000004
10
9.2839794855663502
20
-25.425000000000004
10
9.2839794855663502
20
-23.425000000000008
0
LWPOLYLINE
5
195
100
AcDbEntity
8
0
100
AcDbPolyline
90
4
70
1
43
0.0
10
4.7439794855663573
20
-12.100000000000001
10
4.7439794855663573
20
-14.100000000000001
10
6.7439794855663582
20
-14.100000000000001
10
6.7439794855663582
20
-12.100000000000001
0
LWPOLYLINE
5
196
100
AcDbEntity
8
0
100
AcDbPolyline
90
4
70
1
43
0.0
10
2.7012138809006894
20
-40.462945142773457
10
2.7012138809006894
20
-42.462945142773457
10
4.7012138809006894
20
-42.462945142773457
10
4.7012138809006894
20
-40.462945142773457
0
LWPOLYLINE
5
197
100
AcDbEntity
8
0
100
AcDbPolyline
90
4
70
1
43
0.0
10
4.1877727472676805
20
-28.952195048325841
10
4.1877727472676805
20
-30.952195048325844
10
6.1877727472676805
20
-30.952195048325844
10
6.1877727472676805
20
-28.952195048325841
0
LWPOLYLINE
5
198
100
AcDbEntity
8
0
100
AcDbPolyline
90
4
70
1
43
0.0
10
-31.506020514433661
20
-1.5749999999999997
10
-31.506020514433661
20
-3.5749999999999997
10
-29.506020514433658
20
-3.5749999999999997
10
-29.506020514433658
20
-1.5749999999999997
0
LWPOLYLINE
5
199
100
AcDbEntity
8
0
100
AcDbPolyline
90
4
70
1
43
0.0
10
-28.966020514433659
20
-12.900000000000002
10
-28.966020514433659
20
-14.900000000000004
10
-26.966020514433655
20
-14.900000000000004
10
-26.966020514433655
20
-12.900000000000002
0
LWPOLYLINE
5
200
100
AcDbEntity
8
0
100
AcDbPolyline
90
4
70
1
43
0.0
10
-31.506020514433658
20
-27.575000000000003
10
-31.506020514433658
20
-29.575000000000003
10
-29.506020514433654
20
-29.575000000000003
10
-29.506020514433654
20
-27.575000000000003
0
LWPOLYLINE
5
201
100
AcDbEntity
8
0
100
AcDbPolyline
90
4
70
1
43
0.0
10
-28.966020514433659
20
-38.900000000000006
10
-28.966020514433659
20
-40.900000000000006
10
-26.966020514433655
20
-40.900000000000006
10
-26.966020514433655
20
-38.900000000000006
0
LWPOLYLINE
5
202
100
AcDbEntity
8
0
100
AcDbPolyline
90
4
70
1
43
0.0
10
-19.161020514433655
20
-22.770000000000007
10
-19.161020514433655
20
-24.770000000000003
10
-17.161020514433655
20
-24.770000000000003
10
-17.161020514433655
20
-22.770000000000007
0
LWPOLYLINE
5
203
100
AcDbEntity
8
0
100
AcDbPolyline
90
4
70
1
43
0.0
10
-9.9610205144336508
20
-22.770000000000007
10
-9.9610205144336508
20
-24.770000000000003
10
-7.9610205144336508
20
-24.770000000000003
10
-7.9610205144336508
20
-22.770000000000007
0
LWPOLYLINE
5
204
100
AcDbEntity
8
0
100
AcDbPolyline
90
10
70
1
43
0.0
10
3.6066813147141308
20
-12.000000000000002
10
10.088979485566355
20
-12.000000000000002
10
10.088979485566355
20
-29.190172499673871
10
4.5166579836975078
20
-44.500000000000014
10
-5.1762786125774944
20
-44.500000000000014
42
0.9407749312478354
10
-21.545762416289818
20
-44.500000000000014
10
-32.311020514433658
20
-44.500000000000014
10
-32.311020514433658
20
0
10
-9.1610205144336501
20
0
10
-9.1610205144336501
20
-5.1899999999999995
42
0.5999768207528654
0
ENDSEC
0
SECTION
2
OBJECTS
0
DICTIONARY
5
C
100
AcDbDictionary
3
ACAD_GROUP
350
D
3
ACAD_MLINESTYLE
350
17
0
DICTIONARY
5
D
100
AcDbDictionary
0
DICTIONARY
5
1A
330
C
100
AcDbDictionary
0
DICTIONARY
5
17
100
AcDbDictionary
0
ENDSEC
0
EOF
