0
SECTION
2
HEADER
9
$INSUNITS
70
4
9
$ACADVER
1
AC1014
9
$HANDSEED
5
FFFF
0
ENDSEC
0
SECTION
2
TABLES
0
TABLE
2
VPORT
5
8
100
AcDbSymbolTable
0
ENDTAB
0
TABLE
2
LTYPE
5
5
100
AcDbSymbolTable
0
LTYPE
5
14
100
AcDbSymbolTableRecord
100
AcDbLinetypeTableRecord
2
BYBLOCK
70
0
0
LTYPE
5
15
100
AcDbSymbolTableRecord
100
AcDbLinetypeTableRecord
2
BYLAYER
70
0
0
ENDTAB
0
TABLE
2
LAYER
5
2
100
AcDbSymbolTable
70
2
0
LAYER
5
50
100
AcDbSymbolTableRecord
100
AcDbLayerTableRecord
2
0
70
0
6
CONTINUOUS
0
ENDTAB
0
TABLE
2
STYLE
5
3
100
AcDbSymbolTable
70
1
0
STYLE
5
11
100
AcDbSymbolTableRecord
100
AcDbTextStyleTableRecord
2
STANDARD
70
0
0
ENDTAB
0
TABLE
2
VIEW
5
6
100
AcDbSymbolTable
70
0
0
ENDTAB
0
TABLE
2
UCS
5
7
100
AcDbSymbolTable
70
0
0
ENDTAB
0
TABLE
2
APPID
5
9
100
AcDbSymbolTable
70
2
0
APPID
5
12
100
AcDbSymbolTableRecord
100
AcDbRegAppTableRecord
2
ACAD
70
0
0
ENDTAB
0
TABLE
2
DIMSTYLE
5
A
100
AcDbSymbolTable
70
1
0
ENDTAB
0
TABLE
2
BLOCK_RECORD
5
1
100
AcDbSymbolTable
70
1
0
BLOCK_RECORD
5
1F
100
AcDbSymbolTableRecord
100
AcDbBlockTableRecord
2
*MODEL_SPACE
0
BLOCK_RECORD
5
1B
100
AcDbSymbolTableRecord
100
AcDbBlockTableRecord
2
*PAPER_SPACE
0
ENDTAB
0
ENDSEC
0
SECTION
2
BLOCKS
0
BLOCK
5
20
100
AcDbEntity
100
AcDbBlockBegin
2
*MODEL_SPACE
0
ENDBLK
5
21
100
AcDbEntity
100
AcDbBlockEnd
0
BLOCK
5
1C
100
AcDbEntity
100
AcDbBlockBegin
2
*PAPER_SPACE
0
ENDBLK
5
1D
100
AcDbEntity
100
AcDbBlockEnd
0
ENDSEC
0
SECTION
2
ENTITIES
0
LWPOLYLINE
5
100
100
AcDbEntity
8
0
100
AcDbPolyline
90
4
70
1
43
0.0
10
39.055000000000014
20
14.575000000000003
10
39.055000000000014
20
12.575000000000003
10
37.055000000000014
20
12.575000000000003
10
37.055000000000014
20
14.575000000000003
0
CIRCLE
5
101
100
AcDbEntity
8
0
100
AcDbCircle
10
38.055000000000014
20
13.575000000000001
30
0
40
0.40000000000000008
0
CIRCLE
5
102
100
AcDbEntity
8
0
100
AcDbCircle
10
38.055000000000014
20
13.575000000000001
30
0
40
0.40000000000000008
0
LWPOLYLINE
5
103
100
AcDbEntity
8
0
100
AcDbPolyline
90
4
70
1
43
0.0
10
39.055000000000014
20
14.575000000000003
10
39.055000000000014
20
12.575000000000003
10
37.055000000000014
20
12.575000000000003
10
37.055000000000014
20
14.575000000000003
0
CIRCLE
5
104
100
AcDbEntity
8
0
100
AcDbCircle
10
40.595000000000006
20
24.900000000000002
30
0
40
0.40000000000000008
0
LWPOLYLINE
5
105
100
AcDbEntity
8
0
100
AcDbPolyline
90
4
70
1
43
0.0
10
41.595000000000006
20
25.900000000000002
10
41.595000000000006
20
23.900000000000002
10
39.595000000000006
20
23.900000000000002
10
39.595000000000006
20
25.900000000000002
0
CIRCLE
5
106
100
AcDbEntity
8
0
100
AcDbCircle
10
37.336333693621647
20
30.398549043199161
30
-3.5527136788005017e-15
40
0.40000000000000013
0
LWPOLYLINE
5
107
100
AcDbEntity
8
0
100
AcDbPolyline
90
4
70
1
43
0.0
10
38.336333693621647
20
31.398549043199161
10
38.336333693621647
20
29.398549043199157
10
36.336333693621647
20
29.398549043199157
10
36.336333693621647
20
31.398549043199161
0
CIRCLE
5
108
100
AcDbEntity
8
0
100
AcDbCircle
10
35.849774827254656
20
41.909299137646769
30
-3.5527136788005017e-15
40
0.40000000000000013
0
LWPOLYLINE
5
109
100
AcDbEntity
8
0
100
AcDbPolyline
90
4
70
1
43
0.0
10
36.849774827254656
20
42.909299137646777
10
36.849774827254656
20
40.909299137646769
10
34.849774827254656
20
40.909299137646769
10
34.849774827254656
20
42.909299137646777
0
CIRCLE
5
110
100
AcDbEntity
8
0
100
AcDbCircle
10
4.3450000000000042
20
13.425000000000002
30
0
40
0.40000000000000008
0
LWPOLYLINE
5
111
100
AcDbEntity
8
0
100
AcDbPolyline
90
4
70
1
43
0.0
10
5.3450000000000042
20
14.425000000000001
10
5.3450000000000042
20
12.425000000000001
10
3.3450000000000042
20
12.425000000000001
10
3.3450000000000042
20
14.425000000000001
0
CIRCLE
5
112
100
AcDbEntity
8
0
100
AcDbCircle
10
1.805000000000001
20
2.0999999999999992
30
0
40
0.40000000000000008
0
LWPOLYLINE
5
113
100
AcDbEntity
8
0
100
AcDbPolyline
90
4
70
1
43
0.0
10
2.8050000000000015
20
3.0999999999999996
10
2.8050000000000015
20
1.099999999999999
10
0.80500000000000071
20
1.099999999999999
10
0.80500000000000071
20
3.0999999999999996
0
CIRCLE
5
114
100
AcDbEntity
8
0
100
AcDbCircle
10
4.3450000000000033
20
39.425000000000004
30
0
40
0.40000000000000008
0
LWPOLYLINE
5
115
100
AcDbEntity
8
0
100
AcDbPolyline
90
4
70
1
43
0.0
10
5.3450000000000033
20
40.425000000000004
10
5.3450000000000033
20
38.425000000000004
10
3.3450000000000029
20
38.425000000000004
10
3.3450000000000029
20
40.425000000000004
0
CIRCLE
5
116
100
AcDbEntity
8
0
100
AcDbCircle
10
1.8049999999999999
20
28.100000000000005
30
0
40
0.40000000000000008
0
LWPOLYLINE
5
117
100
AcDbEntity
8
0
100
AcDbPolyline
90
4
70
1
43
0.0
10
2.8050000000000002
20
29.100000000000005
10
2.8050000000000002
20
27.100000000000009
10
0.80499999999999994
20
27.100000000000009
10
0.80499999999999994
20
29.100000000000005
0
CIRCLE
5
118
100
AcDbEntity
8
0
100
AcDbCircle
10
23.75
20
23.770000000000003
30
0
40
0.40000000000000008
0
LWPOLYLINE
5
119
100
AcDbEntity
8
0
100
AcDbPolyline
90
4
70
1
43
0.0
10
24.75
20
24.770000000000003
10
24.75
20
22.770000000000007
10
22.75
20
22.770000000000007
10
22.75
20
24.770000000000003
0
CIRCLE
5
120
100
AcDbEntity
8
0
100
AcDbCircle
10
14.550000000000001
20
23.770000000000003
30
0
40
0.40000000000000008
0
LWPOLYLINE
5
121
100
AcDbEntity
8
0
100
AcDbPolyline
90
4
70
1
43
0.0
10
15.550000000000001
20
24.770000000000003
10
15.550000000000001
20
22.770000000000007
10
13.550000000000002
20
22.770000000000007
10
13.550000000000002
20
24.770000000000003
0
CIRCLE
5
122
100
AcDbEntity
8
0
100
AcDbCircle
10
19.700000000000006
20
33.500000000000007
30
0
40
0.35000000000000003
0
LWPOLYLINE
5
123
100
AcDbEntity
8
0
100
AcDbPolyline
90
4
70
1
43
0.0
10
20.325000000000006
20
34.125000000000007
10
20.325000000000006
20
32.875000000000007
10
19.075000000000006
20
32.875000000000007
10
19.075000000000006
20
34.125000000000007
0
CIRCLE
5
124
100
AcDbEntity
8
0
100
AcDbCircle
10
16.700000000000006
20
33.500000000000007
30
0
40
0.35000000000000003
0
LWPOLYLINE
5
125
100
AcDbEntity
8
0
100
AcDbPolyline
90
4
70
1
43
0.0
10
17.325000000000006
20
34.125000000000007
10
17.325000000000006
20
32.875000000000007
10
16.075000000000006
20
32.875000000000007
10
16.075000000000006
20
34.125000000000007
0
CIRCLE
5
126
100
AcDbEntity
8
0
100
AcDbCircle
10
21.200000000000006
20
33.500000000000007
30
0
40
0.35000000000000003
0
LWPOLYLINE
5
127
100
AcDbEntity
8
0
100
AcDbPolyline
90
4
70
1
43
0.0
10
21.825000000000006
20
34.125000000000007
10
21.825000000000006
20
32.875000000000007
10
20.575000000000006
20
32.875000000000007
10
20.575000000000006
20
34.125000000000007
0
CIRCLE
5
128
100
AcDbEntity
8
0
100
AcDbCircle
10
25.700000000000006
20
33.500000000000007
30
0
40
0.35000000000000003
0
LWPOLYLINE
5
129
100
AcDbEntity
8
0
100
AcDbPolyline
90
4
70
1
43
0.0
10
26.325000000000006
20
34.125000000000007
10
26.325000000000006
20
32.875000000000007
10
25.075000000000006
20
32.875000000000007
10
25.075000000000006
20
34.125000000000007
0
CIRCLE
5
130
100
AcDbEntity
8
0
100
AcDbCircle
10
26.280000000000005
20
14.500000000000002
30
0
40
0.35000000000000003
0
LWPOLYLINE
5
131
100
AcDbEntity
8
0
100
AcDbPolyline
90
4
70
1
43
0.0
10
27.280000000000008
20
15.500000000000004
10
27.280000000000008
20
13.500000000000004
10
25.280000000000005
20
13.500000000000004
10
25.280000000000005
20
15.500000000000004
0
CIRCLE
5
132
100
AcDbEntity
8
0
100
AcDbCircle
10
23.740000000000006
20
14.500000000000002
30
0
40
0.35000000000000003
0
LWPOLYLINE
5
133
100
AcDbEntity
8
0
100
AcDbPolyline
90
4
70
1
43
0.0
10
24.740000000000006
20
15.500000000000004
10
24.740000000000006
20
13.500000000000004
10
22.740000000000006
20
13.500000000000004
10
22.740000000000006
20
15.500000000000004
0
CIRCLE
5
134
100
AcDbEntity
8
0
100
AcDbCircle
10
16.120000000000005
20
14.500000000000002
30
0
40
0.35000000000000003
0
LWPOLYLINE
5
135
100
AcDbEntity
8
0
100
AcDbPolyline
90
4
70
1
43
0.0
10
17.120000000000005
20
15.500000000000004
10
17.120000000000005
20
13.500000000000004
10
15.120000000000005
20
13.500000000000004
10
15.120000000000005
20
15.500000000000004
0
CIRCLE
5
136
100
AcDbEntity
8
0
100
AcDbCircle
10
28.820000000000007
20
14.500000000000002
30
0
40
0.35000000000000003
0
LWPOLYLINE
5
137
100
AcDbEntity
8
0
100
AcDbPolyline
90
4
70
1
43
0.0
10
29.820000000000007
20
15.500000000000004
10
29.820000000000007
20
13.500000000000004
10
27.820000000000004
20
13.500000000000004
10
27.820000000000004
20
15.500000000000004
0
CIRCLE
5
138
100
AcDbEntity
8
0
100
AcDbCircle
10
21.200000000000006
20
14.500000000000002
30
0
40
0.35000000000000003
0
LWPOLYLINE
5
139
100
AcDbEntity
8
0
100
AcDbPolyline
90
4
70
1
43
0.0
10
22.200000000000006
20
15.500000000000004
10
22.200000000000006
20
13.500000000000004
10
20.200000000000003
20
13.500000000000004
10
20.200000000000003
20
15.500000000000004
0
CIRCLE
5
140
100
AcDbEntity
8
0
100
AcDbCircle
10
13.580000000000005
20
14.500000000000002
30
0
40
0.35000000000000003
0
LWPOLYLINE
5
141
100
AcDbEntity
8
0
100
AcDbPolyline
90
4
70
1
43
0.0
10
14.580000000000004
20
15.500000000000004
10
14.580000000000004
20
13.500000000000004
10
12.580000000000005
20
13.500000000000004
10
12.580000000000005
20
15.500000000000004
0
CIRCLE
5
142
100
AcDbEntity
8
0
100
AcDbCircle
10
18.660000000000007
20
14.500000000000002
30
0
40
0.35000000000000003
0
LWPOLYLINE
5
143
100
AcDbEntity
8
0
100
AcDbPolyline
90
4
70
1
43
0.0
10
19.660000000000007
20
15.500000000000004
10
19.660000000000007
20
13.500000000000004
10
17.660000000000007
20
13.500000000000004
10
17.660000000000007
20
15.500000000000004
0
CIRCLE
5
144
100
AcDbEntity
8
0
100
AcDbCircle
10
18.200000000000006
20
33.500000000000007
30
0
40
0.35000000000000003
0
LWPOLYLINE
5
145
100
AcDbEntity
8
0
100
AcDbPolyline
90
4
70
1
43
0.0
10
18.825000000000006
20
34.125000000000007
10
18.825000000000006
20
32.875000000000007
10
17.575000000000006
20
32.875000000000007
10
17.575000000000006
20
34.125000000000007
0
CIRCLE
5
146
100
AcDbEntity
8
0
100
AcDbCircle
10
22.70000000000001
20
33.500000000000007
30
0
40
0.35000000000000003
0
LWPOLYLINE
5
147
100
AcDbEntity
8
0
100
AcDbPolyline
90
4
70
1
43
0.0
10
23.32500000000001
20
34.125000000000007
10
23.32500000000001
20
32.875000000000007
10
22.07500000000001
20
32.875000000000007
10
22.07500000000001
20
34.125000000000007
0
CIRCLE
5
148
100
AcDbEntity
8
0
100
AcDbCircle
10
24.20000000000001
20
33.500000000000007
30
0
40
0.35000000000000003
0
LWPOLYLINE
5
149
100
AcDbEntity
8
0
100
AcDbPolyline
90
4
70
1
43
0.0
10
24.82500000000001
20
34.125000000000007
10
24.82500000000001
20
32.875000000000007
10
23.57500000000001
20
32.875000000000007
10
23.57500000000001
20
34.125000000000007
0
CIRCLE
5
150
100
AcDbEntity
8
0
100
AcDbCircle
10
14.550000000000001
20
21.230000000000008
30
0
40
0.40000000000000008
0
LWPOLYLINE
5
151
100
AcDbEntity
8
0
100
AcDbPolyline
90
4
70
1
43
0.0
10
15.550000000000001
20
22.230000000000004
10
15.550000000000001
20
20.230000000000004
10
13.550000000000002
20
20.230000000000004
10
13.550000000000002
20
22.230000000000004
0
CIRCLE
5
152
100
AcDbEntity
8
0
100
AcDbCircle
10
23.75
20
21.230000000000008
30
0
40
0.40000000000000008
0
LWPOLYLINE
5
153
100
AcDbEntity
8
0
100
AcDbPolyline
90
4
70
1
43
0.0
10
24.75
20
22.230000000000004
10
24.75
20
20.230000000000004
10
22.75
20
20.230000000000004
10
22.75
20
22.230000000000004
0
CIRCLE
5
154
100
AcDbEntity
8
0
100
AcDbCircle
10
4.3450000000000006
20
28.100000000000005
30
0
40
0.40000000000000008
0
LWPOLYLINE
5
155
100
AcDbEntity
8
0
100
AcDbPolyline
90
4
70
1
43
0.0
10
5.3450000000000006
20
29.100000000000005
10
5.3450000000000006
20
27.100000000000009
10
3.3450000000000002
20
27.100000000000009
10
3.3450000000000002
20
29.100000000000005
0
CIRCLE
5
156
100
AcDbEntity
8
0
100
AcDbCircle
10
1.8050000000000022
20
39.425000000000004
30
0
40
0.40000000000000008
0
LWPOLYLINE
5
157
100
AcDbEntity
8
0
100
AcDbPolyline
90
4
70
1
43
0.0
10
2.8050000000000024
20
40.425000000000004
10
2.8050000000000024
20
38.425000000000004
10
0.80500000000000216
20
38.425000000000004
10
0.80500000000000216
20
40.425000000000004
0
CIRCLE
5
158
100
AcDbEntity
8
0
100
AcDbCircle
10
4.3450000000000015
20
2.0999999999999988
30
0
40
0.40000000000000008
0
LWPOLYLINE
5
159
100
AcDbEntity
8
0
100
AcDbPolyline
90
4
70
1
43
0.0
10
5.3450000000000024
20
3.0999999999999988
10
5.3450000000000024
20
1.0999999999999985
10
3.3450000000000015
20
1.0999999999999985
10
3.3450000000000015
20
3.0999999999999988
0
CIRCLE
5
160
100
AcDbEntity
8
0
100
AcDbCircle
10
1.8050000000000033
20
13.425000000000002
30
0
40
0.40000000000000008
0
LWPOLYLINE
5
161
100
AcDbEntity
8
0
100
AcDbPolyline
90
4
70
1
43
0.0
10
2.8050000000000037
20
14.425000000000001
10
2.8050000000000037
20
12.425000000000001
10
0.80500000000000294
20
12.425000000000001
10
0.80500000000000294
20
14.425000000000001
0
CIRCLE
5
162
100
AcDbEntity
8
0
100
AcDbCircle
10
33.462955570458448
20
41.040567973599579
30
-3.5527136788005017e-15
40
0.40000000000000013
0
LWPOLYLINE
5
163
100
AcDbEntity
8
0
100
AcDbPolyline
90
4
70
1
43
0.0
10
34.462955570458448
20
42.040567973599572
10
34.462955570458448
20
40.040567973599572
10
32.462955570458448
20
40.040567973599572
10
32.462955570458448
20
42.040567973599572
0
CIRCLE
5
164
100
AcDbEntity
8
0
100
AcDbCircle
10
39.723152950417855
20
31.267280207246358
30
-3.5527136788005017e-15
40
0.40000000000000013
0
LWPOLYLINE
5
165
100
AcDbEntity
8
0
100
AcDbPolyline
90
4
70
1
43
0.0
10
40.723152950417855
20
32.267280207246358
10
40.723152950417855
20
30.267280207246358
10
38.723152950417855
20
30.267280207246358
10
38.723152950417855
20
32.267280207246358
0
CIRCLE
5
166
100
AcDbEntity
8
0
100
AcDbCircle
10
38.055000000000007
20
24.900000000000002
30
0
40
0.40000000000000008
0
LWPOLYLINE
5
167
100
AcDbEntity
8
0
100
AcDbPolyline
90
4
70
1
43
0.0
10
39.055000000000007
20
25.900000000000002
10
39.055000000000007
20
23.900000000000002
10
37.055000000000007
20
23.900000000000002
10
37.055000000000007
20
25.900000000000002
0
CIRCLE
5
168
100
AcDbEntity
8
0
100
AcDbCircle
10
40.595000000000013
20
13.575000000000001
30
0
40
0.40000000000000008
0
LWPOLYLINE
5
169
100
AcDbEntity
8
0
100
AcDbPolyline
90
4
70
1
43
0.0
10
41.595000000000013
20
14.575000000000003
10
41.595000000000013
20
12.575000000000003
10
39.595000000000013
20
12.575000000000003
10
39.595000000000013
20
14.575000000000003
0
LWPOLYLINE
5
170
100
AcDbEntity
8
0
100
AcDbPolyline
90
4
70
1
43
0.0
10
41.595000000000013
20
12.575000000000003
10
41.595000000000013
20
14.575000000000003
10
39.595000000000013
20
14.575000000000003
10
39.595000000000013
20
12.575000000000003
0
LWPOLYLINE
5
171
100
AcDbEntity
8
0
100
AcDbPolyline
90
4
70
1
43
0.0
10
39.055000000000007
20
23.900000000000002
10
39.055000000000007
20
25.900000000000002
10
37.055000000000007
20
25.900000000000002
10
37.055000000000007
20
23.900000000000002
0
LWPOLYLINE
5
172
100
AcDbEntity
8
0
100
AcDbPolyline
90
4
70
1
43
0.0
10
40.723152950417855
20
30.267280207246358
10
40.723152950417855
20
32.267280207246358
10
38.723152950417855
20
32.267280207246358
10
38.723152950417855
20
30.267280207246358
0
LWPOLYLINE
5
173
100
AcDbEntity
8
0
100
AcDbPolyline
90
4
70
1
43
0.0
10
34.462955570458448
20
40.040567973599572
10
34.462955570458448
20
42.040567973599572
10
32.462955570458448
20
42.040567973599572
10
32.462955570458448
20
40.040567973599572
0
LWPOLYLINE
5
174
100
AcDbEntity
8
0
100
AcDbPolyline
90
4
70
1
43
0.0
10
2.8050000000000037
20
12.425000000000001
10
2.8050000000000037
20
14.425000000000001
10
0.80500000000000294
20
14.425000000000001
10
0.80500000000000294
20
12.425000000000001
0
LWPOLYLINE
5
175
100
AcDbEntity
8
0
100
AcDbPolyline
90
4
70
1
43
0.0
10
5.3450000000000024
20
1.0999999999999985
10
5.3450000000000024
20
3.0999999999999988
10
3.3450000000000015
20
3.0999999999999988
10
3.3450000000000015
20
1.0999999999999985
0
LWPOLYLINE
5
176
100
AcDbEntity
8
0
100
AcDbPolyline
90
4
70
1
43
0.0
10
2.8050000000000024
20
38.425000000000004
10
2.8050000000000024
20
40.425000000000004
10
0.80500000000000216
20
40.425000000000004
10
0.80500000000000216
20
38.425000000000004
0
LWPOLYLINE
5
177
100
AcDbEntity
8
0
100
AcDbPolyline
90
4
70
1
43
0.0
10
5.3450000000000006
20
27.100000000000009
10
5.3450000000000006
20
29.100000000000005
10
3.3450000000000002
20
29.100000000000005
10
3.3450000000000002
20
27.100000000000009
0
LWPOLYLINE
5
178
100
AcDbEntity
8
0
100
AcDbPolyline
90
4
70
1
43
0.0
10
24.75
20
20.230000000000004
10
24.75
20
22.230000000000004
10
22.75
20
22.230000000000004
10
22.75
20
20.230000000000004
0
LWPOLYLINE
5
179
100
AcDbEntity
8
0
100
AcDbPolyline
90
4
70
1
43
0.0
10
15.550000000000001
20
20.230000000000004
10
15.550000000000001
20
22.230000000000004
10
13.550000000000002
20
22.230000000000004
10
13.550000000000002
20
20.230000000000004
0
LWPOLYLINE
5
180
100
AcDbEntity
8
0
100
AcDbPolyline
90
4
70
1
43
0.0
10
24.82500000000001
20
32.875000000000007
10
24.82500000000001
20
34.125000000000007
10
23.57500000000001
20
34.125000000000007
10
23.57500000000001
20
32.875000000000007
0
LWPOLYLINE
5
181
100
AcDbEntity
8
0
100
AcDbPolyline
90
4
70
1
43
0.0
10
23.32500000000001
20
32.875000000000007
10
23.32500000000001
20
34.125000000000007
10
22.07500000000001
20
34.125000000000007
10
22.07500000000001
20
32.875000000000007
0
LWPOLYLINE
5
182
100
AcDbEntity
8
0
100
AcDbPolyline
90
4
70
1
43
0.0
10
18.825000000000006
20
32.875000000000007
10
18.825000000000006
20
34.125000000000007
10
17.575000000000006
20
34.125000000000007
10
17.575000000000006
20
32.875000000000007
0
LWPOLYLINE
5
183
100
AcDbEntity
8
0
100
AcDbPolyline
90
4
70
1
43
0.0
10
19.660000000000007
20
13.500000000000004
10
19.660000000000007
20
15.500000000000004
10
17.660000000000007
20
15.500000000000004
10
17.660000000000007
20
13.500000000000004
0
LWPOLYLINE
5
184
100
AcDbEntity
8
0
100
AcDbPolyline
90
4
70
1
43
0.0
10
14.580000000000004
20
13.500000000000004
10
14.580000000000004
20
15.500000000000004
10
12.580000000000005
20
15.500000000000004
10
12.580000000000005
20
13.500000000000004
0
LWPOLYLINE
5
185
100
AcDbEntity
8
0
100
AcDbPolyline
90
4
70
1
43
0.0
10
22.200000000000006
20
13.500000000000004
10
22.200000000000006
20
15.500000000000004
10
20.200000000000003
20
15.500000000000004
10
20.200000000000003
20
13.500000000000004
0
LWPOLYLINE
5
186
100
AcDbEntity
8
0
100
AcDbPolyline
90
4
70
1
43
0.0
10
29.820000000000007
20
13.500000000000004
10
29.820000000000007
20
15.500000000000004
10
27.820000000000004
20
15.500000000000004
10
27.820000000000004
20
13.500000000000004
0
LWPOLYLINE
5
187
100
AcDbEntity
8
0
100
AcDbPolyline
90
4
70
1
43
0.0
10
17.120000000000005
20
13.500000000000004
10
17.120000000000005
20
15.500000000000004
10
15.120000000000005
20
15.500000000000004
10
15.120000000000005
20
13.500000000000004
0
LWPOLYLINE
5
188
100
AcDbEntity
8
0
100
AcDbPolyline
90
4
70
1
43
0.0
10
24.740000000000006
20
13.500000000000004
10
24.740000000000006
20
15.500000000000004
10
22.740000000000006
20
15.500000000000004
10
22.740000000000006
20
13.500000000000004
0
LWPOLYLINE
5
189
100
AcDbEntity
8
0
100
AcDbPolyline
90
4
70
1
43
0.0
10
27.280000000000008
20
13.500000000000004
10
27.280000000000008
20
15.500000000000004
10
25.280000000000005
20
15.500000000000004
10
25.280000000000005
20
13.500000000000004
0
LWPOLYLINE
5
190
100
AcDbEntity
8
0
100
AcDbPolyline
90
4
70
1
43
0.0
10
26.325000000000006
20
32.875000000000007
10
26.325000000000006
20
34.125000000000007
10
25.075000000000006
20
34.125000000000007
10
25.075000000000006
20
32.875000000000007
0
LWPOLYLINE
5
191
100
AcDbEntity
8
0
100
AcDbPolyline
90
4
70
1
43
0.0
10
21.825000000000006
20
32.875000000000007
10
21.825000000000006
20
34.125000000000007
10
20.575000000000006
20
34.125000000000007
10
20.575000000000006
20
32.875000000000007
0
LWPOLYLINE
5
192
100
AcDbEntity
8
0
100
AcDbPolyline
90
4
70
1
43
0.0
10
17.325000000000006
20
32.875000000000007
10
17.325000000000006
20
34.125000000000007
10
16.075000000000006
20
34.125000000000007
10
16.075000000000006
20
32.875000000000007
0
LWPOLYLINE
5
193
100
AcDbEntity
8
0
100
AcDbPolyline
90
4
70
1
43
0.0
10
20.325000000000006
20
32.875000000000007
10
20.325000000000006
20
34.125000000000007
10
19.075000000000006
20
34.125000000000007
10
19.075000000000006
20
32.875000000000007
0
LWPOLYLINE
5
194
100
AcDbEntity
8
0
100
AcDbPolyline
90
4
70
1
43
0.0
10
15.550000000000001
20
22.770000000000007
10
15.550000000000001
20
24.770000000000003
10
13.550000000000002
20
24.770000000000003
10
13.550000000000002
20
22.770000000000007
0
LWPOLYLINE
5
195
100
AcDbEntity
8
0
100
AcDbPolyline
90
4
70
1
43
0.0
10
24.75
20
22.770000000000007
10
24.75
20
24.770000000000003
10
22.75
20
24.770000000000003
10
22.75
20
22.770000000000007
0
LWPOLYLINE
5
196
100
AcDbEntity
8
0
100
AcDbPolyline
90
4
70
1
43
0.0
10
2.8050000000000002
20
27.100000000000009
10
2.8050000000000002
20
29.100000000000005
10
0.80499999999999994
20
29.100000000000005
10
0.80499999999999994
20
27.100000000000009
0
LWPOLYLINE
5
197
100
AcDbEntity
8
0
100
AcDbPolyline
90
4
70
1
43
0.0
10
5.3450000000000033
20
38.425000000000004
10
5.3450000000000033
20
40.425000000000004
10
3.3450000000000029
20
40.425000000000004
10
3.3450000000000029
20
38.425000000000004
0
LWPOLYLINE
5
198
100
AcDbEntity
8
0
100
AcDbPolyline
90
4
70
1
43
0.0
10
2.8050000000000015
20
1.099999999999999
10
2.8050000000000015
20
3.0999999999999996
10
0.80500000000000071
20
3.0999999999999996
10
0.80500000000000071
20
1.099999999999999
0
LWPOLYLINE
5
199
100
AcDbEntity
8
0
100
AcDbPolyline
90
4
70
1
43
0.0
10
5.3450000000000042
20
12.425000000000001
10
5.3450000000000042
20
14.425000000000001
10
3.3450000000000042
20
14.425000000000001
10
3.3450000000000042
20
12.425000000000001
0
LWPOLYLINE
5
200
100
AcDbEntity
8
0
100
AcDbPolyline
90
4
70
1
43
0.0
10
36.849774827254656
20
40.909299137646769
10
36.849774827254656
20
42.909299137646777
10
34.849774827254656
20
42.909299137646777
10
34.849774827254656
20
40.909299137646769
0
LWPOLYLINE
5
201
100
AcDbEntity
8
0
100
AcDbPolyline
90
4
70
1
43
0.0
10
38.336333693621647
20
29.398549043199157
10
38.336333693621647
20
31.398549043199161
10
36.336333693621647
20
31.398549043199161
10
36.336333693621647
20
29.398549043199157
0
LWPOLYLINE
5
202
100
AcDbEntity
8
0
100
AcDbPolyline
90
4
70
1
43
0.0
10
41.595000000000006
20
23.900000000000002
10
41.595000000000006
20
25.900000000000002
10
39.595000000000006
20
25.900000000000002
10
39.595000000000006
20
23.900000000000002
0
LWPOLYLINE
5
203
100
AcDbEntity
8
0
100
AcDbPolyline
90
4
70
1
43
0.0
10
39.055000000000014
20
12.575000000000003
10
39.055000000000014
20
14.575000000000003
10
37.055000000000014
20
14.575000000000003
10
37.055000000000014
20
12.575000000000003
0
LWPOLYLINE
5
204
100
AcDbEntity
8
0
100
AcDbPolyline
90
10
70
1
43
0.0
10
27.134741901856167
20
44.500000000000036
42
-0.94077493124783584
10
10.765258098143843
20
44.500000000000014
10
0
20
44.500000000000014
10
0
20
0
10
23.150000000000009
20
0
10
23.150000000000013
20
5.1900000000000004
42
-0.59997682075286485
10
35.917701829147788
20
12.000000000000002
10
42.400000000000013
20
12.000000000000002
10
42.400000000000013
20
29.19017249967391
10
36.827678498131178
20
44.500000000000014
0
ENDSEC
0
SECTION
2
OBJECTS
0
DICTIONARY
5
C
100
AcDbDictionary
3
ACAD_GROUP
350
D
3
ACAD_MLINESTYLE
350
17
0
DICTIONARY
5
D
100
AcDbDictionary
0
DICTIONARY
5
1A
330
C
100
AcDbDictionary
0
DICTIONARY
5
17
100
AcDbDictionary
0
ENDSEC
0
EOF
