G04 EAGLE Gerber RS-274X export*
G75*
%MOMM*%
%FSLAX34Y34*%
%LPD*%
%INBottom Copper*%
%IPPOS*%
%AMOC8*
5,1,8,0,0,1.08239X$1,22.5*%
G01*
%ADD10R,1.676400X1.676400*%
%ADD11C,1.676400*%
%ADD12R,1.208000X1.208000*%
%ADD13C,1.208000*%
%ADD14R,1.238000X1.238000*%
%ADD15C,1.238000*%
%ADD16C,1.278000*%
%ADD17C,1.258000*%
%ADD18C,0.152400*%


D10*
X25400Y25400D03*
D11*
X152400Y25400D03*
X228600Y25400D03*
X254000Y25400D03*
X177800Y25400D03*
X203200Y25400D03*
X304800Y152400D03*
X304800Y50800D03*
X304800Y177800D03*
X279400Y177800D03*
X279400Y25400D03*
X304800Y25400D03*
X177800Y177800D03*
X152400Y177800D03*
X127000Y177800D03*
X101600Y177800D03*
X76200Y177800D03*
X50800Y177800D03*
X127000Y152400D03*
X304800Y101600D03*
X127000Y50800D03*
X50800Y25400D03*
X76200Y25400D03*
X101600Y25400D03*
X127000Y25400D03*
X254000Y177800D03*
X228600Y177800D03*
X203200Y177800D03*
X25400Y177800D03*
X304800Y76200D03*
X304800Y127000D03*
D12*
X254000Y381000D03*
D13*
X254000Y396000D03*
X254000Y411000D03*
X254000Y426000D03*
X254000Y441000D03*
X254000Y456000D03*
X254000Y471000D03*
D12*
X203200Y381000D03*
D13*
X203200Y396000D03*
X203200Y411000D03*
X203200Y426000D03*
X203200Y441000D03*
X203200Y456000D03*
X203200Y471000D03*
D12*
X152400Y381000D03*
D13*
X152400Y396000D03*
X152400Y411000D03*
X152400Y426000D03*
X152400Y441000D03*
X152400Y456000D03*
X152400Y471000D03*
D12*
X101600Y381000D03*
D13*
X101600Y396000D03*
X101600Y411000D03*
X101600Y426000D03*
X101600Y441000D03*
X101600Y456000D03*
X101600Y471000D03*
D12*
X50800Y381000D03*
D13*
X50800Y396000D03*
X50800Y411000D03*
X50800Y426000D03*
X50800Y441000D03*
X50800Y456000D03*
X50800Y471000D03*
D12*
X317500Y355600D03*
D13*
X317500Y340600D03*
X317500Y325600D03*
X317500Y310600D03*
X317500Y295600D03*
X317500Y280600D03*
X317500Y265600D03*
D14*
X25400Y214300D03*
D15*
X50800Y214300D03*
X76200Y214300D03*
X101600Y214300D03*
X127000Y214300D03*
X152400Y214300D03*
X177800Y214300D03*
X203200Y214300D03*
X228600Y214300D03*
X254000Y214300D03*
X254000Y293700D03*
X228600Y293700D03*
X203200Y293700D03*
X177800Y293700D03*
X152400Y293700D03*
X127000Y293700D03*
X101600Y293700D03*
X76200Y293700D03*
X50800Y293700D03*
X25400Y293700D03*
D16*
X266700Y330200D03*
D17*
X241300Y330200D03*
X215900Y330200D03*
X190500Y330200D03*
X165100Y330200D03*
X139700Y330200D03*
X114300Y330200D03*
X88900Y330200D03*
X63500Y330200D03*
D16*
X342900Y25400D03*
D17*
X342900Y50800D03*
X342900Y76200D03*
X342900Y101600D03*
X342900Y127000D03*
X342900Y152400D03*
X342900Y177800D03*
X342900Y203200D03*
X342900Y228600D03*
D18*
X25400Y177800D02*
X4224Y198976D01*
X4224Y272524D01*
X25400Y293700D01*
X63500Y330200D02*
X63500Y398300D01*
X50800Y411000D01*
X76200Y177800D02*
X76200Y165100D01*
X63500Y152400D01*
X12700Y152400D01*
X-12700Y177800D01*
X-12700Y304800D01*
X12700Y330200D01*
X63500Y330200D01*
X76200Y400600D02*
X76207Y401214D01*
X76230Y401827D01*
X76267Y402440D01*
X76319Y403051D01*
X76385Y403662D01*
X76467Y404270D01*
X76563Y404876D01*
X76673Y405480D01*
X76798Y406081D01*
X76938Y406679D01*
X77092Y407273D01*
X77261Y407863D01*
X77443Y408449D01*
X77640Y409030D01*
X77851Y409607D01*
X78075Y410178D01*
X78313Y410744D01*
X78565Y411304D01*
X78831Y411857D01*
X79109Y412404D01*
X79401Y412944D01*
X79706Y413477D01*
X80024Y414002D01*
X80354Y414520D01*
X80696Y415029D01*
X81051Y415530D01*
X81418Y416022D01*
X81796Y416505D01*
X82186Y416979D01*
X82588Y417443D01*
X83000Y417898D01*
X83424Y418342D01*
X83858Y418776D01*
X84302Y419200D01*
X84757Y419612D01*
X85221Y420014D01*
X85695Y420404D01*
X86178Y420782D01*
X86670Y421149D01*
X87171Y421504D01*
X87680Y421846D01*
X88198Y422176D01*
X88723Y422494D01*
X89256Y422799D01*
X89796Y423091D01*
X90343Y423369D01*
X90896Y423635D01*
X91456Y423887D01*
X92022Y424125D01*
X92593Y424349D01*
X93170Y424560D01*
X93751Y424757D01*
X94337Y424939D01*
X94927Y425108D01*
X95521Y425262D01*
X96119Y425402D01*
X96720Y425527D01*
X97324Y425637D01*
X97930Y425733D01*
X98538Y425815D01*
X99149Y425881D01*
X99760Y425933D01*
X100373Y425970D01*
X100986Y425993D01*
X101600Y426000D01*
X76200Y400600D02*
X76200Y368300D01*
X88900Y355600D02*
X88900Y330200D01*
X88900Y355600D02*
X76200Y368300D01*
X127000Y368300D02*
X127000Y415600D01*
X127000Y368300D02*
X114300Y355600D01*
X114300Y330200D01*
X127000Y415600D02*
X101600Y441000D01*
X177800Y201600D02*
X177800Y177800D01*
X177800Y201600D02*
X114300Y265100D01*
X114300Y330200D01*
X101600Y441000D02*
X50800Y441000D01*
X177800Y445600D02*
X177800Y368300D01*
X165100Y355600D01*
X165100Y330200D01*
X177800Y445600D02*
X152400Y471000D01*
X139700Y443300D02*
X139700Y330200D01*
X139700Y443300D02*
X152400Y456000D01*
X279400Y203200D02*
X254000Y177800D01*
X279400Y203200D02*
X279400Y241300D01*
X266700Y254000D01*
X165100Y254000D02*
X139700Y279400D01*
X139700Y330200D01*
X165100Y254000D02*
X266700Y254000D01*
X292100Y330200D02*
X317500Y355600D01*
X292100Y330200D02*
X266700Y330200D01*
X266700Y306400D02*
X254000Y293700D01*
X266700Y306400D02*
X266700Y330200D01*
X228600Y214300D02*
X228600Y177800D01*
X203200Y177800D02*
X203200Y214300D01*
X152400Y214300D02*
X152400Y177800D01*
X294132Y116332D02*
X203200Y25400D01*
X294132Y116332D02*
X309219Y116332D01*
X342900Y150013D01*
X342900Y152400D01*
X364176Y287024D02*
X355600Y295600D01*
X317500Y295600D01*
X364176Y287024D02*
X364176Y173676D01*
X342900Y152400D01*
X292100Y139700D02*
X177800Y25400D01*
X292100Y139700D02*
X307187Y139700D01*
X342900Y175413D01*
X342900Y177800D01*
X296474Y259574D02*
X317500Y280600D01*
X296474Y259574D02*
X296474Y224226D01*
X342900Y177800D01*
X72316Y315216D02*
X50800Y293700D01*
X72316Y315216D02*
X86045Y315216D01*
X101600Y330772D01*
X101600Y381000D01*
X228600Y293700D02*
X228600Y482775D01*
X219349Y492026D01*
X47351Y492026D01*
X29774Y474449D01*
X29774Y389326D01*
X38100Y381000D02*
X50800Y381000D01*
X38100Y381000D02*
X29774Y389326D01*
X203200Y293700D02*
X221894Y275007D01*
X254000Y307113D01*
X254000Y381000D01*
M02*
