G04 EAGLE Gerber RS-274X export*
G75*
%MOMM*%
%FSLAX34Y34*%
%LPD*%
%INTop Copper*%
%IPPOS*%
%AMOC8*
5,1,8,0,0,1.08239X$1,22.5*%
G01*
%ADD10C,0.279400*%
%ADD11R,1.676400X1.676400*%
%ADD12C,1.676400*%
%ADD13R,1.208000X1.208000*%
%ADD14C,1.208000*%
%ADD15R,1.238000X1.238000*%
%ADD16C,1.238000*%
%ADD17C,1.278000*%
%ADD18C,1.258000*%
%ADD19C,0.152400*%


D10*
X256977Y491617D02*
X256977Y506603D01*
X261140Y506603D01*
X261268Y506601D01*
X261396Y506595D01*
X261524Y506585D01*
X261652Y506571D01*
X261779Y506554D01*
X261905Y506532D01*
X262031Y506507D01*
X262155Y506477D01*
X262279Y506444D01*
X262402Y506407D01*
X262524Y506366D01*
X262644Y506322D01*
X262763Y506274D01*
X262880Y506222D01*
X262996Y506167D01*
X263109Y506108D01*
X263222Y506045D01*
X263332Y505979D01*
X263439Y505910D01*
X263545Y505838D01*
X263649Y505762D01*
X263750Y505683D01*
X263849Y505601D01*
X263945Y505516D01*
X264038Y505429D01*
X264129Y505338D01*
X264216Y505245D01*
X264301Y505149D01*
X264383Y505050D01*
X264462Y504949D01*
X264538Y504845D01*
X264610Y504739D01*
X264679Y504632D01*
X264745Y504522D01*
X264808Y504409D01*
X264867Y504296D01*
X264922Y504180D01*
X264974Y504063D01*
X265022Y503944D01*
X265066Y503824D01*
X265107Y503702D01*
X265144Y503579D01*
X265177Y503455D01*
X265207Y503331D01*
X265232Y503205D01*
X265254Y503079D01*
X265271Y502952D01*
X265285Y502824D01*
X265295Y502696D01*
X265301Y502568D01*
X265303Y502440D01*
X265301Y502312D01*
X265295Y502184D01*
X265285Y502056D01*
X265271Y501928D01*
X265254Y501801D01*
X265232Y501675D01*
X265207Y501549D01*
X265177Y501425D01*
X265144Y501301D01*
X265107Y501178D01*
X265066Y501056D01*
X265022Y500936D01*
X264974Y500817D01*
X264922Y500700D01*
X264867Y500584D01*
X264808Y500471D01*
X264745Y500359D01*
X264679Y500248D01*
X264610Y500141D01*
X264538Y500035D01*
X264462Y499931D01*
X264383Y499830D01*
X264301Y499731D01*
X264216Y499635D01*
X264129Y499542D01*
X264038Y499451D01*
X263945Y499364D01*
X263849Y499279D01*
X263750Y499197D01*
X263649Y499118D01*
X263545Y499042D01*
X263439Y498970D01*
X263332Y498901D01*
X263222Y498835D01*
X263109Y498772D01*
X262996Y498713D01*
X262880Y498658D01*
X262763Y498606D01*
X262644Y498558D01*
X262524Y498514D01*
X262402Y498473D01*
X262279Y498436D01*
X262155Y498403D01*
X262031Y498373D01*
X261905Y498348D01*
X261779Y498326D01*
X261652Y498309D01*
X261524Y498295D01*
X261396Y498285D01*
X261268Y498279D01*
X261140Y498277D01*
X256977Y498277D01*
X206177Y491617D02*
X206177Y506603D01*
X210340Y506603D01*
X210468Y506601D01*
X210596Y506595D01*
X210724Y506585D01*
X210852Y506571D01*
X210979Y506554D01*
X211105Y506532D01*
X211231Y506507D01*
X211355Y506477D01*
X211479Y506444D01*
X211602Y506407D01*
X211724Y506366D01*
X211844Y506322D01*
X211963Y506274D01*
X212080Y506222D01*
X212196Y506167D01*
X212309Y506108D01*
X212422Y506045D01*
X212532Y505979D01*
X212639Y505910D01*
X212745Y505838D01*
X212849Y505762D01*
X212950Y505683D01*
X213049Y505601D01*
X213145Y505516D01*
X213238Y505429D01*
X213329Y505338D01*
X213416Y505245D01*
X213501Y505149D01*
X213583Y505050D01*
X213662Y504949D01*
X213738Y504845D01*
X213810Y504739D01*
X213879Y504632D01*
X213945Y504522D01*
X214008Y504409D01*
X214067Y504296D01*
X214122Y504180D01*
X214174Y504063D01*
X214222Y503944D01*
X214266Y503824D01*
X214307Y503702D01*
X214344Y503579D01*
X214377Y503455D01*
X214407Y503331D01*
X214432Y503205D01*
X214454Y503079D01*
X214471Y502952D01*
X214485Y502824D01*
X214495Y502696D01*
X214501Y502568D01*
X214503Y502440D01*
X214501Y502312D01*
X214495Y502184D01*
X214485Y502056D01*
X214471Y501928D01*
X214454Y501801D01*
X214432Y501675D01*
X214407Y501549D01*
X214377Y501425D01*
X214344Y501301D01*
X214307Y501178D01*
X214266Y501056D01*
X214222Y500936D01*
X214174Y500817D01*
X214122Y500700D01*
X214067Y500584D01*
X214008Y500471D01*
X213945Y500359D01*
X213879Y500248D01*
X213810Y500141D01*
X213738Y500035D01*
X213662Y499931D01*
X213583Y499830D01*
X213501Y499731D01*
X213416Y499635D01*
X213329Y499542D01*
X213238Y499451D01*
X213145Y499364D01*
X213049Y499279D01*
X212950Y499197D01*
X212849Y499118D01*
X212745Y499042D01*
X212639Y498970D01*
X212532Y498901D01*
X212422Y498835D01*
X212309Y498772D01*
X212196Y498713D01*
X212080Y498658D01*
X211963Y498606D01*
X211844Y498558D01*
X211724Y498514D01*
X211602Y498473D01*
X211479Y498436D01*
X211355Y498403D01*
X211231Y498373D01*
X211105Y498348D01*
X210979Y498326D01*
X210852Y498309D01*
X210724Y498295D01*
X210596Y498285D01*
X210468Y498279D01*
X210340Y498277D01*
X206177Y498277D01*
X211173Y498277D02*
X214503Y491617D01*
X153712Y491617D02*
X153712Y506603D01*
X158708Y498277D01*
X163703Y506603D01*
X163703Y491617D01*
X106243Y491617D02*
X106243Y506603D01*
X112903Y506603D01*
X112903Y499943D02*
X106243Y499943D01*
X57940Y506603D02*
X57940Y491617D01*
X53777Y506603D02*
X62103Y506603D01*
D11*
X25400Y25400D03*
D12*
X152400Y25400D03*
X228600Y25400D03*
X254000Y25400D03*
X177800Y25400D03*
X203200Y25400D03*
X304800Y152400D03*
X304800Y50800D03*
X304800Y177800D03*
X279400Y177800D03*
X279400Y25400D03*
X304800Y25400D03*
X177800Y177800D03*
X152400Y177800D03*
X127000Y177800D03*
X101600Y177800D03*
X76200Y177800D03*
X50800Y177800D03*
X127000Y152400D03*
X304800Y101600D03*
X127000Y50800D03*
X50800Y25400D03*
X76200Y25400D03*
X101600Y25400D03*
X127000Y25400D03*
X254000Y177800D03*
X228600Y177800D03*
X203200Y177800D03*
X25400Y177800D03*
X304800Y76200D03*
X304800Y127000D03*
D13*
X254000Y381000D03*
D14*
X254000Y396000D03*
X254000Y411000D03*
X254000Y426000D03*
X254000Y441000D03*
X254000Y456000D03*
X254000Y471000D03*
D13*
X203200Y381000D03*
D14*
X203200Y396000D03*
X203200Y411000D03*
X203200Y426000D03*
X203200Y441000D03*
X203200Y456000D03*
X203200Y471000D03*
D13*
X152400Y381000D03*
D14*
X152400Y396000D03*
X152400Y411000D03*
X152400Y426000D03*
X152400Y441000D03*
X152400Y456000D03*
X152400Y471000D03*
D13*
X101600Y381000D03*
D14*
X101600Y396000D03*
X101600Y411000D03*
X101600Y426000D03*
X101600Y441000D03*
X101600Y456000D03*
X101600Y471000D03*
D13*
X50800Y381000D03*
D14*
X50800Y396000D03*
X50800Y411000D03*
X50800Y426000D03*
X50800Y441000D03*
X50800Y456000D03*
X50800Y471000D03*
D13*
X317500Y355600D03*
D14*
X317500Y340600D03*
X317500Y325600D03*
X317500Y310600D03*
X317500Y295600D03*
X317500Y280600D03*
X317500Y265600D03*
D15*
X25400Y214300D03*
D16*
X50800Y214300D03*
X76200Y214300D03*
X101600Y214300D03*
X127000Y214300D03*
X152400Y214300D03*
X177800Y214300D03*
X203200Y214300D03*
X228600Y214300D03*
X254000Y214300D03*
X254000Y293700D03*
X228600Y293700D03*
X203200Y293700D03*
X177800Y293700D03*
X152400Y293700D03*
X127000Y293700D03*
X101600Y293700D03*
X76200Y293700D03*
X50800Y293700D03*
X25400Y293700D03*
D17*
X266700Y330200D03*
D18*
X241300Y330200D03*
X215900Y330200D03*
X190500Y330200D03*
X165100Y330200D03*
X139700Y330200D03*
X114300Y330200D03*
X88900Y330200D03*
X63500Y330200D03*
D17*
X342900Y25400D03*
D18*
X342900Y50800D03*
X342900Y76200D03*
X342900Y101600D03*
X342900Y127000D03*
X342900Y152400D03*
X342900Y177800D03*
X342900Y203200D03*
X342900Y228600D03*
D19*
X254313Y396000D02*
X254000Y396000D01*
X203200Y396000D01*
X152400Y396000D02*
X101600Y396000D01*
X152400Y396000D02*
X203200Y396000D01*
X101600Y396000D02*
X50800Y396000D01*
X51113Y396000D01*
X50800Y396000D02*
X37787Y396000D01*
X25400Y383613D01*
X25400Y293700D01*
X203200Y411000D02*
X254000Y411000D01*
X152400Y411000D02*
X101600Y411000D01*
X50800Y411000D01*
X152400Y411000D02*
X203200Y411000D01*
X203200Y426000D02*
X254000Y426000D01*
X152400Y426000D02*
X101600Y426000D01*
X50800Y426000D01*
X152400Y426000D02*
X203200Y426000D01*
X141870Y313376D02*
X105724Y313376D01*
X88900Y330200D01*
X141870Y313376D02*
X141870Y192670D01*
X127000Y177800D01*
X137668Y188468D01*
X203200Y441000D02*
X254000Y441000D01*
X152400Y441000D02*
X101600Y441000D01*
X152400Y441000D02*
X203200Y441000D01*
X279400Y305687D02*
X279400Y177800D01*
X279400Y305687D02*
X273184Y311903D01*
X183397Y311903D01*
X165100Y330200D01*
X152400Y471000D02*
X203200Y471000D01*
X254000Y471000D01*
X152400Y471000D02*
X101600Y471000D01*
X50800Y471000D01*
X50800Y456000D02*
X101600Y456000D01*
X203200Y456000D02*
X254000Y456000D01*
X203200Y456000D02*
X152400Y456000D01*
X101600Y456000D01*
X114300Y114300D02*
X25400Y25400D01*
X114300Y114300D02*
X190500Y114300D01*
X215900Y139700D01*
X215900Y254000D01*
X254000Y292100D01*
X254000Y293700D01*
X101600Y214300D02*
X101600Y177800D01*
X50800Y177800D02*
X50800Y214300D01*
X198889Y381000D02*
X203200Y381000D01*
X198889Y381000D02*
X152400Y334511D01*
X152400Y293700D01*
X317500Y265600D02*
X317500Y88900D01*
X304800Y76200D01*
X342900Y38100D02*
X342900Y25400D01*
X342900Y38100D02*
X304800Y76200D01*
X101600Y293700D02*
X80324Y314976D01*
X80324Y333752D01*
X127572Y381000D01*
X152400Y381000D01*
M02*
