M48
;GenerationSoftware,Autodesk,EAGLE,9.3.2*%
;CreationDate,2019-07-31T17:05:41Z*%
FMAT,2
ICI,OFF
METRIC,TZ,000.000
T5C0.700
T4C0.730
T3C0.750
T2C0.770
T1C0.813
%
G90
M71
T1
X2540Y2540
X15240Y2540
X22860Y2540
X25400Y2540
X17780Y2540
X20320Y2540
X30480Y15240
X30480Y5080
X30480Y17780
X27940Y17780
X27940Y2540
X30480Y2540
X17780Y17780
X15240Y17780
X12700Y17780
X10160Y17780
X7620Y17780
X5080Y17780
X12700Y15240
X30480Y10160
X12700Y5080
X5080Y2540
X7620Y2540
X10160Y2540
X12700Y2540
X25400Y17780
X22860Y17780
X20320Y17780
X2540Y17780
X30480Y7620
X30480Y12700
T2
X34290Y2540
X26670Y33020
T3
X34290Y7620
X34290Y10160
X34290Y12700
X34290Y15240
X34290Y17780
X34290Y20320
X34290Y22860
X16510Y33020
X24130Y33020
X21590Y33020
X19050Y33020
X13970Y33020
X11430Y33020
X8890Y33020
X6350Y33020
X34290Y5080
T4
X15240Y21430
X17780Y21430
X2540Y21430
X5080Y21430
X7620Y21430
X10160Y21430
X12700Y21430
X20320Y21430
X22860Y21430
X25400Y21430
X25400Y29370
X20320Y29370
X17780Y29370
X15240Y29370
X12700Y29370
X10160Y29370
X7620Y29370
X5080Y29370
X2540Y29370
X22860Y29370
T5
X20320Y47100
X15240Y38100
X15240Y39600
X15240Y41100
X15240Y42600
X15240Y44100
X15240Y45600
X15240Y47100
X10160Y38100
X31750Y28060
X31750Y26560
X20320Y38100
X25400Y38100
X25400Y39600
X25400Y41100
X10160Y44100
X25400Y42600
X25400Y44100
X25400Y45600
X25400Y47100
X20320Y39600
X20320Y41100
X20320Y42600
X20320Y44100
X10160Y41100
X10160Y45600
X10160Y47100
X20320Y45600
X10160Y42600
X5080Y39600
X5080Y41100
X5080Y42600
X5080Y44100
X10160Y39600
X5080Y38100
X5080Y47100
X31750Y35560
X31750Y34060
X31750Y32560
X31750Y31060
X31750Y29560
X5080Y45600
M30